{"glyphs":{"0":{"ha":528,"x_min":0,"x_max":0,"o":"m 165 992 b 242 917 206 992 240 960 l 242 547 l 242 193 b 165 118 242 154 208 118 b 88 193 125 118 93 149 l 88 547 l 88 917 b 165 992 88 960 128 992 m 194 547 l 194 917 b 165 943 194 929 182 943 b 135 917 149 943 135 932 l 135 547 l 135 193 b 165 167 135 181 149 167 b 194 193 182 167 192 175 m 326 1028 b 361 917 350 994 361 957 l 361 547 l 361 193 b 326 82 361 153 350 115 b 238 13 304 50 272 28 b 165 0 214 4 189 0 b 93 13 139 0 115 4 b 4 82 56 28 26 51 b -32 193 -18 114 -32 153 l -32 547 l -32 917 b 4 1028 -32 957 -18 996 b 93 1096 28 1060 57 1082 b 165 1110 114 1106 139 1110 b 238 1096 192 1110 215 1106 b 326 1028 275 1081 304 1058 m 314 547 l 314 917 b 288 1000 314 947 306 975 b 219 1053 271 1024 249 1042 b 165 1063 204 1060 186 1063 b 110 1053 144 1063 126 1060 b 43 1000 82 1040 60 1024 b 15 917 25 976 15 949 l 15 547 l 15 193 b 43 110 15 161 25 133 b 110 57 60 86 82 69 b 165 47 126 50 144 47 b 219 57 186 47 204 50 b 288 110 249 68 271 86 b 314 193 306 135 314 163 "},"1":{"ha":415,"x_min":0,"x_max":0,"o":"m 243 1110 l 243 0 l 196 0 l 196 931 b 193 928 196 931 194 929 b 144 879 181 910 163 894 l 124 867 l 124 0 l 76 0 l 76 846 b -37 833 42 836 17 835 l -81 833 l -81 881 l -37 881 b 76 896 13 881 39 886 l 76 978 b 75 976 76 976 76 976 b -37 953 43 961 18 954 l -81 953 l -81 1007 l -37 1007 l -17 1007 b 39 1024 1 1007 24 1013 b 76 1110 68 1044 76 1071 l 124 1110 l 124 924 b 181 1013 150 944 169 975 b 196 1110 192 1044 196 1078 "},"2":{"ha":539,"x_min":0,"x_max":0,"o":"m 156 119 l 131 47 l 392 47 l 392 0 l 115 0 l 58 0 l -17 0 l -67 0 b 214 828 -11 172 208 796 b 215 883 215 844 217 865 l 213 914 b 185 938 211 926 197 938 b 154 914 174 938 154 932 l 154 911 l 154 754 l 106 754 l 106 906 l 106 914 b 121 954 106 926 111 943 b 251 946 153 997 222 997 b 261 821 268 911 268 860 b 149 483 258 804 204 639 l 40 172 l 121 172 l 224 474 b 332 808 275 629 328 785 b 331 933 339 853 331 929 b 242 1050 321 982 292 1029 b 144 1057 211 1064 179 1067 b 29 917 82 1040 33 988 l 29 910 l 29 754 l -18 754 l -18 910 l -18 918 b 132 1103 -18 1007 43 1079 b 260 1094 175 1115 221 1111 b 383 940 325 1068 371 1011 b 386 801 383 933 393 850 b 276 468 382 775 328 621 b 172 172 246 379 211 281 l 392 172 l 392 119 m 106 119 l 24 119 l 0 47 l 81 47 "},"3":{"ha":528,"x_min":0,"x_max":0,"o":"m 361 431 l 361 415 l 361 383 l 361 321 l 361 196 l 361 188 b 354 139 361 172 358 156 b 306 57 344 107 328 79 b 231 11 285 36 260 21 b 143 1 204 1 175 -1 b 58 29 114 4 85 14 b -4 90 35 44 14 64 b -32 185 -22 119 -31 150 l -32 190 l -32 199 l -32 214 l -32 339 l 15 339 l 15 214 l 15 199 l 15 190 b 44 106 15 164 22 132 b 115 56 63 82 86 65 b 203 53 142 46 171 46 b 278 97 232 60 257 75 b 313 188 301 124 313 153 l 313 196 l 313 321 l 313 383 l 313 415 l 313 431 l 313 439 b 294 510 313 465 307 489 b 232 475 276 494 256 483 b 242 443 236 467 240 456 l 242 196 l 242 189 b 224 143 242 172 236 157 b 143 122 203 122 171 115 b 106 143 129 125 117 132 b 86 190 93 156 88 171 l 86 199 l 86 214 l 86 339 l 135 339 l 135 214 l 135 188 b 144 172 135 182 138 176 b 181 171 154 167 169 165 b 194 188 188 174 193 179 l 194 189 l 194 196 l 194 440 b 169 464 193 453 182 464 l 167 464 l 160 464 l 144 464 l 143 464 l 86 464 l 86 513 l 143 513 l 144 513 l 160 513 l 168 513 l 171 513 b 264 547 206 513 236 524 b 167 583 242 569 210 582 l 160 583 l 144 583 l 143 583 l 86 583 l 86 632 l 143 632 l 144 632 l 160 632 l 168 632 l 169 632 b 194 653 183 632 192 639 l 194 917 b 164 943 194 932 179 943 b 135 917 149 943 135 932 l 135 885 l 135 758 l 86 758 l 86 885 l 86 917 b 158 990 88 950 114 986 b 242 917 201 994 238 960 l 242 651 b 233 619 242 640 238 629 b 294 583 256 610 276 600 b 313 650 307 606 313 628 l 313 918 b 289 996 313 946 304 972 b 219 1051 272 1021 249 1039 b 124 1056 188 1064 156 1065 b 47 1006 92 1047 67 1031 b 15 917 26 979 15 950 l 15 885 l 15 758 l -32 758 l -32 885 l -32 917 b -26 963 -32 933 -31 949 b 15 1043 -19 992 -6 1019 b 90 1094 38 1067 63 1085 b 185 1108 122 1107 153 1113 b 274 1076 217 1106 247 1094 b 335 1011 300 1060 319 1038 b 361 918 353 982 361 950 l 361 649 b 328 546 360 611 349 576 b 335 533 332 540 333 536 b 361 439 350 504 360 474 "},"4":{"ha":540,"x_min":0,"x_max":0,"o":"m 325 1108 l 374 1108 l 374 1107 l 374 0 l 325 0 l 325 322 l 133 322 l 111 251 l 254 251 l 254 0 l 207 0 l 207 203 l -74 203 l -21 371 l 204 1108 l 254 1108 l 254 1107 l 29 371 l 99 371 l 324 1108 m 61 251 l 83 322 l 14 322 l -8 251 m 149 371 l 207 371 l 207 557 m 325 371 l 325 965 l 254 736 l 254 371 "},"5":{"ha":539,"x_min":0,"x_max":0,"o":"m 372 544 l 372 528 l 372 464 l 372 208 l 372 192 l 372 186 l 372 179 b 365 139 371 164 369 154 b 318 58 357 108 342 82 b 244 13 297 38 274 22 b 156 1 214 3 185 -1 b 71 31 124 6 97 15 b 8 92 44 47 24 68 b -21 186 -10 119 -19 151 l -21 196 l -21 213 l -21 340 l 28 340 l 28 213 l 28 196 l 28 190 b 38 140 28 171 31 154 b 60 101 43 125 50 113 b 133 54 81 78 106 64 b 222 56 164 46 193 46 b 294 103 251 65 276 81 b 317 144 306 117 313 131 b 325 192 322 160 325 175 l 325 208 l 325 464 l 325 528 l 325 544 b 317 593 325 561 322 578 b 297 631 313 607 306 619 b 233 679 281 653 260 669 b 194 690 219 686 207 689 b 147 688 179 693 164 692 l 147 613 b 176 619 157 617 167 619 l 179 619 b 240 588 204 619 225 608 b 254 544 250 575 254 561 l 254 528 l 254 464 l 254 208 l 254 192 b 251 171 254 188 253 181 b 242 153 247 165 246 158 b 211 128 235 143 225 135 b 129 135 185 115 153 118 b 103 169 117 144 107 156 b 99 213 97 185 99 197 l 99 340 l 147 340 l 147 213 l 147 196 l 147 192 l 147 190 l 147 189 l 147 188 b 157 172 147 182 150 176 b 194 172 167 167 185 165 b 206 188 201 176 206 181 l 206 189 l 206 192 l 206 208 l 206 464 l 206 528 l 206 544 l 206 547 l 206 549 b 178 572 204 564 190 572 b 153 546 163 572 151 561 l 147 546 l 104 546 l 99 546 l 99 668 b 61 631 83 657 71 646 b 33 546 43 604 33 576 l 28 546 l -14 546 l -21 546 l -19 926 b 3 1011 -19 956 -12 983 b 67 1079 18 1040 40 1063 b 163 1108 96 1097 128 1107 l 172 1108 l 179 1108 l 190 1108 l 372 1108 l 372 1061 l 190 1061 l 179 1061 l 172 1061 l 165 1061 b 64 1014 128 1061 90 1043 b 28 925 42 988 29 958 l 28 665 b 99 733 49 692 71 721 l 99 922 b 101 938 99 926 100 932 b 124 972 106 953 114 965 b 169 990 136 982 151 989 l 174 990 l 179 990 l 190 990 l 372 990 l 372 942 l 190 942 l 179 942 l 171 942 b 154 936 164 942 158 940 b 147 921 150 932 147 928 l 147 749 b 176 751 157 750 167 751 l 179 751 b 217 747 192 751 204 750 b 290 715 243 742 267 731 b 372 550 340 667 371 613 "},"6":{"ha":543,"x_min":0,"x_max":0,"o":"m 350 1013 b 376 907 365 986 376 944 l 376 872 l 376 804 l 329 804 l 329 872 l 329 907 b 296 1007 329 942 319 978 b 232 1051 278 1028 256 1043 b 144 1057 204 1063 175 1064 b 67 1010 114 1050 88 1035 b 31 921 46 986 32 954 l 31 915 l 31 911 l 31 903 l 31 835 l 31 614 b 103 665 49 635 74 651 l 103 835 l 103 903 l 103 911 l 103 915 l 103 918 b 200 988 103 965 156 999 b 257 915 232 978 256 953 l 257 907 l 257 872 l 257 804 l 210 804 l 210 872 l 210 907 l 210 915 l 210 917 b 200 935 210 924 207 931 b 182 942 196 939 189 942 b 150 919 167 943 154 935 l 150 917 l 150 915 l 150 911 l 150 903 l 150 835 l 150 679 b 200 681 165 682 182 682 b 289 649 232 676 263 665 b 350 583 314 632 335 610 b 376 494 365 556 375 526 l 376 483 l 376 465 l 376 432 l 376 297 l 376 229 l 376 196 l 376 189 l 376 182 b 354 106 374 153 367 128 b 306 44 343 82 326 61 b 238 8 283 26 261 15 b 150 1 208 0 179 -3 b 64 38 118 7 90 17 b 6 103 40 54 21 76 b -17 196 -11 132 -18 164 l -17 213 l -17 281 l -17 835 l -17 903 l -17 911 l -17 915 l -17 924 b 0 993 -15 947 -10 971 b 54 1064 13 1021 31 1044 b 138 1104 78 1083 106 1097 b 229 1103 168 1111 199 1111 b 299 1069 256 1096 278 1085 b 350 1013 319 1053 336 1033 m 150 196 l 150 192 l 150 190 b 179 167 151 175 167 167 b 208 186 192 165 204 174 b 210 190 208 188 210 189 l 210 192 l 210 196 l 210 229 l 210 297 l 210 432 l 210 465 l 210 483 l 210 489 l 210 490 b 179 514 208 506 194 515 b 150 488 164 514 150 503 l 150 281 l 150 213 m 103 611 b 31 488 58 594 31 536 l 31 281 l 31 213 l 31 196 l 31 185 b 36 154 32 175 32 164 b 83 83 44 125 60 101 b 156 49 104 65 128 53 b 235 57 183 44 210 47 b 297 104 260 67 281 83 b 318 138 306 114 313 125 b 329 185 324 153 329 168 l 329 196 l 329 229 l 329 297 l 329 432 l 329 465 l 329 483 b 325 519 329 494 328 507 b 311 556 322 535 318 546 b 247 618 297 582 276 603 b 150 631 215 633 183 638 l 150 556 b 192 561 163 563 176 564 b 228 546 206 558 218 553 b 254 508 242 536 250 524 b 257 465 258 493 257 481 l 257 432 l 257 297 l 257 229 l 257 196 l 257 189 b 250 163 256 179 254 172 b 156 122 235 128 193 111 b 103 183 129 132 107 154 l 103 189 l 103 196 l 103 213 l 103 281 "},"7":{"ha":471,"x_min":0,"x_max":0,"o":"m 313 1110 l 361 1110 l 350 1063 l 335 990 l 324 943 l 122 0 l 72 0 l 275 943 l 201 943 l 0 0 l -49 0 l 153 943 l -49 943 l -49 990 l 164 990 l 179 1063 l -49 1063 l -49 1110 l 190 1110 l 239 1110 m 286 990 l 301 1063 l 228 1063 l 213 990 "},"8":{"ha":519,"x_min":0,"x_max":0,"o":"m 369 658 b 335 549 369 619 357 581 l 342 538 b 369 442 358 510 369 475 l 369 436 l 369 194 b 363 143 369 179 367 161 b 318 64 354 114 339 88 b 244 14 297 42 274 25 b 151 1 215 3 183 -1 b 65 33 119 6 90 17 b 4 96 39 51 19 72 b -15 140 -6 111 -11 125 b -24 190 -21 157 -22 174 l -24 439 b 13 549 -24 478 -10 517 b -24 656 -14 575 -22 618 l -24 917 b -17 968 -24 932 -21 950 b 29 1047 -7 1000 8 1026 b 101 1097 47 1068 72 1085 b 194 1110 131 1108 163 1113 b 282 1078 226 1106 256 1096 b 342 1015 307 1060 326 1039 b 369 921 360 986 369 956 l 369 914 m 322 436 b 317 475 322 451 321 464 b 310 494 315 482 314 488 b 301 513 308 501 306 507 b 257 558 289 532 275 547 b 211 579 243 568 228 575 b 186 583 203 582 194 583 b 161 585 176 585 171 583 b 96 649 129 590 101 617 l 96 661 l 96 917 b 117 967 96 936 103 953 b 204 985 139 989 172 1000 b 238 957 218 978 229 969 b 247 936 242 950 246 943 b 250 914 249 932 250 924 l 250 658 b 239 621 250 643 246 631 b 301 585 263 611 283 600 b 322 658 314 607 322 632 l 322 914 l 322 915 b 292 1006 322 947 313 978 b 219 1056 272 1029 249 1046 b 125 1054 188 1065 156 1065 b 54 1004 97 1046 74 1029 b 24 917 33 978 24 949 l 24 661 b 76 549 24 621 43 575 b 104 531 86 540 96 535 b 178 513 122 521 143 513 b 238 479 201 513 222 500 b 250 436 246 468 250 454 l 250 194 b 157 122 250 150 207 111 b 96 197 131 126 96 154 l 96 439 b 107 476 96 451 100 464 b 46 513 85 485 64 497 b 24 439 31 489 24 464 l 24 197 l 24 196 b 56 106 28 164 33 133 b 126 56 75 82 99 65 b 221 57 158 46 190 46 b 293 108 250 67 275 85 b 322 194 313 133 322 163 m 203 440 b 185 463 203 450 194 458 b 143 439 168 472 144 460 l 143 197 l 143 193 l 143 192 b 176 168 147 176 161 167 b 203 194 189 169 203 179 l 203 436 m 203 918 b 200 928 203 921 201 924 b 167 943 194 939 179 947 b 143 917 154 939 143 929 l 143 660 l 143 658 l 143 657 l 143 656 l 146 647 b 181 633 153 636 165 629 b 203 658 192 638 203 646 l 203 917 "},"9":{"ha":536,"x_min":0,"x_max":0,"o":"m 367 913 l 367 894 l 367 819 l 367 657 l 367 418 l 367 301 l 367 243 l 367 215 l 367 200 b 324 74 367 157 356 111 b 254 18 306 50 281 33 b 156 0 222 3 189 -3 b 65 29 124 1 92 13 b 1 93 39 46 18 67 b -26 190 -17 122 -26 156 l -26 199 l -26 315 l 21 315 l 21 199 l 21 192 b 39 122 21 168 26 144 b 106 61 56 94 78 74 b 203 50 138 47 169 43 b 282 97 235 57 261 74 b 318 183 303 121 315 150 l 318 532 b 247 479 299 510 275 492 l 247 188 b 150 121 247 142 194 110 b 92 188 121 128 96 156 l 92 192 l 92 199 l 92 315 l 140 315 l 140 199 l 140 193 l 140 192 l 140 188 b 171 167 144 175 156 165 b 199 192 186 167 199 176 l 199 467 b 149 465 183 463 165 464 b 61 496 118 468 89 478 b 1 558 36 514 17 535 b -26 654 -17 588 -26 619 l -26 660 l -26 679 l -26 767 l -26 915 b -19 967 -26 919 -25 950 b 25 1046 -11 997 4 1024 b 97 1096 43 1067 68 1083 b 190 1108 128 1107 158 1111 b 278 1076 222 1104 251 1094 b 338 1014 304 1061 322 1040 b 367 919 356 988 365 957 m 199 915 l 199 917 b 168 942 199 932 183 943 b 140 915 153 942 140 931 l 140 767 l 140 679 l 140 660 l 140 658 l 140 657 l 140 656 b 171 631 140 640 156 629 b 199 657 186 632 199 642 l 199 819 l 199 894 l 199 913 m 247 533 b 285 567 260 540 275 554 b 318 657 307 593 318 624 l 318 819 l 318 894 l 318 913 l 318 914 b 288 1004 318 946 308 976 b 217 1054 268 1028 244 1044 b 122 1053 185 1064 153 1064 b 50 1003 93 1044 69 1028 b 21 915 31 976 21 947 l 21 767 l 21 679 l 21 660 b 40 585 21 633 28 608 b 104 526 56 558 78 539 b 199 515 135 511 167 508 l 199 589 b 139 589 179 579 160 579 b 92 660 113 600 92 628 l 92 679 l 92 767 l 92 915 b 151 988 92 947 117 981 b 200 983 168 992 185 990 b 247 913 226 972 247 944 l 247 894 l 247 819 l 247 657 "},"a":{"ha":710,"x_min":0,"x_max":0,"o":"m 217 1106 b 521 849 372 1132 521 1011 l 521 0 l 471 0 l 471 849 b 260 1060 471 964 375 1060 b 50 849 144 1060 50 964 l 50 449 l 125 406 l 125 849 b 260 985 125 921 186 985 b 396 849 335 985 396 921 l 396 336 b 175 463 322 379 249 419 l 175 376 b 396 250 249 333 322 293 l 396 0 l 346 0 l 346 221 l 175 319 l 175 0 l 125 0 l 125 347 l 50 390 l 50 0 l 0 0 l 0 621 l 0 849 b 217 1106 0 975 94 1083 m 175 521 l 346 424 l 346 849 b 260 935 346 897 308 935 b 175 849 214 935 175 897 "},"B":{"ha":747,"x_min":0,"x_max":0,"o":"m 574 524 b 503 122 629 392 603 231 b 110 17 407 15 249 -28 l 110 147 b -11 272 57 172 17 214 l -11 1031 b 397 1040 89 1131 281 1132 b 486 653 513 951 549 785 l 492 647 b 574 524 526 613 556 572 m 457 146 b 461 610 583 272 585 482 b 424 642 450 622 439 632 b 383 988 494 750 478 897 b 38 1007 290 1076 142 1085 l 38 283 b 110 203 54 249 78 222 l 110 967 b 369 890 201 1014 317 979 b 304 624 422 800 392 679 b 469 303 438 579 510 436 b 158 129 428 172 290 96 l 158 54 b 457 146 265 33 379 68 m 374 525 b 158 578 321 585 232 601 l 158 181 b 403 271 253 150 350 189 b 374 525 451 353 440 458 m 158 647 b 347 794 253 618 351 697 b 158 935 343 889 251 961 "},"b":{"ha":747,"x_min":0,"x_max":0,"o":"m 574 524 b 503 122 629 392 603 231 b 110 17 407 15 249 -28 l 110 147 b -11 272 57 172 17 214 l -11 1031 b 397 1040 89 1131 281 1132 b 486 653 513 951 549 785 l 492 647 b 574 524 526 613 556 572 m 457 146 b 461 610 583 272 585 482 b 424 642 450 622 439 632 b 383 988 494 750 478 897 b 38 1007 290 1076 142 1085 l 38 283 b 110 203 54 249 78 222 l 110 967 b 369 890 201 1014 317 979 b 304 624 422 800 392 679 b 469 303 438 579 510 436 b 158 129 428 172 290 96 l 158 54 b 457 146 265 33 379 68 m 374 525 b 158 578 321 585 232 601 l 158 181 b 403 271 253 150 350 189 b 374 525 451 353 440 458 m 158 647 b 347 794 253 618 351 697 b 158 935 343 889 251 961 "},"C":{"ha":565,"x_min":0,"x_max":0,"o":"m 419 1058 b 242 1011 357 1060 296 1043 b 107 890 188 979 144 939 b 1 556 35 792 1 674 b 107 221 1 438 35 319 b 242 100 144 172 188 129 b 419 51 296 68 357 51 l 419 1 b 217 56 349 1 278 22 b 67 190 157 90 106 136 b -49 556 -12 300 -49 428 b 67 919 -49 683 -12 813 b 217 1056 107 975 157 1021 b 419 1108 278 1089 349 1110 m 419 933 b 303 903 376 933 338 924 b 207 817 265 881 233 851 b 126 556 153 744 126 650 b 207 294 126 461 153 367 b 303 208 233 260 265 231 b 419 176 340 188 379 176 l 419 126 b 278 165 371 126 324 139 b 167 265 236 189 199 222 b 76 556 107 349 76 450 b 167 846 76 661 107 763 b 278 946 199 889 236 922 b 419 983 322 972 371 985 "},"c":{"ha":565,"x_min":0,"x_max":0,"o":"m 419 1058 b 242 1011 357 1060 296 1043 b 107 890 188 979 144 939 b 1 556 35 792 1 674 b 107 221 1 438 35 319 b 242 100 144 172 188 129 b 419 51 296 68 357 51 l 419 1 b 217 56 349 1 278 22 b 67 190 157 90 106 136 b -49 556 -12 300 -49 428 b 67 919 -49 683 -12 813 b 217 1056 107 975 157 1021 b 419 1108 278 1089 349 1110 m 419 933 b 303 903 376 933 338 924 b 207 817 265 881 233 851 b 126 556 153 744 126 650 b 207 294 126 461 153 367 b 303 208 233 260 265 231 b 419 176 340 188 379 176 l 419 126 b 278 165 371 126 324 139 b 167 265 236 189 199 222 b 76 556 107 349 76 450 b 167 846 76 661 107 763 b 278 946 199 889 236 922 b 419 983 322 972 371 985 "},"D":{"ha":618,"x_min":0,"x_max":0,"o":"m 353 922 b 468 533 431 815 468 661 b 353 168 468 406 431 278 b 175 19 307 108 246 51 b 125 0 160 13 143 6 l 125 135 b 0 104 90 117 49 106 l 0 154 l 0 1110 b 125 1090 43 1110 82 1103 b 353 922 214 1064 290 1004 m 175 231 b 211 272 190 243 200 257 b 293 533 265 344 293 439 b 211 818 293 628 265 744 b 175 860 200 833 190 847 m 313 199 b 418 533 383 297 418 415 b 313 892 418 651 385 793 b 125 1038 267 954 203 1008 b 50 1057 101 1047 76 1053 l 50 161 b 125 192 76 165 101 176 l 125 956 b 175 925 131 951 164 935 b 251 847 206 901 231 876 b 343 533 313 764 343 639 b 251 243 343 428 313 326 b 175 165 231 214 206 189 l 175 76 b 313 199 199 76 288 167 "},"d":{"ha":618,"x_min":0,"x_max":0,"o":"m 353 922 b 468 533 431 815 468 661 b 353 168 468 406 431 278 b 175 19 307 108 246 51 b 125 0 160 13 143 6 l 125 135 b 0 104 90 117 49 106 l 0 154 l 0 1110 b 125 1090 43 1110 82 1103 b 353 922 214 1064 290 1004 m 175 231 b 211 272 190 243 200 257 b 293 533 265 344 293 439 b 211 818 293 628 265 744 b 175 860 200 833 190 847 m 313 199 b 418 533 383 297 418 415 b 313 892 418 651 385 793 b 125 1038 267 954 203 1008 b 50 1057 101 1047 76 1053 l 50 161 b 125 192 76 165 101 176 l 125 956 b 175 925 131 951 164 935 b 251 847 206 901 231 876 b 343 533 313 764 343 639 b 251 243 343 428 313 326 b 175 165 231 214 206 189 l 175 76 b 313 199 199 76 288 167 "},"E":{"ha":621,"x_min":0,"x_max":0,"o":"m 49 1061 l 49 638 l 122 638 l 122 988 l 435 988 l 435 938 l 172 938 l 172 638 l 435 638 l 435 589 l 49 589 l 49 172 l 122 172 l 122 515 l 435 515 l 435 467 l 172 467 l 172 172 l 435 172 l 435 122 l 172 122 l 172 49 l 435 49 l 435 0 l 0 0 l 0 49 l 0 1110 l 435 1110 l 435 1061 m 122 49 l 122 122 l 49 122 l 49 49 "},"F":{"ha":590,"x_min":0,"x_max":0,"o":"m 174 636 l 439 636 l 439 588 l 174 588 l 50 588 l 50 0 l 0 0 l 0 1110 l 439 1110 l 439 1060 l 174 1060 l 174 988 l 439 988 l 439 936 l 174 936 m 125 636 l 125 936 l 50 936 l 50 636 m 125 988 l 125 1060 l 50 1060 l 50 988 m 125 514 l 174 514 l 439 514 l 439 464 l 174 464 l 174 0 l 125 0 "},"f":{"ha":590,"x_min":0,"x_max":0,"o":"m 439 636 l 439 588 l 174 588 l 50 588 l 50 0 l 0 0 l 0 1110 l 439 1110 l 439 1060 l 174 1060 l 174 988 l 439 988 l 439 936 l 174 936 l 174 636 m 125 936 l 50 936 l 50 636 l 125 636 m 125 1060 l 50 1060 l 50 988 l 125 988 m 174 514 l 439 514 l 439 464 l 174 464 l 174 0 l 125 0 l 125 514 "},"e":{"ha":621,"x_min":0,"x_max":0,"o":"m 49 1061 l 49 638 l 122 638 l 122 988 l 435 988 l 435 938 l 172 938 l 172 638 l 435 638 l 435 589 l 49 589 l 49 172 l 122 172 l 122 515 l 435 515 l 435 467 l 172 467 l 172 172 l 435 172 l 435 122 l 172 122 l 172 49 l 435 49 l 435 0 l 0 0 l 0 49 l 0 1110 l 435 1110 l 435 1061 m 122 49 l 122 122 l 49 122 l 49 49 "},"G":{"ha":663,"x_min":0,"x_max":0,"o":"m 500 468 l 500 175 l 500 125 l 500 50 l 500 0 l 450 0 l 408 0 b 325 10 379 0 351 3 b 214 51 286 19 249 33 b 110 131 175 74 140 100 b -21 343 49 192 6 265 b -54 586 -49 422 -58 503 b 4 825 -51 669 -32 749 b 163 1022 39 901 92 968 b 279 1085 197 1049 236 1069 b 413 1107 322 1100 367 1107 l 413 1057 b 296 1038 374 1057 335 1050 b 192 982 257 1022 222 1004 b 49 803 129 933 82 874 b -6 583 17 733 -1 660 b 26 360 -10 507 0 432 b 146 165 53 288 90 221 b 325 61 194 117 254 79 l 325 139 b 199 218 276 154 236 183 b 97 385 153 264 118 322 b 117 771 54 508 61 650 b 238 922 146 833 186 883 b 413 982 288 960 350 982 l 413 932 b 267 882 361 932 313 915 b 163 750 224 847 189 804 b 144 400 111 644 106 513 b 233 254 165 344 194 293 b 325 193 263 225 293 206 l 325 468 l 375 468 l 375 181 b 417 176 379 179 399 178 b 450 175 426 175 438 175 l 450 468 m 450 125 b 417 126 438 126 426 126 b 375 128 399 126 381 126 l 375 51 b 417 50 381 51 399 50 l 450 50 "},"g":{"ha":663,"x_min":0,"x_max":0,"o":"m 500 468 l 500 175 l 500 125 l 500 50 l 500 0 l 450 0 l 408 0 b 325 10 379 0 351 3 b 214 51 286 19 249 33 b 110 131 175 74 140 100 b -21 343 49 192 6 265 b -54 586 -49 422 -58 503 b 4 825 -51 669 -32 749 b 163 1022 39 901 92 968 b 279 1085 197 1049 236 1069 b 413 1107 322 1100 367 1107 l 413 1057 b 296 1038 374 1057 335 1050 b 192 982 257 1022 222 1004 b 49 803 129 933 82 874 b -6 583 17 733 -1 660 b 26 360 -10 507 0 432 b 146 165 53 288 90 221 b 325 61 194 117 254 79 l 325 139 b 199 218 276 154 236 183 b 97 385 153 264 118 322 b 117 771 54 508 61 650 b 238 922 146 833 186 883 b 413 982 288 960 350 982 l 413 932 b 267 882 361 932 313 915 b 163 750 224 847 189 804 b 144 400 111 644 106 513 b 233 254 165 344 194 293 b 325 193 263 225 293 206 l 325 468 l 375 468 l 375 181 b 417 176 379 179 399 178 b 450 175 426 175 438 175 l 450 468 m 450 125 b 417 126 438 126 426 126 b 375 128 399 126 381 126 l 375 51 b 417 50 381 51 399 50 l 450 50 "},"H":{"ha":694,"x_min":0,"x_max":0,"o":"m 450 1108 l 500 1108 l 500 0 l 450 0 l 450 421 l 50 421 l 50 346 l 375 346 l 375 0 l 325 0 l 325 296 l 175 296 l 175 0 l 125 0 l 125 296 l 50 296 l 50 0 l 0 0 l 0 1108 l 50 1108 l 50 471 l 125 471 l 125 1108 l 175 1108 l 175 471 l 325 471 l 325 1108 l 375 1108 l 375 471 l 450 471 "},"I":{"ha":560,"x_min":0,"x_max":0,"o":"m 399 1060 l 271 1060 l 271 985 l 399 985 l 399 935 l 271 935 l 271 175 l 399 175 l 399 125 l 154 125 l 154 50 l 399 50 l 399 0 l -21 0 l -21 50 l 107 50 l 107 125 l -21 125 l -21 175 l 107 175 l 107 935 l -21 935 l -21 985 l 224 985 l 224 1060 l -21 1060 l -21 1110 l 399 1110 m 224 175 l 224 935 l 154 935 l 154 175 "},"J":{"ha":672,"x_min":0,"x_max":0,"o":"m -40 468 l 10 468 l 10 257 b 117 81 10 185 57 114 b 350 86 188 38 282 40 b 447 293 422 138 447 210 l 447 1110 l 497 1110 l 497 293 b 376 44 493 189 464 100 b 235 0 333 17 286 1 b 92 38 183 -1 135 11 b -40 254 15 86 -40 165 l -40 264 m 85 468 l 135 468 l 135 271 l 135 264 b 181 188 135 232 154 203 b 281 190 210 169 251 169 b 322 268 307 208 322 236 l 322 293 l 322 1110 l 372 1110 l 372 293 l 372 268 b 308 149 371 217 349 176 b 156 144 264 117 201 117 b 85 261 113 171 85 215 "},"K":{"ha":629,"x_min":0,"x_max":0,"o":"m 233 611 l 501 0 l 447 0 l 125 733 l 125 1110 l 176 1110 l 176 915 l 261 1110 l 317 1110 l 176 792 l 176 743 l 206 674 l 400 1110 l 456 1110 m 50 717 l 364 0 l 308 0 l 176 303 l 176 0 l 125 0 l 125 418 l 50 590 l 50 0 l 0 0 l 0 1110 l 50 1110 "},"L":{"ha":608,"x_min":0,"x_max":0,"o":"m 251 122 l 169 122 l 169 47 l 485 47 l 485 0 l 169 0 l 122 0 l 0 0 l 0 1108 l 47 1108 l 47 169 l 122 169 l 122 247 l 122 1108 l 169 1108 l 169 247 l 169 169 l 251 169 l 485 169 l 485 122 m 122 47 l 122 122 l 47 122 l 47 47 "},"M":{"ha":694,"x_min":0,"x_max":0,"o":"m 0 1110 l 47 1110 l 51 1110 l 249 729 l 442 1110 l 450 1110 l 494 1110 l 249 625 m 500 963 l 500 857 l 500 0 l 450 0 l 450 761 l 379 618 l 379 0 l 326 0 l 326 526 l 249 368 l 169 518 l 169 0 l 122 0 l 122 611 l 47 753 l 47 0 l 0 0 l 0 849 l 0 954 l 249 469 "},"N":{"ha":694,"x_min":0,"x_max":0,"o":"m 338 842 l 338 1110 l 388 1110 l 388 0 l 338 0 l 338 482 l 175 783 l 175 0 l 125 0 l 125 876 l 50 1014 l 50 0 l 0 0 l 0 1110 l 53 1110 l 338 585 l 338 740 l 136 1110 l 192 1110 m 463 1110 l 513 1110 l 513 0 l 463 0 "},"O":{"ha":686,"x_min":0,"x_max":0,"o":"m 338 953 b 386 856 371 926 386 893 l 386 247 b 338 150 386 210 371 176 b 249 118 314 128 281 118 b 158 150 215 118 185 128 b 115 247 131 176 115 210 l 115 856 b 158 953 115 893 131 926 b 249 985 185 975 215 985 b 338 953 281 985 314 975 m 335 856 b 307 917 335 881 325 901 b 249 938 290 932 269 938 b 189 917 226 938 206 932 b 161 856 171 901 161 881 l 161 247 b 189 186 161 222 171 201 b 249 165 206 171 226 165 b 307 186 269 165 290 171 b 335 247 325 201 335 222 m 419 1042 b 501 856 471 996 501 926 l 501 247 b 419 61 501 176 471 107 b 249 0 375 22 314 0 b 82 61 188 0 131 18 b 0 247 31 107 0 176 l 0 856 b 82 1042 0 926 31 996 b 249 1108 125 1086 182 1108 b 419 1042 308 1108 375 1090 m 456 856 b 389 1006 456 913 432 968 b 249 1061 354 1039 303 1061 b 113 1006 197 1061 153 1043 b 46 856 69 968 46 913 l 46 247 b 113 97 46 190 69 135 b 249 47 147 64 192 47 b 389 97 297 47 350 60 b 456 247 432 135 456 190 "},"P":{"ha":640,"x_min":0,"x_max":0,"o":"m 453 831 b 488 657 476 775 488 717 b 453 483 488 597 476 538 b 356 336 431 428 399 379 b 208 238 313 293 263 260 l 175 225 l 175 0 l 125 0 l 125 340 b 50 328 100 333 75 329 l 50 0 l 0 0 l 0 1110 b 208 1076 71 1110 138 1106 b 356 978 263 1053 313 1019 b 453 831 399 935 431 886 m 407 501 b 438 657 428 550 438 603 b 407 811 438 711 428 763 b 319 942 386 861 357 904 b 125 1050 265 996 201 1032 b 50 1060 99 1056 76 1060 l 50 378 b 125 393 75 379 100 385 l 125 972 b 175 954 142 968 158 961 b 267 889 208 938 240 917 b 363 657 328 828 364 744 b 267 424 364 569 328 485 b 175 360 240 397 210 375 l 175 278 b 319 371 229 293 279 331 b 407 501 358 410 388 453 m 175 415 b 231 460 196 428 214 443 b 313 657 285 511 313 583 b 231 854 313 731 285 803 b 175 897 214 871 196 886 "},"Q":{"ha":694,"x_min":0,"x_max":0,"o":"m 563 0 l 511 0 l 165 665 l 165 515 l 319 207 l 433 0 l 382 0 l 368 26 b 321 10 347 19 336 14 b 217 1 288 0 253 -3 b 118 36 183 6 150 17 b 43 108 88 54 63 79 b 0 254 11 153 4 199 l 0 857 b 83 1046 0 924 29 994 b 461 997 188 1146 381 1128 b 504 851 488 957 503 908 l 504 247 b 485 153 504 215 497 183 m 306 132 b 232 118 283 119 258 115 b 140 174 193 122 163 142 b 119 225 131 189 124 207 b 118 254 119 229 118 233 l 118 506 l 47 644 l 47 254 b 82 135 47 211 56 172 b 222 49 114 86 167 54 b 307 56 250 44 278 47 b 339 68 317 57 326 61 m 165 414 l 165 246 l 165 242 b 179 201 165 226 169 214 b 238 165 194 181 214 168 b 285 174 254 161 269 167 m 331 858 b 317 904 331 874 326 889 b 193 919 290 942 233 951 b 165 857 175 904 165 883 l 165 767 l 331 444 m 457 851 b 454 892 457 864 458 879 b 422 971 449 919 438 946 b 115 1008 356 1075 206 1094 b 47 857 71 971 51 917 l 47 744 l 118 607 l 118 858 b 161 956 118 896 135 929 b 364 931 218 1004 315 999 b 386 851 381 907 385 881 l 386 344 l 454 213 b 457 247 456 224 457 236 "},"R":{"ha":643,"x_min":0,"x_max":0,"o":"m 328 379 b 364 422 340 394 353 407 b 404 818 446 538 460 689 b 97 1054 349 940 233 1035 l 133 969 b 363 683 258 929 351 817 b 175 360 374 550 297 415 l 175 278 b 268 328 208 289 239 307 l 406 0 l 351 0 l 244 254 b 175 225 222 243 199 232 l 175 0 l 125 0 l 125 538 l 50 715 l 50 0 l 0 0 l 0 963 l 218 446 b 272 511 240 467 258 488 l 19 1110 b 175 1088 74 1111 126 1104 b 467 794 313 1043 422 932 b 386 369 511 650 483 489 l 542 0 l 488 0 m 300 572 b 232 853 332 672 303 782 b 175 896 214 871 194 886 l 175 869 "},"r":{"ha":643,"x_min":0,"x_max":0,"o":"m 328 379 b 364 422 340 394 353 407 b 404 818 446 538 460 689 b 97 1054 349 940 233 1035 l 133 969 b 363 683 258 929 351 817 b 175 360 374 550 297 415 l 175 278 b 268 328 208 289 239 307 l 406 0 l 351 0 l 244 254 b 175 225 222 243 199 232 l 175 0 l 125 0 l 125 538 l 50 715 l 50 0 l 0 0 l 0 963 l 218 446 b 272 511 240 467 258 488 l 19 1110 b 175 1088 74 1111 126 1104 b 467 794 313 1043 422 932 b 386 369 511 650 483 489 l 542 0 l 488 0 m 300 572 b 232 853 332 672 303 782 b 175 896 214 871 194 886 l 175 869 "},"S":{"ha":672,"x_min":0,"x_max":0,"o":"m 478 928 b 457 956 471 939 464 946 l 433 981 b 379 1021 415 997 397 1011 b 247 1058 339 1046 294 1058 b 179 1050 224 1058 201 1056 b 114 1024 157 1044 135 1035 b 19 922 72 1000 40 965 b -1 783 -1 879 -8 832 b 61 660 7 735 28 694 b 113 615 78 642 94 626 b 268 525 163 582 217 557 b 417 379 333 486 396 440 b 422 281 426 350 428 318 b 382 192 417 246 403 217 b 301 138 361 167 335 149 b 201 131 268 128 235 125 b 25 239 135 142 74 185 l 63 272 b 210 181 106 224 156 190 b 343 224 264 171 314 186 b 372 289 358 242 368 264 b 369 364 378 318 376 343 b 326 424 363 383 349 403 b 243 482 303 444 275 464 b 24 626 165 528 83 561 b -50 776 -14 665 -40 717 b -25 944 -60 833 -51 893 b 89 1067 1 997 39 1038 b 167 1099 115 1082 140 1092 b 247 1108 193 1104 219 1108 b 404 1064 303 1108 358 1092 b 468 1017 428 1051 447 1035 b 519 956 493 993 510 974 m 372 861 b 247 933 343 904 296 933 b 178 915 222 933 199 928 b 132 867 157 903 142 888 b 122 804 122 847 119 826 b 153 744 126 782 138 763 b 228 693 169 726 185 719 b 333 632 261 672 296 654 b 443 553 371 610 406 586 b 496 496 461 536 479 518 b 535 421 511 472 525 447 b 550 338 544 393 549 365 b 544 261 551 311 549 285 b 478 111 538 207 515 154 b 340 19 440 68 394 38 b 181 7 289 1 235 -3 b 39 63 129 17 82 35 b -69 157 -1 89 -37 119 l -32 189 b 65 106 -3 156 31 128 b 189 57 103 82 144 64 b 325 67 233 50 281 51 b 439 143 371 82 410 107 b 496 268 471 181 489 224 b 488 404 503 311 503 360 b 410 517 472 450 442 488 b 307 589 376 546 342 568 b 203 649 272 610 238 628 l 176 664 b 117 710 154 676 135 692 b 74 796 92 736 78 764 b 88 889 68 828 72 858 b 153 958 103 921 124 943 b 247 983 182 975 213 983 b 414 888 313 983 383 944 "},"T":{"ha":628,"x_min":0,"x_max":0,"o":"m 176 1058 l 125 1058 l -61 1058 l -61 1110 l 489 1110 l 489 1058 l 300 1058 l 300 985 l 489 985 l 489 938 l 300 938 l 300 0 l 247 0 l 247 938 l 176 938 l 176 0 l 125 0 l 125 938 l -61 938 l -61 985 l 125 985 l 176 985 l 247 985 l 247 1058 "},"U":{"ha":694,"x_min":0,"x_max":0,"o":"m 151 160 b 118 246 131 182 119 211 l 118 263 l 118 538 l 118 1110 l 165 1110 l 165 538 l 165 263 l 165 247 b 186 192 165 228 172 210 b 247 165 201 174 222 165 b 308 192 272 165 293 174 b 331 247 324 207 326 225 l 331 263 l 331 538 l 331 1110 l 378 1110 l 378 538 l 378 263 l 378 246 b 343 160 378 214 364 183 b 247 118 319 133 285 118 b 151 160 210 118 178 132 m 496 1110 l 496 538 l 496 263 l 496 244 b 431 81 496 188 474 126 b 247 0 385 29 315 0 b 64 81 179 0 110 29 b 13 168 40 107 24 136 b 0 244 6 190 1 213 l 0 263 l 0 538 l 0 1110 l 47 1110 l 47 538 l 47 263 l 47 244 b 99 113 47 196 67 150 b 247 47 136 69 192 47 b 396 113 303 47 358 69 b 449 244 428 149 444 193 l 449 263 l 449 538 l 449 1110 "},"V":{"ha":699,"x_min":0,"x_max":0,"o":"m -18 1110 l 196 50 l 206 0 l 186 0 l 157 0 l -65 1110 m 528 1110 l 581 1110 l 357 0 l 329 0 l 308 0 l 278 0 l 256 114 l 232 239 l 58 1110 l 107 1110 l 256 363 l 403 1110 l 456 1110 l 281 239 l 319 50 "},"W":{"ha":650,"x_min":0,"x_max":0,"o":"m 436 1110 l 483 1110 l 483 239 l 483 138 l 483 0 l 478 0 l 425 0 l 365 117 l 318 208 l 240 363 l 165 217 l 118 124 l 54 0 l 3 0 l 0 0 l 0 146 l 0 247 l 0 1110 l 47 1110 l 47 339 l 47 238 l 47 86 l 118 225 l 165 317 l 240 463 l 318 310 l 318 461 l 240 614 l 165 468 l 118 376 l 118 476 l 118 1110 l 165 1110 l 165 569 l 240 756 l 318 561 l 318 1110 l 365 1110 l 365 469 l 365 368 l 365 217 l 436 79 l 436 231 l 436 331 "},"X":{"ha":553,"x_min":0,"x_max":0,"o":"m 400 81 l 424 0 l 369 0 l 238 468 l 200 331 l 279 49 l 292 0 l 243 0 b 233 35 239 13 238 24 l 175 244 l 108 0 l 50 0 l 151 331 l 175 417 l 213 554 l 197 610 l 175 683 l 139 554 l 114 468 l -24 0 l -72 0 l 90 554 l 83 578 l -72 1108 l -22 1108 l 114 640 l 142 743 l 151 778 l 51 1108 l 108 1108 l 175 864 l 207 975 l 243 1108 l 293 1108 b 200 778 278 1064 267 1014 l 238 640 l 254 706 b 375 1108 254 704 360 1054 l 424 1108 l 300 689 l 261 554 "},"Y":{"ha":550,"x_min":0,"x_max":0,"o":"m 425 1110 b 260 543 419 1088 410 1065 l 260 421 l 260 0 l 213 0 l 213 443 l 213 550 l 213 560 l 178 683 l 142 560 l 142 550 l 142 386 l 142 0 l 94 0 l 94 476 l 94 543 l 92 554 l -47 1029 l -69 1110 l -21 1110 l -1 1042 l 115 640 l 153 779 l 53 1110 l 110 1110 l 119 1074 l 178 865 l 239 1089 l 244 1110 l 294 1110 b 201 779 290 1099 286 1088 l 239 640 b 376 1110 367 1074 369 1090 "},"Z":{"ha":626,"x_min":0,"x_max":0,"o":"m 124 118 l 413 935 l 329 935 l 14 47 l 506 47 l 506 0 l -53 0 l 279 935 l -53 935 l -53 985 l 296 985 l 322 1061 l -53 1061 l -53 1108 l 393 1108 l 346 985 l 479 985 l 190 174 l 506 174 l 506 118 "},":":{"ha":335,"x_min":0,"x_max":0,"o":"m -7 0 l -7 167 l 40 167 l 40 0 m 113 0 l 113 167 l 160 167 l 160 0 m -7 372 l -7 539 l 40 539 l 40 372 m 113 372 l 113 539 l 160 539 l 160 372 "},"/":{"ha":494,"x_min":0,"x_max":0,"o":"m 269 1110 l 22 0 l -26 0 l 221 1110 m 392 1110 l 153 0 l 96 0 l 343 1110 "},"!":{"ha":310,"x_min":0,"x_max":0,"o":"m 24 1110 l 24 253 l -24 253 l -24 1110 m 96 1110 l 143 1110 l 143 253 l 96 253 m -24 119 l -24 167 l 143 167 l 143 119 m -24 0 l -24 47 l 143 47 l 143 0 "},"?":{"ha":504,"x_min":0,"x_max":0,"o":"m 226 896 l 226 914 b 208 940 226 925 221 933 b 167 911 188 950 167 935 l 167 761 l 118 761 l 118 911 l 118 919 b 133 960 118 932 124 949 b 176 989 144 974 158 983 b 226 985 193 993 210 992 b 264 951 242 978 254 967 b 274 914 269 942 274 932 l 274 896 l 274 825 l 158 425 l 158 250 l 111 250 l 111 432 l 226 833 m 368 1010 b 393 921 383 983 392 954 l 393 914 l 393 896 l 393 808 l 278 407 l 278 250 l 231 250 l 231 414 l 344 815 l 344 896 l 344 914 l 344 919 l 344 926 b 326 986 344 947 339 967 b 254 1050 310 1015 286 1038 b 157 1057 222 1065 189 1067 b 76 1003 125 1049 99 1031 b 47 922 58 981 49 954 l 47 915 l 47 911 l 47 761 l 0 761 l 0 911 l 0 915 l 0 924 b 8 974 0 939 1 953 b 39 1032 15 994 24 1015 b 144 1103 65 1068 101 1092 b 272 1094 188 1115 233 1111 b 368 1010 314 1076 346 1049 m 111 167 l 278 167 l 278 118 l 111 118 m 111 47 l 278 47 l 278 0 l 111 0 "},"⁄":{"ha":521,"x_min":0,"x_max":0,"o":"m 296 1110 l 49 0 l 0 0 l 247 1110 m 418 1110 l 179 0 l 122 0 l 369 1110 "},"&":{"ha":693,"x_min":0,"x_max":0,"o":"m 535 261 l 582 261 l 582 196 b 569 129 581 167 576 147 b 526 60 560 101 544 78 b 458 15 507 40 485 25 b 363 3 428 3 396 -1 b 272 36 329 7 299 18 b 235 15 261 26 247 21 b 138 1 206 3 172 -1 b 50 33 106 6 76 15 b -10 96 25 51 6 72 b -37 190 -28 125 -36 156 l -37 439 b -1 549 -37 479 -25 517 b -37 656 -28 575 -36 618 l -37 917 b -31 968 -37 932 -35 950 b 15 1047 -21 1000 -6 1026 b 88 1097 33 1068 58 1085 b 181 1110 117 1108 149 1113 b 328 1015 240 1100 296 1069 b 356 921 344 988 356 958 l 356 658 b 321 549 356 618 344 582 l 332 531 l 354 585 l 406 585 l 354 461 l 308 350 l 238 182 b 178 122 226 154 210 132 b 128 126 161 118 144 119 b 94 154 114 133 103 142 b 82 197 88 165 82 176 l 82 439 b 93 476 82 451 86 464 b 31 513 69 486 49 497 b 10 439 18 490 10 465 l 10 197 b 31 121 10 169 17 144 b 94 64 46 96 68 76 b 189 51 124 49 156 44 b 300 146 239 61 279 97 l 311 174 l 319 194 l 356 279 l 483 585 l 535 585 l 364 176 b 379 168 368 172 372 169 b 396 169 383 167 389 168 b 415 192 407 172 414 179 l 415 193 l 415 196 l 415 261 l 463 261 l 463 196 b 344 132 463 138 396 103 b 308 69 332 99 319 81 b 354 51 321 63 336 56 b 443 60 385 46 414 49 b 507 110 469 72 490 89 b 535 196 525 136 535 164 m 160 168 b 189 194 172 168 188 179 l 189 438 b 160 465 189 453 176 464 b 129 439 144 465 129 454 l 129 194 l 129 193 b 160 168 129 178 144 168 m 10 661 b 76 538 10 613 33 567 b 122 518 92 528 107 522 b 172 511 139 514 156 515 b 214 490 189 508 203 501 b 236 436 225 479 236 465 l 236 303 l 306 467 b 288 513 300 482 297 497 b 156 585 261 556 210 585 b 96 617 133 585 111 596 b 82 661 88 626 83 642 l 82 917 b 94 957 82 931 86 944 b 175 990 111 983 143 996 b 236 928 207 983 231 960 l 236 658 b 225 621 236 646 232 633 b 288 585 249 611 269 600 b 308 658 300 607 308 632 l 308 914 l 308 915 b 300 964 308 932 306 949 b 278 1004 293 979 286 993 b 207 1056 260 1028 236 1046 b 111 1054 174 1065 142 1065 b 40 1004 83 1046 60 1029 b 10 917 19 978 10 949 m 189 918 b 186 928 189 921 188 924 b 153 943 179 942 168 947 b 129 917 140 939 129 929 l 129 660 l 129 657 b 132 647 129 654 131 651 b 165 633 139 635 150 631 b 189 658 178 638 189 646 "},"h":{"ha":694,"x_min":0,"x_max":0,"o":"m 500 1108 l 500 0 l 450 0 l 450 421 l 50 421 l 50 346 l 375 346 l 375 0 l 325 0 l 325 296 l 175 296 l 175 0 l 125 0 l 125 296 l 50 296 l 50 0 l 0 0 l 0 1108 l 50 1108 l 50 471 l 125 471 l 125 1108 l 175 1108 l 175 471 l 325 471 l 325 1108 l 375 1108 l 375 471 l 450 471 l 450 1108 "},"A":{"ha":710,"x_min":0,"x_max":0,"o":"m 217 1106 b 521 849 372 1132 521 1011 l 521 0 l 471 0 l 471 849 b 260 1060 471 964 375 1060 b 50 849 144 1060 50 964 l 50 449 l 125 406 l 125 849 b 260 985 125 921 186 985 b 396 849 335 985 396 921 l 396 336 b 175 463 322 379 249 419 l 175 376 b 396 250 249 333 322 293 l 396 0 l 346 0 l 346 221 l 175 319 l 175 0 l 125 0 l 125 347 l 50 390 l 50 0 l 0 0 l 0 621 l 0 849 b 217 1106 0 975 94 1083 m 175 521 l 346 424 l 346 849 b 260 935 346 897 308 935 b 175 849 214 935 175 897 "},"i":{"ha":560,"x_min":0,"x_max":0,"o":"m 271 1060 l 271 985 l 399 985 l 399 935 l 271 935 l 271 175 l 399 175 l 399 125 l 154 125 l 154 50 l 399 50 l 399 0 l -21 0 l -21 50 l 107 50 l 107 125 l -21 125 l -21 175 l 107 175 l 107 935 l -21 935 l -21 985 l 224 985 l 224 1060 l -21 1060 l -21 1110 l 399 1110 l 399 1060 m 224 935 l 154 935 l 154 175 l 224 175 "},"j":{"ha":672,"x_min":0,"x_max":0,"o":"m -40 468 l 10 468 l 10 257 b 117 81 10 185 57 114 b 350 86 188 38 282 40 b 447 293 422 138 447 210 l 447 1110 l 497 1110 l 497 293 b 376 44 493 189 464 100 b 235 0 333 17 286 1 b 92 38 183 -1 135 11 b -40 254 15 86 -40 165 l -40 264 m 85 468 l 135 468 l 135 271 l 135 264 b 181 188 135 232 154 203 b 281 190 210 169 251 169 b 322 268 307 208 322 236 l 322 293 l 322 1110 l 372 1110 l 372 293 l 372 268 b 308 149 371 217 349 176 b 156 144 264 117 201 117 b 85 261 113 171 85 215 "},"k":{"ha":629,"x_min":0,"x_max":0,"o":"m 501 0 l 447 0 l 125 733 l 125 1110 l 176 1110 l 176 915 l 261 1110 l 317 1110 l 176 792 l 176 743 l 206 674 l 400 1110 l 456 1110 l 233 611 m 364 0 l 308 0 l 176 303 l 176 0 l 125 0 l 125 418 l 50 590 l 50 0 l 0 0 l 0 1110 l 50 1110 l 50 717 "},"l":{"ha":608,"x_min":0,"x_max":0,"o":"m 169 122 l 169 47 l 485 47 l 485 0 l 169 0 l 122 0 l 0 0 l 0 1108 l 47 1108 l 47 169 l 122 169 l 122 247 l 122 1108 l 169 1108 l 169 247 l 169 169 l 251 169 l 485 169 l 485 122 l 251 122 m 122 122 l 47 122 l 47 47 l 122 47 "},"m":{"ha":694,"x_min":0,"x_max":0,"o":"m 0 1110 l 47 1110 l 51 1110 l 249 729 l 442 1110 l 450 1110 l 494 1110 l 249 625 m 500 963 l 500 857 l 500 0 l 450 0 l 450 761 l 379 618 l 379 0 l 326 0 l 326 526 l 249 368 l 169 518 l 169 0 l 122 0 l 122 611 l 47 753 l 47 0 l 0 0 l 0 849 l 0 954 l 249 469 "},"n":{"ha":694,"x_min":0,"x_max":0,"o":"m 338 1110 l 388 1110 l 388 0 l 338 0 l 338 482 l 175 783 l 175 0 l 125 0 l 125 876 l 50 1014 l 50 0 l 0 0 l 0 1110 l 53 1110 l 338 585 l 338 740 l 136 1110 l 192 1110 l 338 842 m 513 1110 l 513 0 l 463 0 l 463 1110 "},"o":{"ha":686,"x_min":0,"x_max":0,"o":"m 338 953 b 386 856 371 926 386 893 l 386 247 b 338 150 386 210 371 176 b 249 118 314 128 281 118 b 158 150 215 118 185 128 b 115 247 131 176 115 210 l 115 856 b 158 953 115 893 131 926 b 249 985 185 975 215 985 b 338 953 281 985 314 975 m 335 856 b 307 917 335 881 325 901 b 249 938 290 932 269 938 b 189 917 226 938 206 932 b 161 856 171 901 161 881 l 161 247 b 189 186 161 222 171 201 b 249 165 206 171 226 165 b 307 186 269 165 290 171 b 335 247 325 201 335 222 m 419 1042 b 501 856 471 996 501 926 l 501 247 b 419 61 501 176 471 107 b 249 0 375 22 314 0 b 82 61 188 0 131 18 b 0 247 31 107 0 176 l 0 856 b 82 1042 0 926 31 996 b 249 1108 125 1086 182 1108 b 419 1042 308 1108 375 1090 m 456 856 b 389 1006 456 913 432 968 b 249 1061 354 1039 303 1061 b 113 1006 197 1061 153 1043 b 46 856 69 968 46 913 l 46 247 b 113 97 46 190 69 135 b 249 47 147 64 192 47 b 389 97 297 47 350 60 b 456 247 432 135 456 190 "},"p":{"ha":640,"x_min":0,"x_max":0,"o":"m 453 831 b 488 657 476 775 488 717 b 453 483 488 597 476 538 b 356 336 431 428 399 379 b 208 238 313 293 263 260 l 175 225 l 175 0 l 125 0 l 125 340 b 50 328 100 333 75 329 l 50 0 l 0 0 l 0 1110 b 208 1076 71 1110 138 1106 b 356 978 263 1053 313 1019 b 453 831 399 935 431 886 m 407 501 b 438 657 428 550 438 603 b 407 811 438 711 428 763 b 319 942 386 861 357 904 b 125 1050 265 996 201 1032 b 50 1060 99 1056 76 1060 l 50 378 b 125 393 75 379 100 385 l 125 972 b 175 954 142 968 158 961 b 267 889 208 938 240 917 b 363 657 328 828 364 744 b 267 424 364 569 328 485 b 175 360 240 397 210 375 l 175 278 b 319 371 229 293 279 331 b 407 501 358 410 388 453 m 175 415 b 231 460 196 428 214 443 b 313 657 285 511 313 583 b 231 854 313 731 285 803 b 175 897 214 871 196 886 "},"q":{"ha":694,"x_min":0,"x_max":0,"o":"m 563 0 l 511 0 l 165 665 l 165 515 l 319 207 l 433 0 l 382 0 l 368 26 b 321 10 347 19 336 14 b 217 1 288 0 253 -3 b 118 36 183 6 150 17 b 43 108 88 54 63 79 b 0 254 11 153 4 199 l 0 857 b 83 1046 0 924 29 994 b 461 997 188 1146 381 1128 b 504 851 488 957 503 908 l 504 247 b 485 153 504 215 497 183 m 306 132 b 232 118 283 119 258 115 b 140 174 193 122 163 142 b 119 225 131 189 124 207 b 118 254 119 229 118 233 l 118 506 l 47 644 l 47 254 b 82 135 47 211 56 172 b 222 49 114 86 167 54 b 307 56 250 44 278 47 b 339 68 317 57 326 61 m 165 414 l 165 246 l 165 242 b 179 201 165 226 169 214 b 238 165 194 181 214 168 b 285 174 254 161 269 167 m 331 858 b 317 904 331 874 326 889 b 193 919 290 942 233 951 b 165 857 175 904 165 883 l 165 767 l 331 444 m 457 851 b 454 892 457 864 458 879 b 422 971 449 919 438 946 b 115 1008 356 1075 206 1094 b 47 857 71 971 51 917 l 47 744 l 118 607 l 118 858 b 161 956 118 896 135 929 b 364 931 218 1004 315 999 b 386 851 381 907 385 881 l 386 344 l 454 213 b 457 247 456 224 457 236 "},"s":{"ha":672,"x_min":0,"x_max":0,"o":"m 478 928 b 457 956 471 939 464 946 l 433 981 b 379 1021 415 997 397 1011 b 247 1058 339 1046 294 1058 b 179 1050 224 1058 201 1056 b 114 1024 157 1044 135 1035 b 19 922 72 1000 40 965 b -1 783 -1 879 -8 832 b 61 660 7 735 28 694 b 113 615 78 642 94 626 b 268 525 163 582 217 557 b 417 379 333 486 396 440 b 422 281 426 350 428 318 b 382 192 417 246 403 217 b 301 138 361 167 335 149 b 201 131 268 128 235 125 b 25 239 135 142 74 185 l 63 272 b 210 181 106 224 156 190 b 343 224 264 171 314 186 b 372 289 358 242 368 264 b 369 364 378 318 376 343 b 326 424 363 383 349 403 b 243 482 303 444 275 464 b 24 626 165 528 83 561 b -50 776 -14 665 -40 717 b -25 944 -60 833 -51 893 b 89 1067 1 997 39 1038 b 167 1099 115 1082 140 1092 b 247 1108 193 1104 219 1108 b 404 1064 303 1108 358 1092 b 468 1017 428 1051 447 1035 b 519 956 493 993 510 974 m 372 861 b 247 933 343 904 296 933 b 178 915 222 933 199 928 b 132 867 157 903 142 888 b 122 804 122 847 119 826 b 153 744 126 782 138 763 b 228 693 169 726 185 719 b 333 632 261 672 296 654 b 443 553 371 610 406 586 b 496 496 461 536 479 518 b 535 421 511 472 525 447 b 550 338 544 393 549 365 b 544 261 551 311 549 285 b 478 111 538 207 515 154 b 340 19 440 68 394 38 b 181 7 289 1 235 -3 b 39 63 129 17 82 35 b -69 157 -1 89 -37 119 l -32 189 b 65 106 -3 156 31 128 b 189 57 103 82 144 64 b 325 67 233 50 281 51 b 439 143 371 82 410 107 b 496 268 471 181 489 224 b 488 404 503 311 503 360 b 410 517 472 450 442 488 b 307 589 376 546 342 568 b 203 649 272 610 238 628 l 176 664 b 117 710 154 676 135 692 b 74 796 92 736 78 764 b 88 889 68 828 72 858 b 153 958 103 921 124 943 b 247 983 182 975 213 983 b 414 888 313 983 383 944 "},"t":{"ha":628,"x_min":0,"x_max":0,"o":"m 176 1058 l 125 1058 l -61 1058 l -61 1110 l 489 1110 l 489 1058 l 300 1058 l 300 985 l 489 985 l 489 938 l 300 938 l 300 0 l 247 0 l 247 938 l 176 938 l 176 0 l 125 0 l 125 938 l -61 938 l -61 985 l 125 985 l 176 985 l 247 985 l 247 1058 "},"u":{"ha":694,"x_min":0,"x_max":0,"o":"m 151 160 b 118 246 131 182 119 211 l 118 263 l 118 538 l 118 1110 l 165 1110 l 165 538 l 165 263 l 165 247 b 186 192 165 228 172 210 b 247 165 201 174 222 165 b 308 192 272 165 293 174 b 331 247 324 207 326 225 l 331 263 l 331 538 l 331 1110 l 378 1110 l 378 538 l 378 263 l 378 246 b 343 160 378 214 364 183 b 247 118 319 133 285 118 b 151 160 210 118 178 132 m 496 1110 l 496 538 l 496 263 l 496 244 b 431 81 496 188 474 126 b 247 0 385 29 315 0 b 64 81 179 0 110 29 b 13 168 40 107 24 136 b 0 244 6 190 1 213 l 0 263 l 0 538 l 0 1110 l 47 1110 l 47 538 l 47 263 l 47 244 b 99 113 47 196 67 150 b 247 47 136 69 192 47 b 396 113 303 47 358 69 b 449 244 428 149 444 193 l 449 263 l 449 538 l 449 1110 "},"v":{"ha":699,"x_min":0,"x_max":0,"o":"m 196 50 l 206 0 l 186 0 l 157 0 l -65 1110 l -18 1110 m 581 1110 l 357 0 l 329 0 l 308 0 l 278 0 l 256 114 l 232 239 l 58 1110 l 107 1110 l 256 363 l 403 1110 l 456 1110 l 281 239 l 319 50 l 528 1110 "},"w":{"ha":650,"x_min":0,"x_max":0,"o":"m 483 1110 l 483 239 l 483 138 l 483 0 l 478 0 l 425 0 l 365 117 l 318 208 l 240 363 l 165 217 l 118 124 l 54 0 l 3 0 l 0 0 l 0 146 l 0 247 l 0 1110 l 47 1110 l 47 339 l 47 238 l 47 86 l 118 225 l 165 317 l 240 463 l 318 310 l 318 461 l 240 614 l 165 468 l 118 376 l 118 476 l 118 1110 l 165 1110 l 165 569 l 240 756 l 318 561 l 318 1110 l 365 1110 l 365 469 l 365 368 l 365 217 l 436 79 l 436 231 l 436 331 l 436 1110 "},"x":{"ha":553,"x_min":0,"x_max":0,"o":"m 400 81 l 424 0 l 369 0 l 238 468 l 200 331 l 279 49 l 292 0 l 243 0 b 233 35 239 13 238 24 l 175 244 l 108 0 l 50 0 l 151 331 l 175 417 l 213 554 l 197 610 l 175 683 l 139 554 l 114 468 l -24 0 l -72 0 l 90 554 l 83 578 l -72 1108 l -22 1108 l 114 640 l 142 743 l 151 778 l 51 1108 l 108 1108 l 175 864 l 207 975 l 243 1108 l 293 1108 b 200 778 278 1064 267 1014 l 238 640 l 254 706 b 375 1108 254 704 360 1054 l 424 1108 l 300 689 l 261 554 "},"y":{"ha":550,"x_min":0,"x_max":0,"o":"m 425 1110 b 260 543 419 1088 410 1065 l 260 421 l 260 0 l 213 0 l 213 443 l 213 550 l 213 560 l 178 683 l 142 560 l 142 550 l 142 386 l 142 0 l 94 0 l 94 476 l 94 543 l 92 554 l -47 1029 l -69 1110 l -21 1110 l -1 1042 l 115 640 l 153 779 l 53 1110 l 110 1110 l 119 1074 l 178 865 l 239 1089 l 244 1110 l 294 1110 b 201 779 290 1099 286 1088 l 239 640 b 376 1110 367 1074 369 1090 "},"z":{"ha":626,"x_min":0,"x_max":0,"o":"m 124 118 l 140 174 l 413 935 l 329 935 l 56 174 l 14 47 l 97 47 l 147 47 l 506 47 l 506 0 l 131 0 l 72 0 l -3 0 l -53 0 l 279 935 l -53 935 l -53 985 l 296 985 l 322 1061 l -53 1061 l -53 1108 l 338 1108 l 393 1108 l 346 985 l 429 985 l 479 985 l 190 174 l 506 174 l 506 118 l 174 118 "},".":{"ha":254,"x_min":0,"x_max":0,"o":"m -47 0 l -47 167 l 0 167 l 0 0 m 72 0 l 72 167 l 119 167 l 119 0 "},"'":{"ha":222,"x_min":0,"x_max":0,"o":"m 0 944 l -47 944 l -47 1111 l 0 1111 m 119 890 l 72 944 l 72 1111 l 119 1111 "},",":{"ha":286,"x_min":0,"x_max":0,"o":"m -36 0 l -36 167 l 11 167 l 11 0 m 72 -104 l 72 167 l 119 167 l 119 -144 "},"\"":{"ha":208,"x_min":0,"x_max":0,"o":"m -47 944 l -47 1111 l 0 1111 l 0 944 m 72 944 l 72 1111 l 119 1111 l 119 944 "},"$":{"ha":658,"x_min":0,"x_max":0,"o":"m 546 331 b 474 104 550 253 528 169 b 335 13 436 61 389 29 b 324 8 329 11 325 10 l 324 -69 l 274 -69 l 274 -3 b 199 -3 247 -6 222 -6 l 199 -69 l 149 -69 l 149 6 b 33 56 106 17 68 33 b -75 150 -7 82 -43 113 l -37 182 b 60 99 -8 149 25 121 b 149 58 89 79 119 65 l 149 138 b 19 232 100 158 57 192 l 57 265 b 149 192 85 233 115 208 l 149 525 b 18 619 100 551 56 581 b -56 771 -19 660 -46 711 b -31 939 -65 828 -57 888 b 83 1061 -4 992 33 1032 b 149 1089 106 1074 128 1082 l 149 1154 l 199 1154 l 199 1100 b 242 1103 214 1101 226 1103 b 274 1101 253 1103 263 1103 l 274 1154 l 324 1154 l 324 1092 b 464 1011 375 1075 424 1049 b 515 950 489 988 506 968 l 474 922 b 453 950 467 933 460 940 l 429 975 b 324 1039 400 1001 363 1026 l 324 960 b 410 882 361 942 392 915 l 367 856 b 324 900 356 874 342 888 l 324 629 b 439 546 324 629 401 579 b 531 414 479 508 510 468 b 546 331 540 386 544 358 m 274 924 b 242 928 263 926 251 928 b 199 921 226 928 213 925 l 199 701 l 222 688 l 274 658 m 149 890 b 126 861 139 883 132 874 b 117 799 117 842 114 821 b 147 739 121 776 132 757 b 149 738 147 739 147 739 m 199 175 b 204 174 200 175 203 174 b 274 176 228 169 250 171 l 274 453 b 199 499 251 468 226 482 m 324 201 b 338 217 328 204 332 210 b 364 357 365 250 382 311 b 324 415 358 375 344 394 m 435 136 b 483 397 490 203 515 307 b 406 510 468 443 438 481 b 197 642 343 564 269 599 b 149 672 163 663 156 668 b 111 704 136 681 124 692 b 68 790 86 731 72 758 b 82 883 63 822 67 853 b 199 972 104 932 144 960 b 274 975 219 979 244 979 l 274 1051 b 242 1053 263 1053 253 1053 b 14 917 149 1053 57 1004 b -7 778 -7 874 -14 826 b 56 654 1 729 22 689 b 107 608 71 636 89 621 l 149 583 b 274 513 188 557 231 542 b 324 479 290 503 307 492 b 413 372 364 447 397 415 b 418 274 422 343 424 311 b 376 185 413 239 399 210 b 324 142 361 165 344 151 b 199 124 286 124 244 117 l 199 49 b 324 61 236 43 286 46 b 435 136 367 78 406 99 "}," ":{"ha":289,"x_min":0,"x_max":0,"o":""},";":{"ha":338,"x_min":0,"x_max":0,"o":"m -10 0 l -10 167 l 38 167 l 38 0 m -10 372 l -10 539 l 38 539 l 38 372 m 110 372 l 110 539 l 157 539 l 157 372 m 110 -104 l 110 167 l 157 167 l 157 -144 "},"Ø":{"ha":686,"x_min":0,"x_max":0,"o":"m 61 -47 l 90 53 l 82 61 b 0 247 31 107 0 176 l 0 856 b 82 1042 0 926 31 996 b 249 1108 125 1086 182 1108 b 339 1093 278 1108 308 1103 b 388 1068 357 1088 372 1079 l 414 1158 l 458 1158 l 424 1038 b 479 957 447 1015 467 989 b 501 856 494 925 501 890 l 501 247 b 419 61 501 176 471 107 b 249 0 375 22 314 0 b 160 14 218 0 189 4 b 126 29 149 18 138 24 l 104 -47 m 456 856 b 389 1006 456 913 432 968 b 249 1061 354 1039 303 1061 b 113 1006 197 1061 153 1043 b 46 856 69 968 46 913 l 46 247 b 63 164 46 218 51 190 b 104 103 72 140 86 121 l 129 188 b 126 194 128 189 128 192 b 115 247 119 211 115 229 l 115 856 b 158 953 115 893 131 926 b 249 985 185 975 215 985 b 338 953 281 985 314 975 b 386 856 371 926 386 893 l 386 247 b 338 150 386 210 371 176 b 249 118 314 128 281 118 b 200 125 232 118 215 121 b 160 147 186 129 172 138 l 139 75 b 249 47 169 57 206 47 b 389 97 297 47 350 60 b 456 247 432 135 456 190 m 307 917 b 249 938 290 932 269 938 b 189 917 226 938 206 932 b 161 856 171 901 161 881 l 161 294 l 332 878 b 307 917 328 893 319 906 m 189 186 b 249 165 206 171 226 165 b 307 186 269 165 290 171 b 335 247 325 201 335 222 l 335 744 l 175 200 b 189 186 179 194 183 190 "},"ø":{"ha":686,"x_min":0,"x_max":0,"o":"m 61 -47 l 90 53 l 82 61 b 0 247 31 107 0 176 l 0 856 b 82 1042 0 926 31 996 b 249 1108 125 1086 182 1108 b 339 1093 278 1108 308 1103 b 388 1068 357 1088 372 1079 l 414 1158 l 458 1158 l 424 1038 b 479 957 447 1015 467 989 b 501 856 494 925 501 890 l 501 247 b 419 61 501 176 471 107 b 249 0 375 22 314 0 b 160 14 218 0 189 4 b 126 29 149 18 138 24 l 104 -47 m 456 856 b 389 1006 456 913 432 968 b 249 1061 354 1039 303 1061 b 113 1006 197 1061 153 1043 b 46 856 69 968 46 913 l 46 247 b 63 164 46 218 51 190 b 104 103 72 140 86 121 l 129 188 b 126 194 128 189 128 192 b 115 247 119 211 115 229 l 115 856 b 158 953 115 893 131 926 b 249 985 185 975 215 985 b 338 953 281 985 314 975 b 386 856 371 926 386 893 l 386 247 b 338 150 386 210 371 176 b 249 118 314 128 281 118 b 200 125 232 118 215 121 b 160 147 186 129 172 138 l 139 75 b 249 47 169 57 206 47 b 389 97 297 47 350 60 b 456 247 432 135 456 190 m 307 917 b 249 938 290 932 269 938 b 189 917 226 938 206 932 b 161 856 171 901 161 881 l 161 294 l 332 878 b 307 917 328 893 319 906 m 189 186 b 249 165 206 171 226 165 b 307 186 269 165 290 171 b 335 247 325 201 335 222 l 335 744 l 175 200 b 189 186 179 194 183 190 "},"Ð":{"ha":618,"x_min":0,"x_max":0,"o":"m 353 922 b 468 533 431 815 468 661 b 353 168 468 406 431 278 b 175 19 307 108 246 51 b 125 0 160 13 143 6 l 125 135 b 0 104 90 117 49 106 l 0 507 l -62 507 l -62 546 l 0 546 l 0 1110 b 125 1090 43 1110 82 1103 b 353 922 214 1064 290 1004 m 313 199 b 418 533 383 297 418 415 b 313 892 418 651 385 793 b 125 1038 267 954 203 1008 b 50 1057 101 1047 76 1053 l 50 546 l 125 546 l 125 956 b 175 925 131 951 164 935 b 251 847 206 901 231 876 b 343 533 313 764 343 639 b 251 243 343 428 313 326 b 175 165 231 214 206 189 l 175 76 b 313 199 199 76 288 167 m 243 546 l 243 507 l 175 507 l 175 231 b 211 272 190 243 200 257 b 293 533 265 344 293 439 b 211 818 293 628 265 744 b 175 860 200 833 190 847 l 175 546 m 125 507 l 50 507 l 50 161 b 125 192 76 165 101 176 "},"ð":{"ha":618,"x_min":0,"x_max":0,"o":"m 353 922 b 468 533 431 815 468 661 b 353 168 468 406 431 278 b 175 19 307 108 246 51 b 125 0 160 13 143 6 l 125 135 b 0 104 90 117 49 106 l 0 507 l -62 507 l -62 546 l 0 546 l 0 1110 b 125 1090 43 1110 82 1103 b 353 922 214 1064 290 1004 m 313 199 b 418 533 383 297 418 415 b 313 892 418 651 385 793 b 125 1038 267 954 203 1008 b 50 1057 101 1047 76 1053 l 50 546 l 125 546 l 125 956 b 175 925 131 951 164 935 b 251 847 206 901 231 876 b 343 533 313 764 343 639 b 251 243 343 428 313 326 b 175 165 231 214 206 189 l 175 76 b 313 199 199 76 288 167 m 243 546 l 243 507 l 175 507 l 175 231 b 211 272 190 243 200 257 b 293 533 265 344 293 439 b 211 818 293 628 265 744 b 175 860 200 833 190 847 l 175 546 m 125 507 l 50 507 l 50 161 b 125 192 76 165 101 176 "},"þ":{"ha":640,"x_min":0,"x_max":0,"o":"m 401 304 b 175 183 343 242 268 201 l 175 0 l 125 0 l 125 293 b 50 281 100 286 75 282 l 50 0 l 0 0 l 0 1108 l 50 1108 l 50 803 b 125 790 75 801 100 797 l 125 1108 l 175 1108 l 175 900 b 401 778 268 882 343 840 b 489 542 460 715 489 638 b 401 304 489 446 460 367 m 300 389 b 175 313 264 353 222 328 l 175 231 b 440 542 342 263 440 381 b 175 853 440 703 342 821 l 175 771 b 300 693 222 756 264 731 b 356 542 338 657 356 607 b 300 389 356 476 338 426 m 175 360 b 307 542 260 394 307 442 b 175 724 307 642 260 689 m 50 331 b 125 346 75 332 100 338 l 125 738 b 50 753 100 746 75 751 "},"Þ":{"ha":640,"x_min":0,"x_max":0,"o":"m 401 304 b 175 183 343 242 268 201 l 175 0 l 125 0 l 125 293 b 50 281 100 286 75 282 l 50 0 l 0 0 l 0 1108 l 50 1108 l 50 803 b 125 790 75 801 100 797 l 125 1108 l 175 1108 l 175 900 b 401 778 268 882 343 840 b 489 542 460 715 489 638 b 401 304 489 446 460 367 m 300 389 b 175 313 264 353 222 328 l 175 231 b 440 542 342 263 440 381 b 175 853 440 703 342 821 l 175 771 b 300 693 222 756 264 731 b 356 542 338 657 356 607 b 300 389 356 476 338 426 m 175 360 b 307 542 260 394 307 442 b 175 724 307 642 260 689 m 50 331 b 125 346 75 332 100 338 l 125 738 b 50 753 100 746 75 751 "},"¿":{"ha":474,"x_min":0,"x_max":0,"o":"m 117 -208 l 117 -226 b 135 -253 117 -237 122 -246 b 176 -224 156 -262 176 -247 l 176 -74 l 225 -74 l 225 -224 l 225 -232 b 210 -272 225 -244 219 -261 b 167 -301 199 -286 185 -296 b 117 -297 150 -306 133 -304 b 79 -264 101 -290 89 -279 b 69 -226 74 -254 69 -244 l 69 -208 l 69 -137 l 185 263 l 185 438 l 232 438 l 232 256 l 117 -146 m -25 -322 b -50 -233 -40 -296 -49 -267 l -50 -226 l -50 -208 l -50 -121 l 65 281 l 65 438 l 113 438 l 113 274 l -1 -128 l -1 -208 l -1 -226 l -1 -232 l -1 -239 b 17 -299 -1 -260 4 -279 b 89 -362 33 -328 57 -350 b 186 -369 121 -378 154 -379 b 267 -315 218 -361 244 -343 b 296 -235 285 -293 294 -267 l 296 -228 l 296 -224 l 296 -74 l 343 -74 l 343 -224 l 343 -228 l 343 -236 b 335 -286 343 -251 342 -265 b 304 -344 328 -307 319 -328 b 199 -415 278 -381 242 -404 b 71 -407 156 -428 110 -424 b -25 -322 29 -389 -3 -361 m 232 521 l 65 521 l 65 569 l 232 569 m 232 640 l 65 640 l 65 688 l 232 688 "},"œ":{"ha":843,"x_min":0,"x_max":0,"o":"m 304 143 b 269 125 293 136 283 131 b 224 118 254 121 239 118 b 174 125 206 118 190 121 b 133 151 161 132 147 139 b 103 196 121 164 108 178 b 90 247 96 213 90 231 l 90 858 b 103 910 90 876 96 894 b 133 954 108 926 121 942 b 174 979 147 965 161 974 b 224 986 190 985 206 986 b 304 961 251 986 282 979 l 304 1046 b 300 1047 303 1047 301 1047 b 224 1064 275 1057 250 1064 b 88 1007 171 1064 128 1044 b 39 940 67 989 50 967 b 21 858 26 913 21 886 l 21 247 b 39 165 21 219 26 192 b 88 97 50 139 67 117 b 304 71 138 50 247 26 m 304 911 b 224 940 283 931 250 940 b 190 933 211 940 201 939 b 164 919 181 931 171 926 b 138 858 146 903 138 882 l 138 247 b 164 186 138 222 146 203 b 190 171 171 179 181 175 b 224 165 201 167 211 165 b 304 197 260 165 282 169 m 353 1064 l 353 638 l 426 638 l 426 989 l 685 989 l 685 940 l 478 940 l 478 638 l 685 638 l 685 590 l 353 590 b 353 50 353 411 353 231 l 426 50 b 426 517 426 204 426 363 l 685 517 l 685 468 l 478 468 l 478 174 l 685 174 l 685 122 l 478 122 l 478 50 l 685 50 l 685 0 l 304 0 l 304 21 b 136 15 254 -8 188 -3 b 58 61 107 25 82 40 b -3 146 31 86 13 113 b -24 247 -18 179 -24 213 l -24 858 b -3 960 -24 892 -18 926 b 58 1044 13 992 31 1021 b 132 1093 79 1065 104 1083 b 224 1110 161 1106 189 1110 b 304 1090 250 1110 279 1103 l 304 1111 l 685 1111 l 685 1064 "},"¸":{"ha":311,"x_min":0,"x_max":0,"o":"m 82 -82 b -3 -318 182 -139 167 -325 l -3 -274 b 33 -107 135 -286 128 -124 l 71 21 l 115 21 "},"¨":{"ha":531,"x_min":0,"x_max":0,"o":"m 283 1106 b 326 1064 307 1106 326 1088 b 283 1022 326 1040 307 1022 b 242 1064 261 1022 242 1040 b 283 1106 242 1088 261 1106 m 53 1106 b 94 1064 75 1106 94 1088 b 53 1022 94 1040 75 1022 b 11 1064 29 1022 11 1040 b 53 1106 11 1088 29 1106 "},"Æ":{"ha":867,"x_min":0,"x_max":0,"o":"m 235 1111 b 700 1111 390 1111 544 1111 l 700 1064 l 364 1064 l 364 638 l 439 638 l 439 989 l 700 989 l 700 940 l 488 940 l 488 638 l 700 638 l 700 590 l 364 590 b 364 50 364 411 364 231 l 439 50 b 439 517 439 204 439 363 l 700 517 l 700 468 l 488 468 l 488 174 l 700 174 l 700 122 l 488 122 l 488 50 l 700 50 l 700 0 l 317 0 l 317 329 b 149 221 275 304 174 236 l 149 0 l 99 0 l 99 251 b 317 386 142 276 264 354 l 317 472 b 99 339 264 442 142 363 l 99 850 b 239 985 99 933 158 985 l 317 985 l 317 1063 l 235 1063 b 24 850 121 1063 24 965 l 24 0 l -26 0 l -26 850 b 235 1111 -26 993 92 1111 m 317 936 l 238 936 b 149 850 186 936 149 904 l 149 426 l 317 531 "},"æ":{"ha":867,"x_min":0,"x_max":0,"o":"m 235 1111 b 700 1111 390 1111 544 1111 l 700 1064 l 364 1064 l 364 638 l 439 638 l 439 989 l 700 989 l 700 940 l 488 940 l 488 638 l 700 638 l 700 590 l 364 590 b 364 50 364 411 364 231 l 439 50 b 439 517 439 204 439 363 l 700 517 l 700 468 l 488 468 l 488 174 l 700 174 l 700 122 l 488 122 l 488 50 l 700 50 l 700 0 l 317 0 l 317 329 b 149 221 275 304 174 236 l 149 0 l 99 0 l 99 251 b 317 386 142 276 264 354 l 317 472 b 99 339 264 442 142 363 l 99 850 b 239 985 99 933 158 985 l 317 985 l 317 1063 l 235 1063 b 24 850 121 1063 24 965 l 24 0 l -26 0 l -26 850 b 235 1111 -26 993 92 1111 m 317 936 l 238 936 b 149 850 186 936 149 904 l 149 426 l 317 531 "},"˜":{"ha":464,"x_min":0,"x_max":0,"o":"m 3 1103 b 124 1076 31 1043 76 1044 b 301 1035 182 1117 260 1117 l 267 1014 b 143 1038 236 1069 188 1068 b -33 1081 85 999 6 1000 "},"´":{"ha":300,"x_min":0,"x_max":0,"o":"m -3 993 l 104 1108 l 172 1108 l 172 1101 l 56 990 l -3 990 "},"`":{"ha":351,"x_min":0,"x_max":0,"o":"m 174 993 l 115 993 l -1 1104 l -1 1111 l 67 1111 l 174 996 "},"ˇ":{"ha":436,"x_min":0,"x_max":0,"o":"m 161 1007 l 271 1104 l 333 1104 l 333 1097 l 190 969 l 135 969 l -18 1104 l 51 1104 "},"Ž":{"ha":626,"x_min":0,"x_max":0,"o":"m 124 118 l 413 935 l 329 935 l 14 47 l 506 47 l 506 0 l -53 0 l 279 935 l -53 935 l -53 985 l 296 985 l 322 1061 l -53 1061 l -53 1108 l 393 1108 l 346 985 l 479 985 l 190 174 l 506 174 l 506 118 m 194 1225 l 304 1322 l 367 1322 l 367 1315 l 224 1188 l 168 1188 l 15 1322 l 85 1322 "},"ž":{"ha":626,"x_min":0,"x_max":0,"o":"m 124 118 l 140 174 l 413 935 l 329 935 l 56 174 l 14 47 l 97 47 l 147 47 l 506 47 l 506 0 l 131 0 l 72 0 l -3 0 l -53 0 l 279 935 l -53 935 l -53 985 l 296 985 l 322 1061 l -53 1061 l -53 1108 l 338 1108 l 393 1108 l 346 985 l 429 985 l 479 985 l 190 174 l 506 174 l 506 118 l 174 118 m 175 1221 l 285 1318 l 347 1318 l 347 1311 l 204 1183 l 149 1183 l -4 1318 l 65 1318 "},"ˆ":{"ha":442,"x_min":0,"x_max":0,"o":"m 144 1074 l 35 976 l -28 976 l -28 983 l 115 1111 l 171 1111 l 324 976 l 254 976 "},"˛":{"ha":308,"x_min":0,"x_max":0,"o":"m 97 4 l 97 -11 b 139 -190 4 -28 3 -201 l 139 -235 b 47 4 -28 -243 -51 -51 "},"˘":{"ha":450,"x_min":0,"x_max":0,"o":"m 38 1110 b 226 1110 38 999 226 999 l 276 1110 b -8 1110 276 942 -8 940 "},"˚":{"ha":376,"x_min":0,"x_max":0,"o":"m -6 1036 b 218 1036 -6 1183 218 1183 b -6 1036 218 886 -6 886 m 35 1036 b 178 1036 35 942 178 942 b 35 1036 178 1129 35 1129 "},"Œ":{"ha":843,"x_min":0,"x_max":0,"o":"m 304 143 b 269 125 293 136 283 131 b 224 118 254 121 239 118 b 174 125 206 118 190 121 b 133 151 161 132 147 139 b 103 196 121 164 108 178 b 90 247 96 213 90 231 l 90 858 b 103 910 90 876 96 894 b 133 954 108 926 121 942 b 174 979 147 965 161 974 b 224 986 190 985 206 986 b 304 961 251 986 282 979 l 304 1046 b 300 1047 303 1047 301 1047 b 224 1064 275 1057 250 1064 b 88 1007 171 1064 128 1044 b 39 940 67 989 50 967 b 21 858 26 913 21 886 l 21 247 b 39 165 21 219 26 192 b 88 97 50 139 67 117 b 304 71 138 50 247 26 m 304 911 b 224 940 283 931 250 940 b 190 933 211 940 201 939 b 164 919 181 931 171 926 b 138 858 146 903 138 882 l 138 247 b 164 186 138 222 146 203 b 190 171 171 179 181 175 b 224 165 201 167 211 165 b 304 197 260 165 282 169 m 353 1064 l 353 638 l 426 638 l 426 989 l 685 989 l 685 940 l 478 940 l 478 638 l 685 638 l 685 590 l 353 590 b 353 50 353 411 353 231 l 426 50 b 426 517 426 204 426 363 l 685 517 l 685 468 l 478 468 l 478 174 l 685 174 l 685 122 l 478 122 l 478 50 l 685 50 l 685 0 l 304 0 l 304 21 b 136 15 254 -8 188 -3 b 58 61 107 25 82 40 b -3 146 31 86 13 113 b -24 247 -18 179 -24 213 l -24 858 b -3 960 -24 892 -18 926 b 58 1044 13 992 31 1021 b 132 1093 79 1065 104 1083 b 224 1110 161 1106 189 1110 b 304 1090 250 1110 279 1103 l 304 1111 l 685 1111 l 685 1064 "},"Š":{"ha":672,"x_min":0,"x_max":0,"o":"m 478 928 b 457 956 471 939 464 946 l 433 981 b 379 1021 415 997 397 1011 b 247 1058 339 1046 294 1058 b 179 1050 224 1058 201 1056 b 114 1024 157 1044 135 1035 b 19 922 72 1000 40 965 b -1 783 -1 879 -8 832 b 61 660 7 735 28 694 b 113 615 78 642 94 626 b 268 525 163 582 217 557 b 417 379 333 486 396 440 b 422 281 426 350 428 318 b 382 192 417 246 403 217 b 301 138 361 167 335 149 b 201 131 268 128 235 125 b 25 239 135 142 74 185 l 63 272 b 210 181 106 224 156 190 b 343 224 264 171 314 186 b 372 289 358 242 368 264 b 369 364 378 318 376 343 b 326 424 363 383 349 403 b 243 482 303 444 275 464 b 24 626 165 528 83 561 b -50 776 -14 665 -40 717 b -25 944 -60 833 -51 893 b 89 1067 1 997 39 1038 b 167 1099 115 1082 140 1092 b 247 1108 193 1104 219 1108 b 404 1064 303 1108 358 1092 b 468 1017 428 1051 447 1035 b 519 956 493 993 510 974 m 372 861 b 247 933 343 904 296 933 b 178 915 222 933 199 928 b 132 867 157 903 142 888 b 122 804 122 847 119 826 b 153 744 126 782 138 763 b 228 693 169 726 185 719 b 333 632 261 672 296 654 b 443 553 371 610 406 586 b 496 496 461 536 479 518 b 535 421 511 472 525 447 b 550 338 544 393 549 365 b 544 261 551 311 549 285 b 478 111 538 207 515 154 b 340 19 440 68 394 38 b 181 7 289 1 235 -3 b 39 63 129 17 82 35 b -69 157 -1 89 -37 119 l -32 189 b 65 106 -3 156 31 128 b 189 57 103 82 144 64 b 325 67 233 50 281 51 b 439 143 371 82 410 107 b 496 268 471 181 489 224 b 488 404 503 311 503 360 b 410 517 472 450 442 488 b 307 589 376 546 342 568 b 203 649 272 610 238 628 l 176 664 b 117 710 154 676 135 692 b 74 796 92 736 78 764 b 88 889 68 828 72 858 b 153 958 103 921 124 943 b 247 983 182 975 213 983 b 414 888 313 983 383 944 m 235 1210 l 344 1307 l 407 1307 l 407 1300 l 264 1172 l 208 1172 l 56 1307 l 125 1307 "},"š":{"ha":672,"x_min":0,"x_max":0,"o":"m 478 928 b 457 956 471 939 464 946 l 433 981 b 379 1021 415 997 397 1011 b 247 1058 339 1046 294 1058 b 179 1050 224 1058 201 1056 b 114 1024 157 1044 135 1035 b 19 922 72 1000 40 965 b -1 783 -1 879 -8 832 b 61 660 7 735 28 694 b 113 615 78 642 94 626 b 268 525 163 582 217 557 b 417 379 333 486 396 440 b 422 281 426 350 428 318 b 382 192 417 246 403 217 b 301 138 361 167 335 149 b 201 131 268 128 235 125 b 25 239 135 142 74 185 l 63 272 b 210 181 106 224 156 190 b 343 224 264 171 314 186 b 372 289 358 242 368 264 b 369 364 378 318 376 343 b 326 424 363 383 349 403 b 243 482 303 444 275 464 b 24 626 165 528 83 561 b -50 776 -14 665 -40 717 b -25 944 -60 833 -51 893 b 89 1067 1 997 39 1038 b 167 1099 115 1082 140 1092 b 247 1108 193 1104 219 1108 b 404 1064 303 1108 358 1092 b 468 1017 428 1051 447 1035 b 519 956 493 993 510 974 m 372 861 b 247 933 343 904 296 933 b 178 915 222 933 199 928 b 132 867 157 903 142 888 b 122 804 122 847 119 826 b 153 744 126 782 138 763 b 228 693 169 726 185 719 b 333 632 261 672 296 654 b 443 553 371 610 406 586 b 496 496 461 536 479 518 b 535 421 511 472 525 447 b 550 338 544 393 549 365 b 544 261 551 311 549 285 b 478 111 538 207 515 154 b 340 19 440 68 394 38 b 181 7 289 1 235 -3 b 39 63 129 17 82 35 b -69 157 -1 89 -37 119 l -32 189 b 65 106 -3 156 31 128 b 189 57 103 82 144 64 b 325 67 233 50 281 51 b 439 143 371 82 410 107 b 496 268 471 181 489 224 b 488 404 503 311 503 360 b 410 517 472 450 442 488 b 307 589 376 546 342 568 b 203 649 272 610 238 628 l 176 664 b 117 710 154 676 135 692 b 74 796 92 736 78 764 b 88 889 68 828 72 858 b 153 958 103 921 124 943 b 247 983 182 975 213 983 b 414 888 313 983 383 944 m 247 1211 l 357 1308 l 419 1308 l 419 1301 l 276 1174 l 221 1174 l 68 1308 l 138 1308 "},"Ÿ":{"ha":550,"x_min":0,"x_max":0,"o":"m 376 1110 b 239 640 369 1090 367 1074 l 201 779 b 294 1110 286 1088 290 1099 l 244 1110 l 239 1089 l 178 865 l 119 1074 l 110 1110 l 53 1110 l 153 779 l 115 640 l -1 1042 l -21 1110 l -69 1110 l -47 1029 l 92 554 l 94 543 l 94 476 l 94 0 l 142 0 l 142 386 l 142 550 l 142 560 l 178 683 l 213 560 l 213 550 l 213 443 l 213 0 l 260 0 l 260 421 l 260 543 b 425 1110 410 1065 419 1088 m 296 1257 b 339 1215 319 1257 339 1239 b 296 1174 339 1192 319 1174 b 254 1215 274 1174 254 1192 b 296 1257 254 1239 274 1257 m 65 1257 b 107 1215 88 1257 107 1239 b 65 1174 107 1192 88 1174 b 24 1215 42 1174 24 1192 b 65 1257 24 1239 42 1257 "},"€":{"ha":565,"x_min":0,"x_max":0,"o":"m 446 983 l 446 933 b 329 903 403 933 364 924 b 233 817 292 881 260 851 b 172 694 207 781 186 740 b 156 618 165 669 160 644 l 381 618 l 367 572 l 153 572 l 153 556 b 154 504 153 538 153 521 l 356 504 l 342 458 l 163 458 b 172 417 165 444 168 431 b 233 294 186 371 207 331 b 329 208 260 260 292 231 b 446 176 367 188 406 176 l 446 126 b 304 165 397 126 350 139 b 193 265 263 189 225 222 b 103 556 133 349 103 450 l 103 572 l 28 572 l 28 556 b 133 221 28 438 61 319 b 268 100 171 172 214 129 b 446 51 322 68 383 51 l 446 1 b 243 56 375 1 304 22 b 93 190 183 90 132 136 b 6 365 53 244 24 303 b -15 458 -4 396 -11 426 l -97 458 l -97 504 l -19 504 b -22 556 -21 521 -22 538 l -22 572 l -97 572 l -97 618 l -19 618 b 6 744 -15 661 -7 703 b 93 919 24 807 53 865 b 243 1056 133 975 183 1021 b 446 1108 304 1089 375 1110 l 446 1058 b 268 1011 383 1060 322 1043 b 133 890 214 979 171 939 b 53 731 97 842 71 788 b 31 618 42 693 35 656 l 106 618 b 125 708 110 649 115 679 b 193 846 140 758 164 804 b 304 946 225 889 263 922 b 446 983 349 972 397 985 "},"‘":{"ha":182,"x_min":0,"x_max":0,"o":"m 21 1100 l 21 829 l -26 829 l -26 1140 "},"’":{"ha":190,"x_min":0,"x_max":0,"o":"m -26 846 l -26 1117 l 21 1117 l 21 806 "},"“":{"ha":306,"x_min":0,"x_max":0,"o":"m 21 1100 l 21 829 l -26 829 l -26 1140 m 142 1100 l 142 829 l 94 829 l 94 1140 "},"”":{"ha":292,"x_min":0,"x_max":0,"o":"m 97 849 l 97 1119 l 144 1119 l 144 808 m -24 849 l -24 1119 l 24 1119 l 24 808 "},"-":{"ha":340,"x_min":0,"x_max":0,"o":"m -47 486 l 201 486 l 201 440 l -47 440 "},"–":{"ha":415,"x_min":0,"x_max":0,"o":"m -47 486 l 276 486 l 276 440 l -47 440 "},"—":{"ha":508,"x_min":0,"x_max":0,"o":"m -47 486 l 381 486 l 381 440 l -47 440 "},"¯":{"ha":369,"x_min":0,"x_max":0,"o":"m -26 1115 l 222 1115 l 222 1072 l -26 1072 "},"À":{"ha":710,"x_min":0,"x_max":0,"o":"m 217 1106 b 0 849 94 1083 0 975 l 0 621 l 0 0 l 50 0 l 50 390 l 125 347 l 125 0 l 175 0 l 175 319 l 346 221 l 346 0 l 396 0 l 396 250 b 175 376 322 293 249 333 l 175 463 b 396 336 249 419 322 379 l 396 849 b 260 985 396 921 335 985 b 125 849 186 985 125 921 l 125 406 l 50 449 l 50 849 b 260 1060 50 964 144 1060 b 471 849 375 1060 471 964 l 471 0 l 521 0 l 521 849 b 217 1106 521 1011 372 1132 m 175 849 b 260 935 175 897 214 935 b 346 849 308 935 346 897 l 346 424 l 175 521 m 310 1174 l 251 1174 l 135 1285 l 135 1292 l 203 1292 l 310 1176 "},"Á":{"ha":710,"x_min":0,"x_max":0,"o":"m 217 1106 b 521 849 372 1132 521 1011 l 521 0 l 471 0 l 471 849 b 260 1060 471 964 375 1060 b 50 849 144 1060 50 964 l 50 449 l 125 406 l 125 849 b 260 985 125 921 186 985 b 396 849 335 985 396 921 l 396 336 b 175 463 322 379 249 419 l 175 376 b 396 250 249 333 322 293 l 396 0 l 346 0 l 346 221 l 175 319 l 175 0 l 125 0 l 125 347 l 50 390 l 50 0 l 0 0 l 0 621 l 0 849 b 217 1106 0 975 94 1083 m 175 521 l 346 424 l 346 849 b 260 935 346 897 308 935 b 175 849 214 935 175 897 m 210 1169 l 317 1285 l 385 1285 l 385 1278 l 268 1167 l 210 1167 "},"Â":{"ha":710,"x_min":0,"x_max":0,"o":"m 217 1106 b 521 849 372 1132 521 1011 l 521 0 l 471 0 l 471 849 b 260 1060 471 964 375 1060 b 50 849 144 1060 50 964 l 50 449 l 125 406 l 125 849 b 260 985 125 921 186 985 b 396 849 335 985 396 921 l 396 336 b 175 463 322 379 249 419 l 175 376 b 396 250 249 333 322 293 l 396 0 l 346 0 l 346 221 l 175 319 l 175 0 l 125 0 l 125 347 l 50 390 l 50 0 l 0 0 l 0 621 l 0 849 b 217 1106 0 975 94 1083 m 175 521 l 346 424 l 346 849 b 260 935 346 897 308 935 b 175 849 214 935 175 897 m 258 1251 l 149 1154 l 86 1154 l 86 1161 l 229 1289 l 285 1289 l 438 1154 l 368 1154 "},"Ã":{"ha":710,"x_min":0,"x_max":0,"o":"m 217 1106 b 0 849 94 1083 0 975 l 0 621 l 0 0 l 50 0 l 50 390 l 125 347 l 125 0 l 175 0 l 175 319 l 346 221 l 346 0 l 396 0 l 396 250 b 175 376 322 293 249 333 l 175 463 b 396 336 249 419 322 379 l 396 849 b 260 985 396 921 335 985 b 125 849 186 985 125 921 l 125 406 l 50 449 l 50 849 b 260 1060 50 964 144 1060 b 471 849 375 1060 471 964 l 471 0 l 521 0 l 521 849 b 217 1106 521 1011 372 1132 m 175 849 b 260 935 175 897 214 935 b 346 849 308 935 346 897 l 346 424 l 175 521 m 138 1263 b 258 1236 165 1203 211 1204 b 436 1194 317 1276 394 1276 l 401 1174 b 278 1197 371 1229 322 1228 b 101 1240 219 1158 140 1160 "},"Ä":{"ha":710,"x_min":0,"x_max":0,"o":"m 217 1106 b 0 849 94 1083 0 975 l 0 621 l 0 0 l 50 0 l 50 390 l 125 347 l 125 0 l 175 0 l 175 319 l 346 221 l 346 0 l 396 0 l 396 250 b 175 376 322 293 249 333 l 175 463 b 396 336 249 419 322 379 l 396 849 b 260 985 396 921 335 985 b 125 849 186 985 125 921 l 125 406 l 50 449 l 50 849 b 260 1060 50 964 144 1060 b 471 849 375 1060 471 964 l 471 0 l 521 0 l 521 849 b 217 1106 521 1011 372 1132 m 175 849 b 260 935 175 897 214 935 b 346 849 308 935 346 897 l 346 424 l 175 521 m 374 1254 b 417 1213 397 1254 417 1236 b 374 1171 417 1189 397 1171 b 332 1213 351 1171 332 1189 b 374 1254 332 1236 351 1254 m 143 1254 b 185 1213 165 1254 185 1236 b 143 1171 185 1189 165 1171 b 101 1213 119 1171 101 1189 b 143 1254 101 1236 119 1254 "},"Å":{"ha":710,"x_min":0,"x_max":0,"o":"m 147 1181 b 371 1181 147 1328 371 1328 b 336 1097 371 1143 357 1115 b 426 1047 371 1086 400 1069 b 521 849 483 1001 521 928 l 521 0 l 471 0 l 471 849 b 260 1064 471 960 375 1064 b 50 849 144 1064 50 960 l 50 449 l 125 406 l 125 849 b 260 985 125 921 186 985 b 396 849 335 985 396 921 l 396 336 b 175 463 322 379 249 419 l 175 376 b 396 250 249 333 322 293 l 396 0 l 346 0 l 346 221 l 175 319 l 175 0 l 125 0 l 125 347 l 50 390 l 50 0 l 0 0 l 0 849 b 131 1074 0 944 54 1026 b 182 1096 147 1083 164 1090 b 147 1181 161 1115 147 1143 m 175 521 l 346 424 l 346 849 b 260 935 346 897 308 935 b 175 849 214 935 175 897 m 188 1181 b 331 1181 188 1086 331 1086 b 188 1181 331 1274 188 1274 "},"à":{"ha":710,"x_min":0,"x_max":0,"o":"m 217 1106 b 0 849 94 1083 0 975 l 0 621 l 0 0 l 50 0 l 50 390 l 125 347 l 125 0 l 175 0 l 175 319 l 346 221 l 346 0 l 396 0 l 396 250 b 175 376 322 293 249 333 l 175 463 b 396 336 249 419 322 379 l 396 849 b 260 985 396 921 335 985 b 125 849 186 985 125 921 l 125 406 l 50 449 l 50 849 b 260 1060 50 964 144 1060 b 471 849 375 1060 471 964 l 471 0 l 521 0 l 521 849 b 217 1106 521 1011 372 1132 m 175 849 b 260 935 175 897 214 935 b 346 849 308 935 346 897 l 346 424 l 175 521 m 310 1174 l 251 1174 l 135 1285 l 135 1292 l 203 1292 l 310 1176 "},"á":{"ha":710,"x_min":0,"x_max":0,"o":"m 217 1106 b 521 849 372 1132 521 1011 l 521 0 l 471 0 l 471 849 b 260 1060 471 964 375 1060 b 50 849 144 1060 50 964 l 50 449 l 125 406 l 125 849 b 260 985 125 921 186 985 b 396 849 335 985 396 921 l 396 336 b 175 463 322 379 249 419 l 175 376 b 396 250 249 333 322 293 l 396 0 l 346 0 l 346 221 l 175 319 l 175 0 l 125 0 l 125 347 l 50 390 l 50 0 l 0 0 l 0 621 l 0 849 b 217 1106 0 975 94 1083 m 175 521 l 346 424 l 346 849 b 260 935 346 897 308 935 b 175 849 214 935 175 897 m 210 1169 l 317 1285 l 385 1285 l 385 1278 l 268 1167 l 210 1167 "},"â":{"ha":710,"x_min":0,"x_max":0,"o":"m 217 1106 b 521 849 372 1132 521 1011 l 521 0 l 471 0 l 471 849 b 260 1060 471 964 375 1060 b 50 849 144 1060 50 964 l 50 449 l 125 406 l 125 849 b 260 985 125 921 186 985 b 396 849 335 985 396 921 l 396 336 b 175 463 322 379 249 419 l 175 376 b 396 250 249 333 322 293 l 396 0 l 346 0 l 346 221 l 175 319 l 175 0 l 125 0 l 125 347 l 50 390 l 50 0 l 0 0 l 0 621 l 0 849 b 217 1106 0 975 94 1083 m 175 521 l 346 424 l 346 849 b 260 935 346 897 308 935 b 175 849 214 935 175 897 m 258 1251 l 149 1154 l 86 1154 l 86 1161 l 229 1289 l 285 1289 l 438 1154 l 368 1154 "},"ã":{"ha":710,"x_min":0,"x_max":0,"o":"m 217 1106 b 0 849 94 1083 0 975 l 0 621 l 0 0 l 50 0 l 50 390 l 125 347 l 125 0 l 175 0 l 175 319 l 346 221 l 346 0 l 396 0 l 396 250 b 175 376 322 293 249 333 l 175 463 b 396 336 249 419 322 379 l 396 849 b 260 985 396 921 335 985 b 125 849 186 985 125 921 l 125 406 l 50 449 l 50 849 b 260 1060 50 964 144 1060 b 471 849 375 1060 471 964 l 471 0 l 521 0 l 521 849 b 217 1106 521 1011 372 1132 m 175 849 b 260 935 175 897 214 935 b 346 849 308 935 346 897 l 346 424 l 175 521 m 138 1263 b 258 1236 165 1203 211 1204 b 436 1194 317 1276 394 1276 l 401 1174 b 278 1197 371 1229 322 1228 b 101 1240 219 1158 140 1160 "},"ä":{"ha":710,"x_min":0,"x_max":0,"o":"m 217 1106 b 0 849 94 1083 0 975 l 0 621 l 0 0 l 50 0 l 50 390 l 125 347 l 125 0 l 175 0 l 175 319 l 346 221 l 346 0 l 396 0 l 396 250 b 175 376 322 293 249 333 l 175 463 b 396 336 249 419 322 379 l 396 849 b 260 985 396 921 335 985 b 125 849 186 985 125 921 l 125 406 l 50 449 l 50 849 b 260 1060 50 964 144 1060 b 471 849 375 1060 471 964 l 471 0 l 521 0 l 521 849 b 217 1106 521 1011 372 1132 m 175 849 b 260 935 175 897 214 935 b 346 849 308 935 346 897 l 346 424 l 175 521 m 374 1254 b 417 1213 397 1254 417 1236 b 374 1171 417 1189 397 1171 b 332 1213 351 1171 332 1189 b 374 1254 332 1236 351 1254 m 143 1254 b 185 1213 165 1254 185 1236 b 143 1171 185 1189 165 1171 b 101 1213 119 1171 101 1189 b 143 1254 101 1236 119 1254 "},"å":{"ha":710,"x_min":0,"x_max":0,"o":"m 147 1181 b 371 1181 147 1328 371 1328 b 336 1097 371 1143 357 1115 b 426 1047 371 1086 400 1069 b 521 849 483 1001 521 928 l 521 0 l 471 0 l 471 849 b 260 1064 471 960 375 1064 b 50 849 144 1064 50 960 l 50 449 l 125 406 l 125 849 b 260 985 125 921 186 985 b 396 849 335 985 396 921 l 396 336 b 175 463 322 379 249 419 l 175 376 b 396 250 249 333 322 293 l 396 0 l 346 0 l 346 221 l 175 319 l 175 0 l 125 0 l 125 347 l 50 390 l 50 0 l 0 0 l 0 849 b 131 1074 0 944 54 1026 b 182 1096 147 1083 164 1090 b 147 1181 161 1115 147 1143 m 175 521 l 346 424 l 346 849 b 260 935 346 897 308 935 b 175 849 214 935 175 897 m 188 1181 b 331 1181 188 1086 331 1086 b 188 1181 331 1274 188 1274 "},"Ç":{"ha":565,"x_min":0,"x_max":0,"o":"m 324 -58 b 239 -294 424 -115 408 -301 l 239 -250 b 275 -83 376 -262 369 -100 l 304 18 b 217 56 274 28 244 40 b 67 190 157 90 106 136 b -49 556 -12 300 -49 428 b 67 919 -49 683 -12 813 b 217 1056 107 975 157 1021 b 419 1108 278 1089 349 1110 l 419 1058 b 242 1011 357 1060 296 1043 b 107 890 188 979 144 939 b 1 556 35 792 1 674 b 107 221 1 438 35 319 b 242 100 144 172 188 129 b 419 51 296 68 357 51 l 419 1 b 344 8 394 1 369 4 m 419 933 b 303 903 376 933 338 924 b 207 817 265 881 233 851 b 126 556 153 744 126 650 b 207 294 126 461 153 367 b 303 208 233 260 265 231 b 419 176 340 188 379 176 l 419 126 b 278 165 371 126 324 139 b 167 265 236 189 199 222 b 76 556 107 349 76 450 b 167 846 76 661 107 763 b 278 946 199 889 236 922 b 419 983 322 972 371 985 "},"ç":{"ha":565,"x_min":0,"x_max":0,"o":"m 324 -58 b 239 -294 424 -115 408 -301 l 239 -250 b 275 -83 376 -262 369 -100 l 304 18 b 217 56 274 28 244 40 b 67 190 157 90 106 136 b -49 556 -12 300 -49 428 b 67 919 -49 683 -12 813 b 217 1056 107 975 157 1021 b 419 1108 278 1089 349 1110 l 419 1058 b 242 1011 357 1060 296 1043 b 107 890 188 979 144 939 b 1 556 35 792 1 674 b 107 221 1 438 35 319 b 242 100 144 172 188 129 b 419 51 296 68 357 51 l 419 1 b 344 8 394 1 369 4 m 419 933 b 303 903 376 933 338 924 b 207 817 265 881 233 851 b 126 556 153 744 126 650 b 207 294 126 461 153 367 b 303 208 233 260 265 231 b 419 176 340 188 379 176 l 419 126 b 278 165 371 126 324 139 b 167 265 236 189 199 222 b 76 556 107 349 76 450 b 167 846 76 661 107 763 b 278 946 199 889 236 922 b 419 983 322 972 371 985 "},"È":{"ha":621,"x_min":0,"x_max":0,"o":"m 435 1061 l 435 1110 l 0 1110 l 0 49 l 0 0 l 435 0 l 435 49 l 172 49 l 172 122 l 435 122 l 435 172 l 172 172 l 172 467 l 435 467 l 435 515 l 122 515 l 122 172 l 49 172 l 49 589 l 435 589 l 435 638 l 172 638 l 172 938 l 435 938 l 435 988 l 122 988 l 122 638 l 49 638 l 49 1061 m 49 49 l 49 122 l 122 122 l 122 49 m 269 1172 l 211 1172 l 94 1283 l 94 1290 l 163 1290 l 269 1175 "},"É":{"ha":621,"x_min":0,"x_max":0,"o":"m 49 1061 l 49 638 l 122 638 l 122 988 l 435 988 l 435 938 l 172 938 l 172 638 l 435 638 l 435 589 l 49 589 l 49 172 l 122 172 l 122 515 l 435 515 l 435 467 l 172 467 l 172 172 l 435 172 l 435 122 l 172 122 l 172 49 l 435 49 l 435 0 l 0 0 l 0 49 l 0 1110 l 435 1110 l 435 1061 m 122 49 l 122 122 l 49 122 l 49 49 m 183 1175 l 290 1290 l 358 1290 l 358 1283 l 242 1172 l 183 1172 "},"Ê":{"ha":621,"x_min":0,"x_max":0,"o":"m 49 1061 l 49 638 l 122 638 l 122 988 l 435 988 l 435 938 l 172 938 l 172 638 l 435 638 l 435 589 l 49 589 l 49 172 l 122 172 l 122 515 l 435 515 l 435 467 l 172 467 l 172 172 l 435 172 l 435 122 l 172 122 l 172 49 l 435 49 l 435 0 l 0 0 l 0 49 l 0 1110 l 435 1110 l 435 1061 m 122 49 l 122 122 l 49 122 l 49 49 m 215 1264 l 106 1167 l 43 1167 l 43 1174 l 186 1301 l 242 1301 l 394 1167 l 325 1167 "},"Ë":{"ha":621,"x_min":0,"x_max":0,"o":"m 435 1061 l 435 1110 l 0 1110 l 0 49 l 0 0 l 435 0 l 435 49 l 172 49 l 172 122 l 435 122 l 435 172 l 172 172 l 172 467 l 435 467 l 435 515 l 122 515 l 122 172 l 49 172 l 49 589 l 435 589 l 435 638 l 172 638 l 172 938 l 435 938 l 435 988 l 122 988 l 122 638 l 49 638 l 49 1061 m 49 49 l 49 122 l 122 122 l 122 49 m 335 1256 b 378 1214 358 1256 378 1238 b 335 1172 378 1190 358 1172 b 293 1214 313 1172 293 1190 b 335 1256 293 1238 313 1256 m 104 1256 b 146 1214 126 1256 146 1238 b 104 1172 146 1190 126 1172 b 63 1214 81 1172 63 1190 b 104 1256 63 1238 81 1256 "},"Ì":{"ha":560,"x_min":0,"x_max":0,"o":"m 399 1110 l -21 1110 l -21 1060 l 224 1060 l 224 985 l -21 985 l -21 935 l 107 935 l 107 175 l -21 175 l -21 125 l 107 125 l 107 50 l -21 50 l -21 0 l 399 0 l 399 50 l 154 50 l 154 125 l 399 125 l 399 175 l 271 175 l 271 935 l 399 935 l 399 985 l 271 985 l 271 1060 l 399 1060 m 154 175 l 154 935 l 224 935 l 224 175 m 239 1172 l 181 1172 l 64 1283 l 64 1290 l 132 1290 l 239 1175 "},"Í":{"ha":560,"x_min":0,"x_max":0,"o":"m 399 1060 l 271 1060 l 271 985 l 399 985 l 399 935 l 271 935 l 271 175 l 399 175 l 399 125 l 154 125 l 154 50 l 399 50 l 399 0 l -21 0 l -21 50 l 107 50 l 107 125 l -21 125 l -21 175 l 107 175 l 107 935 l -21 935 l -21 985 l 224 985 l 224 1060 l -21 1060 l -21 1110 l 399 1110 m 224 175 l 224 935 l 154 935 l 154 175 m 126 1175 l 233 1290 l 301 1290 l 301 1283 l 185 1172 l 126 1172 "},"Î":{"ha":560,"x_min":0,"x_max":0,"o":"m 399 1060 l 271 1060 l 271 985 l 399 985 l 399 935 l 271 935 l 271 175 l 399 175 l 399 125 l 154 125 l 154 50 l 399 50 l 399 0 l -21 0 l -21 50 l 107 50 l 107 125 l -21 125 l -21 175 l 107 175 l 107 935 l -21 935 l -21 985 l 224 985 l 224 1060 l -21 1060 l -21 1110 l 399 1110 m 224 175 l 224 935 l 154 935 l 154 175 m 186 1276 l 76 1179 l 14 1179 l 14 1186 l 157 1314 l 213 1314 l 365 1179 l 296 1179 "},"Ï":{"ha":560,"x_min":0,"x_max":0,"o":"m 399 1110 l -21 1110 l -21 1060 l 224 1060 l 224 985 l -21 985 l -21 935 l 107 935 l 107 175 l -21 175 l -21 125 l 107 125 l 107 50 l -21 50 l -21 0 l 399 0 l 399 50 l 154 50 l 154 125 l 399 125 l 399 175 l 271 175 l 271 935 l 399 935 l 399 985 l 271 985 l 271 1060 l 399 1060 m 154 175 l 154 935 l 224 935 l 224 175 m 307 1271 b 350 1229 331 1271 350 1253 b 307 1188 350 1206 331 1188 b 265 1229 285 1188 265 1206 b 307 1271 265 1253 285 1271 m 76 1271 b 118 1229 99 1271 118 1253 b 76 1188 118 1206 99 1188 b 35 1229 53 1188 35 1206 b 76 1271 35 1253 53 1271 "},"è":{"ha":621,"x_min":0,"x_max":0,"o":"m 435 1061 l 435 1110 l 0 1110 l 0 49 l 0 0 l 435 0 l 435 49 l 172 49 l 172 122 l 435 122 l 435 172 l 172 172 l 172 467 l 435 467 l 435 515 l 122 515 l 122 172 l 49 172 l 49 589 l 435 589 l 435 638 l 172 638 l 172 938 l 435 938 l 435 988 l 122 988 l 122 638 l 49 638 l 49 1061 m 49 49 l 49 122 l 122 122 l 122 49 m 269 1172 l 211 1172 l 94 1283 l 94 1290 l 163 1290 l 269 1175 "},"é":{"ha":621,"x_min":0,"x_max":0,"o":"m 49 1061 l 49 638 l 122 638 l 122 988 l 435 988 l 435 938 l 172 938 l 172 638 l 435 638 l 435 589 l 49 589 l 49 172 l 122 172 l 122 515 l 435 515 l 435 467 l 172 467 l 172 172 l 435 172 l 435 122 l 172 122 l 172 49 l 435 49 l 435 0 l 0 0 l 0 49 l 0 1110 l 435 1110 l 435 1061 m 122 49 l 122 122 l 49 122 l 49 49 m 183 1175 l 290 1290 l 358 1290 l 358 1283 l 242 1172 l 183 1172 "},"ê":{"ha":621,"x_min":0,"x_max":0,"o":"m 49 1061 l 49 638 l 122 638 l 122 988 l 435 988 l 435 938 l 172 938 l 172 638 l 435 638 l 435 589 l 49 589 l 49 172 l 122 172 l 122 515 l 435 515 l 435 467 l 172 467 l 172 172 l 435 172 l 435 122 l 172 122 l 172 49 l 435 49 l 435 0 l 0 0 l 0 49 l 0 1110 l 435 1110 l 435 1061 m 122 49 l 122 122 l 49 122 l 49 49 m 215 1264 l 106 1167 l 43 1167 l 43 1174 l 186 1301 l 242 1301 l 394 1167 l 325 1167 "},"ë":{"ha":621,"x_min":0,"x_max":0,"o":"m 435 1061 l 435 1110 l 0 1110 l 0 49 l 0 0 l 435 0 l 435 49 l 172 49 l 172 122 l 435 122 l 435 172 l 172 172 l 172 467 l 435 467 l 435 515 l 122 515 l 122 172 l 49 172 l 49 589 l 435 589 l 435 638 l 172 638 l 172 938 l 435 938 l 435 988 l 122 988 l 122 638 l 49 638 l 49 1061 m 49 49 l 49 122 l 122 122 l 122 49 m 335 1256 b 378 1214 358 1256 378 1238 b 335 1172 378 1190 358 1172 b 293 1214 313 1172 293 1190 b 335 1256 293 1238 313 1256 m 104 1256 b 146 1214 126 1256 146 1238 b 104 1172 146 1190 126 1172 b 63 1214 81 1172 63 1190 b 104 1256 63 1238 81 1256 "},"ì":{"ha":560,"x_min":0,"x_max":0,"o":"m 399 1110 l -21 1110 l -21 1060 l 224 1060 l 224 985 l -21 985 l -21 935 l 107 935 l 107 175 l -21 175 l -21 125 l 107 125 l 107 50 l -21 50 l -21 0 l 399 0 l 399 50 l 154 50 l 154 125 l 399 125 l 399 175 l 271 175 l 271 935 l 399 935 l 399 985 l 271 985 l 271 1060 l 399 1060 m 154 175 l 154 935 l 224 935 l 224 175 m 239 1172 l 181 1172 l 64 1283 l 64 1290 l 132 1290 l 239 1175 "},"í":{"ha":560,"x_min":0,"x_max":0,"o":"m 399 1060 l 271 1060 l 271 985 l 399 985 l 399 935 l 271 935 l 271 175 l 399 175 l 399 125 l 154 125 l 154 50 l 399 50 l 399 0 l -21 0 l -21 50 l 107 50 l 107 125 l -21 125 l -21 175 l 107 175 l 107 935 l -21 935 l -21 985 l 224 985 l 224 1060 l -21 1060 l -21 1110 l 399 1110 m 224 175 l 224 935 l 154 935 l 154 175 m 126 1175 l 233 1290 l 301 1290 l 301 1283 l 185 1172 l 126 1172 "},"î":{"ha":560,"x_min":0,"x_max":0,"o":"m 399 1060 l 271 1060 l 271 985 l 399 985 l 399 935 l 271 935 l 271 175 l 399 175 l 399 125 l 154 125 l 154 50 l 399 50 l 399 0 l -21 0 l -21 50 l 107 50 l 107 125 l -21 125 l -21 175 l 107 175 l 107 935 l -21 935 l -21 985 l 224 985 l 224 1060 l -21 1060 l -21 1110 l 399 1110 m 224 175 l 224 935 l 154 935 l 154 175 m 186 1276 l 76 1179 l 14 1179 l 14 1186 l 157 1314 l 213 1314 l 365 1179 l 296 1179 "},"ï":{"ha":560,"x_min":0,"x_max":0,"o":"m 399 1110 l -21 1110 l -21 1060 l 224 1060 l 224 985 l -21 985 l -21 935 l 107 935 l 107 175 l -21 175 l -21 125 l 107 125 l 107 50 l -21 50 l -21 0 l 399 0 l 399 50 l 154 50 l 154 125 l 399 125 l 399 175 l 271 175 l 271 935 l 399 935 l 399 985 l 271 985 l 271 1060 l 399 1060 m 154 175 l 154 935 l 224 935 l 224 175 m 307 1271 b 350 1229 331 1271 350 1253 b 307 1188 350 1206 331 1188 b 265 1229 285 1188 265 1206 b 307 1271 265 1253 285 1271 m 76 1271 b 118 1229 99 1271 118 1253 b 76 1188 118 1206 99 1188 b 35 1229 53 1188 35 1206 b 76 1271 35 1253 53 1271 "},"Ñ":{"ha":694,"x_min":0,"x_max":0,"o":"m 192 1110 l 136 1110 l 338 740 l 338 585 l 53 1110 l 0 1110 l 0 0 l 50 0 l 50 1014 l 125 876 l 125 0 l 175 0 l 175 783 l 338 482 l 338 0 l 388 0 l 388 1110 l 338 1110 l 338 842 m 463 0 l 513 0 l 513 1110 l 463 1110 m 119 1285 b 240 1258 147 1225 193 1226 b 418 1217 299 1299 376 1299 l 383 1196 b 260 1219 353 1251 304 1250 b 83 1263 201 1181 122 1182 "},"ñ":{"ha":694,"x_min":0,"x_max":0,"o":"m 192 1110 l 136 1110 l 338 740 l 338 585 l 53 1110 l 0 1110 l 0 0 l 50 0 l 50 1014 l 125 876 l 125 0 l 175 0 l 175 783 l 338 482 l 338 0 l 388 0 l 388 1110 l 338 1110 l 338 842 m 463 0 l 513 0 l 513 1110 l 463 1110 m 119 1285 b 240 1258 147 1225 193 1226 b 418 1217 299 1299 376 1299 l 383 1196 b 260 1219 353 1251 304 1250 b 83 1263 201 1181 122 1182 "},"Ò":{"ha":686,"x_min":0,"x_max":0,"o":"m 338 953 b 249 985 314 975 281 985 b 158 953 215 985 185 975 b 115 856 131 926 115 893 l 115 247 b 158 150 115 210 131 176 b 249 118 185 128 215 118 b 338 150 281 118 314 128 b 386 247 371 176 386 210 l 386 856 b 338 953 386 893 371 926 m 335 247 b 307 186 335 222 325 201 b 249 165 290 171 269 165 b 189 186 226 165 206 171 b 161 247 171 201 161 222 l 161 856 b 189 917 161 881 171 901 b 249 938 206 932 226 938 b 307 917 269 938 290 932 b 335 856 325 901 335 881 m 419 1042 b 249 1108 375 1090 308 1108 b 82 1042 182 1108 125 1086 b 0 856 31 996 0 926 l 0 247 b 82 61 0 176 31 107 b 249 0 131 18 188 0 b 419 61 314 0 375 22 b 501 247 471 107 501 176 l 501 856 b 419 1042 501 926 471 996 m 456 247 b 389 97 456 190 432 135 b 249 47 350 60 297 47 b 113 97 192 47 147 64 b 46 247 69 135 46 190 l 46 856 b 113 1006 46 913 69 968 b 249 1061 153 1043 197 1061 b 389 1006 303 1061 354 1039 b 456 856 432 968 456 913 m 296 1163 l 238 1163 l 121 1274 l 121 1281 l 189 1281 l 296 1165 "},"Ó":{"ha":686,"x_min":0,"x_max":0,"o":"m 338 953 b 386 856 371 926 386 893 l 386 247 b 338 150 386 210 371 176 b 249 118 314 128 281 118 b 158 150 215 118 185 128 b 115 247 131 176 115 210 l 115 856 b 158 953 115 893 131 926 b 249 985 185 975 215 985 b 338 953 281 985 314 975 m 335 856 b 307 917 335 881 325 901 b 249 938 290 932 269 938 b 189 917 226 938 206 932 b 161 856 171 901 161 881 l 161 247 b 189 186 161 222 171 201 b 249 165 206 171 226 165 b 307 186 269 165 290 171 b 335 247 325 201 335 222 m 419 1042 b 501 856 471 996 501 926 l 501 247 b 419 61 501 176 471 107 b 249 0 375 22 314 0 b 82 61 188 0 131 18 b 0 247 31 107 0 176 l 0 856 b 82 1042 0 926 31 996 b 249 1108 125 1086 182 1108 b 419 1042 308 1108 375 1090 m 456 856 b 389 1006 456 913 432 968 b 249 1061 354 1039 303 1061 b 113 1006 197 1061 153 1043 b 46 856 69 968 46 913 l 46 247 b 113 97 46 190 69 135 b 249 47 147 64 192 47 b 389 97 297 47 350 60 b 456 247 432 135 456 190 m 186 1164 l 293 1279 l 361 1279 l 361 1272 l 244 1161 l 186 1161 "},"Ô":{"ha":686,"x_min":0,"x_max":0,"o":"m 338 953 b 386 856 371 926 386 893 l 386 247 b 338 150 386 210 371 176 b 249 118 314 128 281 118 b 158 150 215 118 185 128 b 115 247 131 176 115 210 l 115 856 b 158 953 115 893 131 926 b 249 985 185 975 215 985 b 338 953 281 985 314 975 m 335 856 b 307 917 335 881 325 901 b 249 938 290 932 269 938 b 189 917 226 938 206 932 b 161 856 171 901 161 881 l 161 247 b 189 186 161 222 171 201 b 249 165 206 171 226 165 b 307 186 269 165 290 171 b 335 247 325 201 335 222 m 419 1042 b 501 856 471 996 501 926 l 501 247 b 419 61 501 176 471 107 b 249 0 375 22 314 0 b 82 61 188 0 131 18 b 0 247 31 107 0 176 l 0 856 b 82 1042 0 926 31 996 b 249 1108 125 1086 182 1108 b 419 1042 308 1108 375 1090 m 456 856 b 389 1006 456 913 432 968 b 249 1061 354 1039 303 1061 b 113 1006 197 1061 153 1043 b 46 856 69 968 46 913 l 46 247 b 113 97 46 190 69 135 b 249 47 147 64 192 47 b 389 97 297 47 350 60 b 456 247 432 135 456 190 m 246 1242 l 136 1144 l 74 1144 l 74 1151 l 217 1279 l 272 1279 l 425 1144 l 356 1144 "},"Õ":{"ha":686,"x_min":0,"x_max":0,"o":"m 338 953 b 249 985 314 975 281 985 b 158 953 215 985 185 975 b 115 856 131 926 115 893 l 115 247 b 158 150 115 210 131 176 b 249 118 185 128 215 118 b 338 150 281 118 314 128 b 386 247 371 176 386 210 l 386 856 b 338 953 386 893 371 926 m 335 247 b 307 186 335 222 325 201 b 249 165 290 171 269 165 b 189 186 226 165 206 171 b 161 247 171 201 161 222 l 161 856 b 189 917 161 881 171 901 b 249 938 206 932 226 938 b 307 917 269 938 290 932 b 335 856 325 901 335 881 m 419 1042 b 249 1108 375 1090 308 1108 b 82 1042 182 1108 125 1086 b 0 856 31 996 0 926 l 0 247 b 82 61 0 176 31 107 b 249 0 131 18 188 0 b 419 61 314 0 375 22 b 501 247 471 107 501 176 l 501 856 b 419 1042 501 926 471 996 m 456 247 b 389 97 456 190 432 135 b 249 47 350 60 297 47 b 113 97 192 47 147 64 b 46 247 69 135 46 190 l 46 856 b 113 1006 46 913 69 968 b 249 1061 153 1043 197 1061 b 389 1006 303 1061 354 1039 b 456 856 432 968 456 913 m 119 1264 b 240 1238 147 1204 193 1206 b 418 1196 299 1278 376 1278 l 383 1175 b 260 1199 353 1231 304 1229 b 83 1242 201 1160 122 1161 "},"Ö":{"ha":686,"x_min":0,"x_max":0,"o":"m 338 953 b 249 985 314 975 281 985 b 158 953 215 985 185 975 b 115 856 131 926 115 893 l 115 247 b 158 150 115 210 131 176 b 249 118 185 128 215 118 b 338 150 281 118 314 128 b 386 247 371 176 386 210 l 386 856 b 338 953 386 893 371 926 m 335 247 b 307 186 335 222 325 201 b 249 165 290 171 269 165 b 189 186 226 165 206 171 b 161 247 171 201 161 222 l 161 856 b 189 917 161 881 171 901 b 249 938 206 932 226 938 b 307 917 269 938 290 932 b 335 856 325 901 335 881 m 419 1042 b 249 1108 375 1090 308 1108 b 82 1042 182 1108 125 1086 b 0 856 31 996 0 926 l 0 247 b 82 61 0 176 31 107 b 249 0 131 18 188 0 b 419 61 314 0 375 22 b 501 247 471 107 501 176 l 501 856 b 419 1042 501 926 471 996 m 456 247 b 389 97 456 190 432 135 b 249 47 350 60 297 47 b 113 97 192 47 147 64 b 46 247 69 135 46 190 l 46 856 b 113 1006 46 913 69 968 b 249 1061 153 1043 197 1061 b 389 1006 303 1061 354 1039 b 456 856 432 968 456 913 m 367 1242 b 410 1200 390 1242 410 1224 b 367 1158 410 1176 390 1158 b 325 1200 344 1158 325 1176 b 367 1242 325 1224 344 1242 m 136 1242 b 178 1200 158 1242 178 1224 b 136 1158 178 1176 158 1158 b 94 1200 113 1158 94 1176 b 136 1242 94 1224 113 1242 "},"ò":{"ha":686,"x_min":0,"x_max":0,"o":"m 338 953 b 249 985 314 975 281 985 b 158 953 215 985 185 975 b 115 856 131 926 115 893 l 115 247 b 158 150 115 210 131 176 b 249 118 185 128 215 118 b 338 150 281 118 314 128 b 386 247 371 176 386 210 l 386 856 b 338 953 386 893 371 926 m 335 247 b 307 186 335 222 325 201 b 249 165 290 171 269 165 b 189 186 226 165 206 171 b 161 247 171 201 161 222 l 161 856 b 189 917 161 881 171 901 b 249 938 206 932 226 938 b 307 917 269 938 290 932 b 335 856 325 901 335 881 m 419 1042 b 249 1108 375 1090 308 1108 b 82 1042 182 1108 125 1086 b 0 856 31 996 0 926 l 0 247 b 82 61 0 176 31 107 b 249 0 131 18 188 0 b 419 61 314 0 375 22 b 501 247 471 107 501 176 l 501 856 b 419 1042 501 926 471 996 m 456 247 b 389 97 456 190 432 135 b 249 47 350 60 297 47 b 113 97 192 47 147 64 b 46 247 69 135 46 190 l 46 856 b 113 1006 46 913 69 968 b 249 1061 153 1043 197 1061 b 389 1006 303 1061 354 1039 b 456 856 432 968 456 913 m 296 1163 l 238 1163 l 121 1274 l 121 1281 l 189 1281 l 296 1165 "},"ó":{"ha":686,"x_min":0,"x_max":0,"o":"m 338 953 b 386 856 371 926 386 893 l 386 247 b 338 150 386 210 371 176 b 249 118 314 128 281 118 b 158 150 215 118 185 128 b 115 247 131 176 115 210 l 115 856 b 158 953 115 893 131 926 b 249 985 185 975 215 985 b 338 953 281 985 314 975 m 335 856 b 307 917 335 881 325 901 b 249 938 290 932 269 938 b 189 917 226 938 206 932 b 161 856 171 901 161 881 l 161 247 b 189 186 161 222 171 201 b 249 165 206 171 226 165 b 307 186 269 165 290 171 b 335 247 325 201 335 222 m 419 1042 b 501 856 471 996 501 926 l 501 247 b 419 61 501 176 471 107 b 249 0 375 22 314 0 b 82 61 188 0 131 18 b 0 247 31 107 0 176 l 0 856 b 82 1042 0 926 31 996 b 249 1108 125 1086 182 1108 b 419 1042 308 1108 375 1090 m 456 856 b 389 1006 456 913 432 968 b 249 1061 354 1039 303 1061 b 113 1006 197 1061 153 1043 b 46 856 69 968 46 913 l 46 247 b 113 97 46 190 69 135 b 249 47 147 64 192 47 b 389 97 297 47 350 60 b 456 247 432 135 456 190 m 186 1164 l 293 1279 l 361 1279 l 361 1272 l 244 1161 l 186 1161 "},"ô":{"ha":686,"x_min":0,"x_max":0,"o":"m 338 953 b 386 856 371 926 386 893 l 386 247 b 338 150 386 210 371 176 b 249 118 314 128 281 118 b 158 150 215 118 185 128 b 115 247 131 176 115 210 l 115 856 b 158 953 115 893 131 926 b 249 985 185 975 215 985 b 338 953 281 985 314 975 m 335 856 b 307 917 335 881 325 901 b 249 938 290 932 269 938 b 189 917 226 938 206 932 b 161 856 171 901 161 881 l 161 247 b 189 186 161 222 171 201 b 249 165 206 171 226 165 b 307 186 269 165 290 171 b 335 247 325 201 335 222 m 419 1042 b 501 856 471 996 501 926 l 501 247 b 419 61 501 176 471 107 b 249 0 375 22 314 0 b 82 61 188 0 131 18 b 0 247 31 107 0 176 l 0 856 b 82 1042 0 926 31 996 b 249 1108 125 1086 182 1108 b 419 1042 308 1108 375 1090 m 456 856 b 389 1006 456 913 432 968 b 249 1061 354 1039 303 1061 b 113 1006 197 1061 153 1043 b 46 856 69 968 46 913 l 46 247 b 113 97 46 190 69 135 b 249 47 147 64 192 47 b 389 97 297 47 350 60 b 456 247 432 135 456 190 m 246 1242 l 136 1144 l 74 1144 l 74 1151 l 217 1279 l 272 1279 l 425 1144 l 356 1144 "},"õ":{"ha":686,"x_min":0,"x_max":0,"o":"m 338 953 b 249 985 314 975 281 985 b 158 953 215 985 185 975 b 115 856 131 926 115 893 l 115 247 b 158 150 115 210 131 176 b 249 118 185 128 215 118 b 338 150 281 118 314 128 b 386 247 371 176 386 210 l 386 856 b 338 953 386 893 371 926 m 335 247 b 307 186 335 222 325 201 b 249 165 290 171 269 165 b 189 186 226 165 206 171 b 161 247 171 201 161 222 l 161 856 b 189 917 161 881 171 901 b 249 938 206 932 226 938 b 307 917 269 938 290 932 b 335 856 325 901 335 881 m 419 1042 b 249 1108 375 1090 308 1108 b 82 1042 182 1108 125 1086 b 0 856 31 996 0 926 l 0 247 b 82 61 0 176 31 107 b 249 0 131 18 188 0 b 419 61 314 0 375 22 b 501 247 471 107 501 176 l 501 856 b 419 1042 501 926 471 996 m 456 247 b 389 97 456 190 432 135 b 249 47 350 60 297 47 b 113 97 192 47 147 64 b 46 247 69 135 46 190 l 46 856 b 113 1006 46 913 69 968 b 249 1061 153 1043 197 1061 b 389 1006 303 1061 354 1039 b 456 856 432 968 456 913 m 119 1264 b 240 1238 147 1204 193 1206 b 418 1196 299 1278 376 1278 l 383 1175 b 260 1199 353 1231 304 1229 b 83 1242 201 1160 122 1161 "},"ö":{"ha":686,"x_min":0,"x_max":0,"o":"m 338 953 b 249 985 314 975 281 985 b 158 953 215 985 185 975 b 115 856 131 926 115 893 l 115 247 b 158 150 115 210 131 176 b 249 118 185 128 215 118 b 338 150 281 118 314 128 b 386 247 371 176 386 210 l 386 856 b 338 953 386 893 371 926 m 335 247 b 307 186 335 222 325 201 b 249 165 290 171 269 165 b 189 186 226 165 206 171 b 161 247 171 201 161 222 l 161 856 b 189 917 161 881 171 901 b 249 938 206 932 226 938 b 307 917 269 938 290 932 b 335 856 325 901 335 881 m 419 1042 b 249 1108 375 1090 308 1108 b 82 1042 182 1108 125 1086 b 0 856 31 996 0 926 l 0 247 b 82 61 0 176 31 107 b 249 0 131 18 188 0 b 419 61 314 0 375 22 b 501 247 471 107 501 176 l 501 856 b 419 1042 501 926 471 996 m 456 247 b 389 97 456 190 432 135 b 249 47 350 60 297 47 b 113 97 192 47 147 64 b 46 247 69 135 46 190 l 46 856 b 113 1006 46 913 69 968 b 249 1061 153 1043 197 1061 b 389 1006 303 1061 354 1039 b 456 856 432 968 456 913 m 367 1242 b 410 1200 390 1242 410 1224 b 367 1158 410 1176 390 1158 b 325 1200 344 1158 325 1176 b 367 1242 325 1224 344 1242 m 136 1242 b 178 1200 158 1242 178 1224 b 136 1158 178 1176 158 1158 b 94 1200 113 1158 94 1176 b 136 1242 94 1224 113 1242 "},"Ù":{"ha":694,"x_min":0,"x_max":0,"o":"m 151 160 b 247 118 178 132 210 118 b 343 160 285 118 319 133 b 378 246 364 183 378 214 l 378 263 l 378 538 l 378 1110 l 331 1110 l 331 538 l 331 263 l 331 247 b 308 192 326 225 324 207 b 247 165 293 174 272 165 b 186 192 222 165 201 174 b 165 247 172 210 165 228 l 165 263 l 165 538 l 165 1110 l 118 1110 l 118 538 l 118 263 l 118 246 b 151 160 119 211 131 182 m 449 1110 l 449 538 l 449 263 l 449 244 b 396 113 444 193 428 149 b 247 47 358 69 303 47 b 99 113 192 47 136 69 b 47 244 67 150 47 196 l 47 263 l 47 538 l 47 1110 l 0 1110 l 0 538 l 0 263 l 0 244 b 13 168 1 213 6 190 b 64 81 24 136 40 107 b 247 0 110 29 179 0 b 431 81 315 0 385 29 b 496 244 474 126 496 188 l 496 263 l 496 538 l 496 1110 m 301 1185 l 243 1185 l 126 1296 l 126 1303 l 194 1303 l 301 1188 "},"Ú":{"ha":694,"x_min":0,"x_max":0,"o":"m 151 160 b 118 246 131 182 119 211 l 118 263 l 118 538 l 118 1110 l 165 1110 l 165 538 l 165 263 l 165 247 b 186 192 165 228 172 210 b 247 165 201 174 222 165 b 308 192 272 165 293 174 b 331 247 324 207 326 225 l 331 263 l 331 538 l 331 1110 l 378 1110 l 378 538 l 378 263 l 378 246 b 343 160 378 214 364 183 b 247 118 319 133 285 118 b 151 160 210 118 178 132 m 496 1110 l 496 538 l 496 263 l 496 244 b 431 81 496 188 474 126 b 247 0 385 29 315 0 b 64 81 179 0 110 29 b 13 168 40 107 24 136 b 0 244 6 190 1 213 l 0 263 l 0 538 l 0 1110 l 47 1110 l 47 538 l 47 263 l 47 244 b 99 113 47 196 67 150 b 247 47 136 69 192 47 b 396 113 303 47 358 69 b 449 244 428 149 444 193 l 449 263 l 449 538 l 449 1110 m 193 1186 l 300 1301 l 368 1301 l 368 1294 l 251 1183 l 193 1183 "},"Û":{"ha":694,"x_min":0,"x_max":0,"o":"m 151 160 b 118 246 131 182 119 211 l 118 263 l 118 538 l 118 1110 l 165 1110 l 165 538 l 165 263 l 165 247 b 186 192 165 228 172 210 b 247 165 201 174 222 165 b 308 192 272 165 293 174 b 331 247 324 207 326 225 l 331 263 l 331 538 l 331 1110 l 378 1110 l 378 538 l 378 263 l 378 246 b 343 160 378 214 364 183 b 247 118 319 133 285 118 b 151 160 210 118 178 132 m 496 1110 l 496 538 l 496 263 l 496 244 b 431 81 496 188 474 126 b 247 0 385 29 315 0 b 64 81 179 0 110 29 b 13 168 40 107 24 136 b 0 244 6 190 1 213 l 0 263 l 0 538 l 0 1110 l 47 1110 l 47 538 l 47 263 l 47 244 b 99 113 47 196 67 150 b 247 47 136 69 192 47 b 396 113 303 47 358 69 b 449 244 428 149 444 193 l 449 263 l 449 538 l 449 1110 m 247 1272 l 138 1175 l 75 1175 l 75 1182 l 218 1310 l 274 1310 l 426 1175 l 357 1175 "},"Ü":{"ha":694,"x_min":0,"x_max":0,"o":"m 151 160 b 247 118 178 132 210 118 b 343 160 285 118 319 133 b 378 246 364 183 378 214 l 378 263 l 378 538 l 378 1110 l 331 1110 l 331 538 l 331 263 l 331 247 b 308 192 326 225 324 207 b 247 165 293 174 272 165 b 186 192 222 165 201 174 b 165 247 172 210 165 228 l 165 263 l 165 538 l 165 1110 l 118 1110 l 118 538 l 118 263 l 118 246 b 151 160 119 211 131 182 m 449 1110 l 449 538 l 449 263 l 449 244 b 396 113 444 193 428 149 b 247 47 358 69 303 47 b 99 113 192 47 136 69 b 47 244 67 150 47 196 l 47 263 l 47 538 l 47 1110 l 0 1110 l 0 538 l 0 263 l 0 244 b 13 168 1 213 6 190 b 64 81 24 136 40 107 b 247 0 110 29 179 0 b 431 81 315 0 385 29 b 496 244 474 126 496 188 l 496 263 l 496 538 l 496 1110 m 369 1268 b 413 1226 393 1268 413 1250 b 369 1185 413 1203 393 1185 b 328 1226 347 1185 328 1203 b 369 1268 328 1250 347 1268 m 139 1268 b 181 1226 161 1268 181 1250 b 139 1185 181 1203 161 1185 b 97 1226 115 1185 97 1203 b 139 1268 97 1250 115 1268 "},"ù":{"ha":694,"x_min":0,"x_max":0,"o":"m 151 160 b 247 118 178 132 210 118 b 343 160 285 118 319 133 b 378 246 364 183 378 214 l 378 263 l 378 538 l 378 1110 l 331 1110 l 331 538 l 331 263 l 331 247 b 308 192 326 225 324 207 b 247 165 293 174 272 165 b 186 192 222 165 201 174 b 165 247 172 210 165 228 l 165 263 l 165 538 l 165 1110 l 118 1110 l 118 538 l 118 263 l 118 246 b 151 160 119 211 131 182 m 449 1110 l 449 538 l 449 263 l 449 244 b 396 113 444 193 428 149 b 247 47 358 69 303 47 b 99 113 192 47 136 69 b 47 244 67 150 47 196 l 47 263 l 47 538 l 47 1110 l 0 1110 l 0 538 l 0 263 l 0 244 b 13 168 1 213 6 190 b 64 81 24 136 40 107 b 247 0 110 29 179 0 b 431 81 315 0 385 29 b 496 244 474 126 496 188 l 496 263 l 496 538 l 496 1110 m 301 1185 l 243 1185 l 126 1296 l 126 1303 l 194 1303 l 301 1188 "},"ú":{"ha":694,"x_min":0,"x_max":0,"o":"m 151 160 b 118 246 131 182 119 211 l 118 263 l 118 538 l 118 1110 l 165 1110 l 165 538 l 165 263 l 165 247 b 186 192 165 228 172 210 b 247 165 201 174 222 165 b 308 192 272 165 293 174 b 331 247 324 207 326 225 l 331 263 l 331 538 l 331 1110 l 378 1110 l 378 538 l 378 263 l 378 246 b 343 160 378 214 364 183 b 247 118 319 133 285 118 b 151 160 210 118 178 132 m 496 1110 l 496 538 l 496 263 l 496 244 b 431 81 496 188 474 126 b 247 0 385 29 315 0 b 64 81 179 0 110 29 b 13 168 40 107 24 136 b 0 244 6 190 1 213 l 0 263 l 0 538 l 0 1110 l 47 1110 l 47 538 l 47 263 l 47 244 b 99 113 47 196 67 150 b 247 47 136 69 192 47 b 396 113 303 47 358 69 b 449 244 428 149 444 193 l 449 263 l 449 538 l 449 1110 m 193 1186 l 300 1301 l 368 1301 l 368 1294 l 251 1183 l 193 1183 "},"û":{"ha":694,"x_min":0,"x_max":0,"o":"m 151 160 b 118 246 131 182 119 211 l 118 263 l 118 538 l 118 1110 l 165 1110 l 165 538 l 165 263 l 165 247 b 186 192 165 228 172 210 b 247 165 201 174 222 165 b 308 192 272 165 293 174 b 331 247 324 207 326 225 l 331 263 l 331 538 l 331 1110 l 378 1110 l 378 538 l 378 263 l 378 246 b 343 160 378 214 364 183 b 247 118 319 133 285 118 b 151 160 210 118 178 132 m 496 1110 l 496 538 l 496 263 l 496 244 b 431 81 496 188 474 126 b 247 0 385 29 315 0 b 64 81 179 0 110 29 b 13 168 40 107 24 136 b 0 244 6 190 1 213 l 0 263 l 0 538 l 0 1110 l 47 1110 l 47 538 l 47 263 l 47 244 b 99 113 47 196 67 150 b 247 47 136 69 192 47 b 396 113 303 47 358 69 b 449 244 428 149 444 193 l 449 263 l 449 538 l 449 1110 m 247 1272 l 138 1175 l 75 1175 l 75 1182 l 218 1310 l 274 1310 l 426 1175 l 357 1175 "},"ü":{"ha":694,"x_min":0,"x_max":0,"o":"m 151 160 b 247 118 178 132 210 118 b 343 160 285 118 319 133 b 378 246 364 183 378 214 l 378 263 l 378 538 l 378 1110 l 331 1110 l 331 538 l 331 263 l 331 247 b 308 192 326 225 324 207 b 247 165 293 174 272 165 b 186 192 222 165 201 174 b 165 247 172 210 165 228 l 165 263 l 165 538 l 165 1110 l 118 1110 l 118 538 l 118 263 l 118 246 b 151 160 119 211 131 182 m 449 1110 l 449 538 l 449 263 l 449 244 b 396 113 444 193 428 149 b 247 47 358 69 303 47 b 99 113 192 47 136 69 b 47 244 67 150 47 196 l 47 263 l 47 538 l 47 1110 l 0 1110 l 0 538 l 0 263 l 0 244 b 13 168 1 213 6 190 b 64 81 24 136 40 107 b 247 0 110 29 179 0 b 431 81 315 0 385 29 b 496 244 474 126 496 188 l 496 263 l 496 538 l 496 1110 m 369 1268 b 413 1226 393 1268 413 1250 b 369 1185 413 1203 393 1185 b 328 1226 347 1185 328 1203 b 369 1268 328 1250 347 1268 m 139 1268 b 181 1226 161 1268 181 1250 b 139 1185 181 1203 161 1185 b 97 1226 115 1185 97 1203 b 139 1268 97 1250 115 1268 "},"Ý":{"ha":550,"x_min":0,"x_max":0,"o":"m 425 1110 b 260 543 419 1088 410 1065 l 260 421 l 260 0 l 213 0 l 213 443 l 213 550 l 213 560 l 178 683 l 142 560 l 142 550 l 142 386 l 142 0 l 94 0 l 94 476 l 94 543 l 92 554 l -47 1029 l -69 1110 l -21 1110 l -1 1042 l 115 640 l 153 779 l 53 1110 l 110 1110 l 119 1074 l 178 865 l 239 1089 l 244 1110 l 294 1110 b 201 779 290 1099 286 1088 l 239 640 b 376 1110 367 1074 369 1090 m 128 1181 l 235 1296 l 303 1296 l 303 1289 l 186 1178 l 128 1178 "},"ý":{"ha":550,"x_min":0,"x_max":0,"o":"m 425 1110 b 260 543 419 1088 410 1065 l 260 421 l 260 0 l 213 0 l 213 443 l 213 550 l 213 560 l 178 683 l 142 560 l 142 550 l 142 386 l 142 0 l 94 0 l 94 476 l 94 543 l 92 554 l -47 1029 l -69 1110 l -21 1110 l -1 1042 l 115 640 l 153 779 l 53 1110 l 110 1110 l 119 1074 l 178 865 l 239 1089 l 244 1110 l 294 1110 b 201 779 290 1099 286 1088 l 239 640 b 376 1110 367 1074 369 1090 m 124 1168 l 231 1283 l 299 1283 l 299 1276 l 182 1165 l 124 1165 "},"ÿ":{"ha":550,"x_min":0,"x_max":0,"o":"m 376 1110 b 239 640 369 1090 367 1074 l 201 779 b 294 1110 286 1088 290 1099 l 244 1110 l 239 1089 l 178 865 l 119 1074 l 110 1110 l 53 1110 l 153 779 l 115 640 l -1 1042 l -21 1110 l -69 1110 l -47 1029 l 92 554 l 94 543 l 94 476 l 94 0 l 142 0 l 142 386 l 142 550 l 142 560 l 178 683 l 213 560 l 213 550 l 213 443 l 213 0 l 260 0 l 260 421 l 260 543 b 425 1110 410 1065 419 1088 m 293 1258 b 336 1217 317 1258 336 1240 b 293 1175 336 1193 317 1175 b 251 1217 271 1175 251 1193 b 293 1258 251 1240 271 1258 m 63 1258 b 104 1217 85 1258 104 1240 b 63 1175 104 1193 85 1175 b 21 1217 39 1175 21 1193 b 63 1258 21 1240 39 1258 "},"Ā":{"ha":710,"x_min":0,"x_max":0,"o":"m 217 1106 b 521 849 372 1132 521 1011 l 521 0 l 471 0 l 471 849 b 260 1060 471 964 375 1060 b 50 849 144 1060 50 964 l 50 449 l 125 406 l 125 849 b 260 985 125 921 186 985 b 396 849 335 985 396 921 l 396 336 b 175 463 322 379 249 419 l 175 376 b 396 250 249 333 322 293 l 396 0 l 346 0 l 346 221 l 175 319 l 175 0 l 125 0 l 125 347 l 50 390 l 50 0 l 0 0 l 0 621 l 0 849 b 217 1106 0 975 94 1083 m 175 521 l 346 424 l 346 849 b 260 935 346 897 308 935 b 175 849 214 935 175 897 m 135 1229 l 383 1229 l 383 1186 l 135 1186 "},"ā":{"ha":710,"x_min":0,"x_max":0,"o":"m 217 1106 b 521 849 372 1132 521 1011 l 521 0 l 471 0 l 471 849 b 260 1060 471 964 375 1060 b 50 849 144 1060 50 964 l 50 449 l 125 406 l 125 849 b 260 985 125 921 186 985 b 396 849 335 985 396 921 l 396 336 b 175 463 322 379 249 419 l 175 376 b 396 250 249 333 322 293 l 396 0 l 346 0 l 346 221 l 175 319 l 175 0 l 125 0 l 125 347 l 50 390 l 50 0 l 0 0 l 0 621 l 0 849 b 217 1106 0 975 94 1083 m 175 521 l 346 424 l 346 849 b 260 935 346 897 308 935 b 175 849 214 935 175 897 m 135 1219 l 383 1219 l 383 1176 l 135 1176 "},"Ă":{"ha":710,"x_min":0,"x_max":0,"o":"m 217 1106 b 0 849 94 1083 0 975 l 0 621 l 0 0 l 50 0 l 50 390 l 125 347 l 125 0 l 175 0 l 175 319 l 346 221 l 346 0 l 396 0 l 396 250 b 175 376 322 293 249 333 l 175 463 b 396 336 249 419 322 379 l 396 849 b 260 985 396 921 335 985 b 125 849 186 985 125 921 l 125 406 l 50 449 l 50 849 b 260 1060 50 964 144 1060 b 471 849 375 1060 471 964 l 471 0 l 521 0 l 521 849 b 217 1106 521 1011 372 1132 m 175 849 b 260 935 175 897 214 935 b 346 849 308 935 346 897 l 346 424 l 175 521 m 158 1286 b 347 1286 158 1175 347 1175 l 397 1286 b 113 1286 397 1118 113 1117 "},"ă":{"ha":710,"x_min":0,"x_max":0,"o":"m 217 1106 b 0 849 94 1083 0 975 l 0 621 l 0 0 l 50 0 l 50 390 l 125 347 l 125 0 l 175 0 l 175 319 l 346 221 l 346 0 l 396 0 l 396 250 b 175 376 322 293 249 333 l 175 463 b 396 336 249 419 322 379 l 396 849 b 260 985 396 921 335 985 b 125 849 186 985 125 921 l 125 406 l 50 449 l 50 849 b 260 1060 50 964 144 1060 b 471 849 375 1060 471 964 l 471 0 l 521 0 l 521 849 b 217 1106 521 1011 372 1132 m 175 849 b 260 935 175 897 214 935 b 346 849 308 935 346 897 l 346 424 l 175 521 m 158 1286 b 347 1286 158 1175 347 1175 l 397 1286 b 113 1286 397 1118 113 1117 "},"Ą":{"ha":710,"x_min":0,"x_max":0,"o":"m 175 521 l 346 424 l 346 849 b 260 935 346 897 308 935 b 175 849 214 935 175 897 m 217 1106 b 521 849 372 1132 521 1011 l 521 0 b 563 -179 428 -17 426 -190 l 563 -224 b 471 15 396 -232 372 -40 l 471 849 b 260 1060 471 964 375 1060 b 50 849 144 1060 50 964 l 50 449 l 125 406 l 125 849 b 260 985 125 921 186 985 b 396 849 335 985 396 921 l 396 336 b 175 463 322 379 249 419 l 175 376 b 396 250 249 333 322 293 l 396 0 l 346 0 l 346 221 l 175 319 l 175 0 l 125 0 l 125 347 l 50 390 l 50 0 l 0 0 l 0 849 b 217 1106 0 975 94 1083 "},"ą":{"ha":710,"x_min":0,"x_max":0,"o":"m 175 521 l 346 424 l 346 849 b 260 935 346 897 308 935 b 175 849 214 935 175 897 m 217 1106 b 521 849 372 1132 521 1011 l 521 0 b 563 -179 428 -17 426 -190 l 563 -224 b 471 15 396 -232 372 -40 l 471 849 b 260 1060 471 964 375 1060 b 50 849 144 1060 50 964 l 50 449 l 125 406 l 125 849 b 260 985 125 921 186 985 b 396 849 335 985 396 921 l 396 336 b 175 463 322 379 249 419 l 175 376 b 396 250 249 333 322 293 l 396 0 l 346 0 l 346 221 l 175 319 l 175 0 l 125 0 l 125 347 l 50 390 l 50 0 l 0 0 l 0 849 b 217 1106 0 975 94 1083 "},"Ć":{"ha":565,"x_min":0,"x_max":0,"o":"m 419 1058 b 242 1011 357 1060 296 1043 b 107 890 188 979 144 939 b 1 556 35 792 1 674 b 107 221 1 438 35 319 b 242 100 144 172 188 129 b 419 51 296 68 357 51 l 419 1 b 217 56 349 1 278 22 b 67 190 157 90 106 136 b -49 556 -12 300 -49 428 b 67 919 -49 683 -12 813 b 217 1056 107 975 157 1021 b 419 1108 278 1089 349 1110 m 419 933 b 303 903 376 933 338 924 b 207 817 265 881 233 851 b 126 556 153 744 126 650 b 207 294 126 461 153 367 b 303 208 233 260 265 231 b 419 176 340 188 379 176 l 419 126 b 278 165 371 126 324 139 b 167 265 236 189 199 222 b 76 556 107 349 76 450 b 167 846 76 661 107 763 b 278 946 199 889 236 922 b 419 983 322 972 371 985 m 221 1167 l 328 1282 l 396 1282 l 396 1275 l 279 1164 l 221 1164 "},"ć":{"ha":565,"x_min":0,"x_max":0,"o":"m 419 1058 b 242 1011 357 1060 296 1043 b 107 890 188 979 144 939 b 1 556 35 792 1 674 b 107 221 1 438 35 319 b 242 100 144 172 188 129 b 419 51 296 68 357 51 l 419 1 b 217 56 349 1 278 22 b 67 190 157 90 106 136 b -49 556 -12 300 -49 428 b 67 919 -49 683 -12 813 b 217 1056 107 975 157 1021 b 419 1108 278 1089 349 1110 m 419 933 b 303 903 376 933 338 924 b 207 817 265 881 233 851 b 126 556 153 744 126 650 b 207 294 126 461 153 367 b 303 208 233 260 265 231 b 419 176 340 188 379 176 l 419 126 b 278 165 371 126 324 139 b 167 265 236 189 199 222 b 76 556 107 349 76 450 b 167 846 76 661 107 763 b 278 946 199 889 236 922 b 419 983 322 972 371 985 m 221 1167 l 328 1282 l 396 1282 l 396 1275 l 279 1164 l 221 1164 "},"Ĉ":{"ha":565,"x_min":0,"x_max":0,"o":"m 419 1058 b 242 1011 357 1060 296 1043 b 107 890 188 979 144 939 b 1 556 35 792 1 674 b 107 221 1 438 35 319 b 242 100 144 172 188 129 b 419 51 296 68 357 51 l 419 1 b 217 56 349 1 278 22 b 67 190 157 90 106 136 b -49 556 -12 300 -49 428 b 67 919 -49 683 -12 813 b 217 1056 107 975 157 1021 b 419 1108 278 1089 349 1110 m 419 933 b 303 903 376 933 338 924 b 207 817 265 881 233 851 b 126 556 153 744 126 650 b 207 294 126 461 153 367 b 303 208 233 260 265 231 b 419 176 340 188 379 176 l 419 126 b 278 165 371 126 324 139 b 167 265 236 189 199 222 b 76 556 107 349 76 450 b 167 846 76 661 107 763 b 278 946 199 889 236 922 b 419 983 322 972 371 985 m 264 1263 l 154 1165 l 92 1165 l 92 1172 l 235 1300 l 290 1300 l 443 1165 l 374 1165 "},"ĉ":{"ha":565,"x_min":0,"x_max":0,"o":"m 419 1058 b 242 1011 357 1060 296 1043 b 107 890 188 979 144 939 b 1 556 35 792 1 674 b 107 221 1 438 35 319 b 242 100 144 172 188 129 b 419 51 296 68 357 51 l 419 1 b 217 56 349 1 278 22 b 67 190 157 90 106 136 b -49 556 -12 300 -49 428 b 67 919 -49 683 -12 813 b 217 1056 107 975 157 1021 b 419 1108 278 1089 349 1110 m 419 933 b 303 903 376 933 338 924 b 207 817 265 881 233 851 b 126 556 153 744 126 650 b 207 294 126 461 153 367 b 303 208 233 260 265 231 b 419 176 340 188 379 176 l 419 126 b 278 165 371 126 324 139 b 167 265 236 189 199 222 b 76 556 107 349 76 450 b 167 846 76 661 107 763 b 278 946 199 889 236 922 b 419 983 322 972 371 985 m 264 1263 l 154 1165 l 92 1165 l 92 1172 l 235 1300 l 290 1300 l 443 1165 l 374 1165 "},"Ċ":{"ha":565,"x_min":0,"x_max":0,"o":"m 296 1246 b 339 1204 319 1246 339 1228 b 296 1163 339 1181 319 1163 b 254 1204 274 1163 254 1181 b 296 1246 254 1228 274 1246 m 419 1108 b 217 1056 349 1110 278 1089 b 67 919 157 1021 107 975 b -49 556 -12 813 -49 683 b 67 190 -49 428 -12 300 b 217 56 106 136 157 90 b 419 1 278 22 349 1 l 419 51 b 242 100 357 51 296 68 b 107 221 188 129 144 172 b 1 556 35 319 1 438 b 107 890 1 674 35 792 b 242 1011 144 939 188 979 b 419 1058 296 1043 357 1060 l 419 1108 m 419 983 b 278 946 371 985 322 972 b 167 846 236 922 199 889 b 76 556 107 763 76 661 b 167 265 76 450 107 349 b 278 165 199 222 236 189 b 419 126 324 139 371 126 l 419 176 b 303 208 379 176 340 188 b 207 294 265 231 233 260 b 126 556 153 367 126 461 b 207 817 126 650 153 744 b 303 903 233 851 265 881 b 419 933 338 924 376 933 l 419 983 "},"ċ":{"ha":565,"x_min":0,"x_max":0,"o":"m 296 1246 b 339 1204 319 1246 339 1228 b 296 1163 339 1181 319 1163 b 254 1204 274 1163 254 1181 b 296 1246 254 1228 274 1246 m 419 1108 b 217 1056 349 1110 278 1089 b 67 919 157 1021 107 975 b -49 556 -12 813 -49 683 b 67 190 -49 428 -12 300 b 217 56 106 136 157 90 b 419 1 278 22 349 1 l 419 51 b 242 100 357 51 296 68 b 107 221 188 129 144 172 b 1 556 35 319 1 438 b 107 890 1 674 35 792 b 242 1011 144 939 188 979 b 419 1058 296 1043 357 1060 l 419 1108 m 419 983 b 278 946 371 985 322 972 b 167 846 236 922 199 889 b 76 556 107 763 76 661 b 167 265 76 450 107 349 b 278 165 199 222 236 189 b 419 126 324 139 371 126 l 419 176 b 303 208 379 176 340 188 b 207 294 265 231 233 260 b 126 556 153 367 126 461 b 207 817 126 650 153 744 b 303 903 233 851 265 881 b 419 933 338 924 376 933 l 419 983 "},"Č":{"ha":565,"x_min":0,"x_max":0,"o":"m 419 1058 b 242 1011 357 1060 296 1043 b 107 890 188 979 144 939 b 1 556 35 792 1 674 b 107 221 1 438 35 319 b 242 100 144 172 188 129 b 419 51 296 68 357 51 l 419 1 b 217 56 349 1 278 22 b 67 190 157 90 106 136 b -49 556 -12 300 -49 428 b 67 919 -49 683 -12 813 b 217 1056 107 975 157 1021 b 419 1108 278 1089 349 1110 m 419 933 b 303 903 376 933 338 924 b 207 817 265 881 233 851 b 126 556 153 744 126 650 b 207 294 126 461 153 367 b 303 208 233 260 265 231 b 419 176 340 188 379 176 l 419 126 b 278 165 371 126 324 139 b 167 265 236 189 199 222 b 76 556 107 349 76 450 b 167 846 76 661 107 763 b 278 946 199 889 236 922 b 419 983 322 972 371 985 m 283 1203 l 393 1300 l 456 1300 l 456 1293 l 313 1165 l 257 1165 l 104 1300 l 174 1300 "},"č":{"ha":565,"x_min":0,"x_max":0,"o":"m 419 1058 b 242 1011 357 1060 296 1043 b 107 890 188 979 144 939 b 1 556 35 792 1 674 b 107 221 1 438 35 319 b 242 100 144 172 188 129 b 419 51 296 68 357 51 l 419 1 b 217 56 349 1 278 22 b 67 190 157 90 106 136 b -49 556 -12 300 -49 428 b 67 919 -49 683 -12 813 b 217 1056 107 975 157 1021 b 419 1108 278 1089 349 1110 m 419 933 b 303 903 376 933 338 924 b 207 817 265 881 233 851 b 126 556 153 744 126 650 b 207 294 126 461 153 367 b 303 208 233 260 265 231 b 419 176 340 188 379 176 l 419 126 b 278 165 371 126 324 139 b 167 265 236 189 199 222 b 76 556 107 349 76 450 b 167 846 76 661 107 763 b 278 946 199 889 236 922 b 419 983 322 972 371 985 m 283 1203 l 393 1300 l 456 1300 l 456 1293 l 313 1165 l 257 1165 l 104 1300 l 174 1300 "},"Ď":{"ha":618,"x_min":0,"x_max":0,"o":"m 353 922 b 468 533 431 815 468 661 b 353 168 468 406 431 278 b 175 19 307 108 246 51 b 125 0 160 13 143 6 l 125 135 b 0 104 90 117 49 106 l 0 154 l 0 1110 b 125 1090 43 1110 82 1103 b 353 922 214 1064 290 1004 m 175 231 b 211 272 190 243 200 257 b 293 533 265 344 293 439 b 211 818 293 628 265 744 b 175 860 200 833 190 847 m 313 199 b 418 533 383 297 418 415 b 313 892 418 651 385 793 b 125 1038 267 954 203 1008 b 50 1057 101 1047 76 1053 l 50 161 b 125 192 76 165 101 176 l 125 956 b 175 925 131 951 164 935 b 251 847 206 901 231 876 b 343 533 313 764 343 639 b 251 243 343 428 313 326 b 175 165 231 214 206 189 l 175 76 b 313 199 199 76 288 167 m 114 1204 l 224 1301 l 286 1301 l 286 1294 l 143 1167 l 88 1167 l -65 1301 l 4 1301 "},"ď":{"ha":618,"x_min":0,"x_max":0,"o":"m 353 922 b 468 533 431 815 468 661 b 353 168 468 406 431 278 b 175 19 307 108 246 51 b 125 0 160 13 143 6 l 125 135 b 0 104 90 117 49 106 l 0 154 l 0 1110 b 125 1090 43 1110 82 1103 b 353 922 214 1064 290 1004 m 175 231 b 211 272 190 243 200 257 b 293 533 265 344 293 439 b 211 818 293 628 265 744 b 175 860 200 833 190 847 m 313 199 b 418 533 383 297 418 415 b 313 892 418 651 385 793 b 125 1038 267 954 203 1008 b 50 1057 101 1047 76 1053 l 50 161 b 125 192 76 165 101 176 l 125 956 b 175 925 131 951 164 935 b 251 847 206 901 231 876 b 343 533 313 764 343 639 b 251 243 343 428 313 326 b 175 165 231 214 206 189 l 175 76 b 313 199 199 76 288 167 m 114 1204 l 224 1301 l 286 1301 l 286 1294 l 143 1167 l 88 1167 l -65 1301 l 4 1301 "},"Đ":{"ha":618,"x_min":0,"x_max":0,"o":"m 353 922 b 468 533 431 815 468 661 b 353 168 468 406 431 278 b 175 19 307 108 246 51 b 125 0 160 13 143 6 l 125 135 b 0 104 90 117 49 106 l 0 507 l -62 507 l -62 546 l 0 546 l 0 1110 b 125 1090 43 1110 82 1103 b 353 922 214 1064 290 1004 m 313 199 b 418 533 383 297 418 415 b 313 892 418 651 385 793 b 125 1038 267 954 203 1008 b 50 1057 101 1047 76 1053 l 50 546 l 125 546 l 125 956 b 175 925 131 951 164 935 b 251 847 206 901 231 876 b 343 533 313 764 343 639 b 251 243 343 428 313 326 b 175 165 231 214 206 189 l 175 76 b 313 199 199 76 288 167 m 243 546 l 243 507 l 175 507 l 175 231 b 211 272 190 243 200 257 b 293 533 265 344 293 439 b 211 818 293 628 265 744 b 175 860 200 833 190 847 l 175 546 m 125 507 l 50 507 l 50 161 b 125 192 76 165 101 176 "},"đ":{"ha":618,"x_min":0,"x_max":0,"o":"m 353 922 b 468 533 431 815 468 661 b 353 168 468 406 431 278 b 175 19 307 108 246 51 b 125 0 160 13 143 6 l 125 135 b 0 104 90 117 49 106 l 0 507 l -62 507 l -62 546 l 0 546 l 0 1110 b 125 1090 43 1110 82 1103 b 353 922 214 1064 290 1004 m 313 199 b 418 533 383 297 418 415 b 313 892 418 651 385 793 b 125 1038 267 954 203 1008 b 50 1057 101 1047 76 1053 l 50 546 l 125 546 l 125 956 b 175 925 131 951 164 935 b 251 847 206 901 231 876 b 343 533 313 764 343 639 b 251 243 343 428 313 326 b 175 165 231 214 206 189 l 175 76 b 313 199 199 76 288 167 m 243 546 l 243 507 l 175 507 l 175 231 b 211 272 190 243 200 257 b 293 533 265 344 293 439 b 211 818 293 628 265 744 b 175 860 200 833 190 847 l 175 546 m 125 507 l 50 507 l 50 161 b 125 192 76 165 101 176 "},"Ē":{"ha":621,"x_min":0,"x_max":0,"o":"m 49 1061 l 49 638 l 122 638 l 122 988 l 435 988 l 435 938 l 172 938 l 172 638 l 435 638 l 435 589 l 49 589 l 49 172 l 122 172 l 122 515 l 435 515 l 435 467 l 172 467 l 172 172 l 435 172 l 435 122 l 172 122 l 172 49 l 435 49 l 435 0 l 0 0 l 0 49 l 0 1110 l 435 1110 l 435 1061 m 122 49 l 122 122 l 49 122 l 49 49 m 85 1229 l 333 1229 l 333 1186 l 85 1186 "},"ē":{"ha":621,"x_min":0,"x_max":0,"o":"m 49 1061 l 49 638 l 122 638 l 122 988 l 435 988 l 435 938 l 172 938 l 172 638 l 435 638 l 435 589 l 49 589 l 49 172 l 122 172 l 122 515 l 435 515 l 435 467 l 172 467 l 172 172 l 435 172 l 435 122 l 172 122 l 172 49 l 435 49 l 435 0 l 0 0 l 0 49 l 0 1110 l 435 1110 l 435 1061 m 122 49 l 122 122 l 49 122 l 49 49 m 85 1229 l 333 1229 l 333 1186 l 85 1186 "},"Ĕ":{"ha":621,"x_min":0,"x_max":0,"o":"m 435 1061 l 435 1110 l 0 1110 l 0 49 l 0 0 l 435 0 l 435 49 l 172 49 l 172 122 l 435 122 l 435 172 l 172 172 l 172 467 l 435 467 l 435 515 l 122 515 l 122 172 l 49 172 l 49 589 l 435 589 l 435 638 l 172 638 l 172 938 l 435 938 l 435 988 l 122 988 l 122 638 l 49 638 l 49 1061 m 49 49 l 49 122 l 122 122 l 122 49 m 121 1297 b 310 1297 121 1186 310 1186 l 360 1297 b 75 1297 360 1129 75 1128 "},"ĕ":{"ha":621,"x_min":0,"x_max":0,"o":"m 435 1061 l 435 1110 l 0 1110 l 0 49 l 0 0 l 435 0 l 435 49 l 172 49 l 172 122 l 435 122 l 435 172 l 172 172 l 172 467 l 435 467 l 435 515 l 122 515 l 122 172 l 49 172 l 49 589 l 435 589 l 435 638 l 172 638 l 172 938 l 435 938 l 435 988 l 122 988 l 122 638 l 49 638 l 49 1061 m 49 49 l 49 122 l 122 122 l 122 49 m 121 1297 b 310 1297 121 1186 310 1186 l 360 1297 b 75 1297 360 1129 75 1128 "},"Ė":{"ha":621,"x_min":0,"x_max":0,"o":"m 219 1260 b 263 1218 243 1260 263 1242 b 219 1176 263 1194 243 1176 b 178 1218 197 1176 178 1194 b 219 1260 178 1242 197 1260 m 435 1061 l 435 1110 l 0 1110 l 0 49 l 0 0 l 435 0 l 435 49 l 172 49 l 172 122 l 435 122 l 435 172 l 172 172 l 172 467 l 435 467 l 435 515 l 122 515 l 122 172 l 49 172 l 49 589 l 435 589 l 435 638 l 172 638 l 172 938 l 435 938 l 435 988 l 122 988 l 122 638 l 49 638 l 49 1061 m 49 49 l 49 122 l 122 122 l 122 49 "},"ė":{"ha":621,"x_min":0,"x_max":0,"o":"m 219 1260 b 263 1218 243 1260 263 1242 b 219 1176 263 1194 243 1176 b 178 1218 197 1176 178 1194 b 219 1260 178 1242 197 1260 m 435 1061 l 435 1110 l 0 1110 l 0 49 l 0 0 l 435 0 l 435 49 l 172 49 l 172 122 l 435 122 l 435 172 l 172 172 l 172 467 l 435 467 l 435 515 l 122 515 l 122 172 l 49 172 l 49 589 l 435 589 l 435 638 l 172 638 l 172 938 l 435 938 l 435 988 l 122 988 l 122 638 l 49 638 l 49 1061 m 49 49 l 49 122 l 122 122 l 122 49 "},"Ę":{"ha":621,"x_min":0,"x_max":0,"o":"m 122 49 l 122 122 l 49 122 l 49 49 m 49 1061 l 49 638 l 122 638 l 122 988 l 435 988 l 435 938 l 172 938 l 172 638 l 435 638 l 435 589 l 49 589 l 49 172 l 122 172 l 122 515 l 435 515 l 435 467 l 172 467 l 172 172 l 435 172 l 435 122 l 172 122 l 172 49 l 435 49 l 435 0 l 417 0 b 458 -179 324 -17 322 -190 l 458 -224 b 346 0 304 -231 272 -68 l 0 0 l 0 1110 l 435 1110 l 435 1061 "},"ę":{"ha":621,"x_min":0,"x_max":0,"o":"m 49 1061 l 49 638 l 122 638 l 122 988 l 435 988 l 435 938 l 172 938 l 172 638 l 435 638 l 435 589 l 49 589 l 49 172 l 122 172 l 122 515 l 435 515 l 435 467 l 172 467 l 172 172 l 435 172 l 435 122 l 172 122 l 172 49 l 435 49 l 435 0 l 0 0 l 0 49 l 0 1110 l 435 1110 l 435 1061 m 122 49 l 122 122 l 49 122 l 49 49 m 393 4 l 393 -11 b 435 -190 300 -28 299 -201 l 435 -235 b 343 4 268 -243 244 -51 "},"Ě":{"ha":621,"x_min":0,"x_max":0,"o":"m 49 1061 l 49 638 l 122 638 l 122 988 l 435 988 l 435 938 l 172 938 l 172 638 l 435 638 l 435 589 l 49 589 l 49 172 l 122 172 l 122 515 l 435 515 l 435 467 l 172 467 l 172 172 l 435 172 l 435 122 l 172 122 l 172 49 l 435 49 l 435 0 l 0 0 l 0 49 l 0 1110 l 435 1110 l 435 1061 m 122 49 l 122 122 l 49 122 l 49 49 m 224 1213 l 333 1310 l 396 1310 l 396 1303 l 253 1175 l 197 1175 l 44 1310 l 114 1310 "},"ě":{"ha":621,"x_min":0,"x_max":0,"o":"m 49 1061 l 49 638 l 122 638 l 122 988 l 435 988 l 435 938 l 172 938 l 172 638 l 435 638 l 435 589 l 49 589 l 49 172 l 122 172 l 122 515 l 435 515 l 435 467 l 172 467 l 172 172 l 435 172 l 435 122 l 172 122 l 172 49 l 435 49 l 435 0 l 0 0 l 0 49 l 0 1110 l 435 1110 l 435 1061 m 122 49 l 122 122 l 49 122 l 49 49 m 224 1213 l 333 1310 l 396 1310 l 396 1303 l 253 1175 l 197 1175 l 44 1310 l 114 1310 "},"Ĝ":{"ha":663,"x_min":0,"x_max":0,"o":"m 500 468 l 500 175 l 500 125 l 500 50 l 500 0 l 450 0 l 408 0 b 325 10 379 0 351 3 b 214 51 286 19 249 33 b 110 131 175 74 140 100 b -21 343 49 192 6 265 b -54 586 -49 422 -58 503 b 4 825 -51 669 -32 749 b 163 1022 39 901 92 968 b 279 1085 197 1049 236 1069 b 413 1107 322 1100 367 1107 l 413 1057 b 296 1038 374 1057 335 1050 b 192 982 257 1022 222 1004 b 49 803 129 933 82 874 b -6 583 17 733 -1 660 b 26 360 -10 507 0 432 b 146 165 53 288 90 221 b 325 61 194 117 254 79 l 325 139 b 199 218 276 154 236 183 b 97 385 153 264 118 322 b 117 771 54 508 61 650 b 238 922 146 833 186 883 b 413 982 288 960 350 982 l 413 932 b 267 882 361 932 313 915 b 163 750 224 847 189 804 b 144 400 111 644 106 513 b 233 254 165 344 194 293 b 325 193 263 225 293 206 l 325 468 l 375 468 l 375 181 b 417 176 379 179 399 178 b 450 175 426 175 438 175 l 450 468 m 450 125 b 417 126 438 126 426 126 b 375 128 399 126 381 126 l 375 51 b 417 50 381 51 399 50 l 450 50 m 300 1265 l 190 1168 l 128 1168 l 128 1175 l 271 1303 l 326 1303 l 479 1168 l 410 1168 "},"ĝ":{"ha":663,"x_min":0,"x_max":0,"o":"m 500 468 l 500 175 l 500 125 l 500 50 l 500 0 l 450 0 l 408 0 b 325 10 379 0 351 3 b 214 51 286 19 249 33 b 110 131 175 74 140 100 b -21 343 49 192 6 265 b -54 586 -49 422 -58 503 b 4 825 -51 669 -32 749 b 163 1022 39 901 92 968 b 279 1085 197 1049 236 1069 b 413 1107 322 1100 367 1107 l 413 1057 b 296 1038 374 1057 335 1050 b 192 982 257 1022 222 1004 b 49 803 129 933 82 874 b -6 583 17 733 -1 660 b 26 360 -10 507 0 432 b 146 165 53 288 90 221 b 325 61 194 117 254 79 l 325 139 b 199 218 276 154 236 183 b 97 385 153 264 118 322 b 117 771 54 508 61 650 b 238 922 146 833 186 883 b 413 982 288 960 350 982 l 413 932 b 267 882 361 932 313 915 b 163 750 224 847 189 804 b 144 400 111 644 106 513 b 233 254 165 344 194 293 b 325 193 263 225 293 206 l 325 468 l 375 468 l 375 181 b 417 176 379 179 399 178 b 450 175 426 175 438 175 l 450 468 m 450 125 b 417 126 438 126 426 126 b 375 128 399 126 381 126 l 375 51 b 417 50 381 51 399 50 l 450 50 m 300 1265 l 190 1168 l 128 1168 l 128 1175 l 271 1303 l 326 1303 l 479 1168 l 410 1168 "},"Ğ":{"ha":663,"x_min":0,"x_max":0,"o":"m 450 468 l 450 175 b 417 176 438 175 426 175 b 375 181 399 178 379 179 l 375 468 l 325 468 l 325 193 b 233 254 293 206 263 225 b 144 400 194 293 165 344 b 163 750 106 513 111 644 b 267 882 189 804 224 847 b 413 932 313 915 361 932 l 413 982 b 238 922 350 982 288 960 b 117 771 186 883 146 833 b 97 385 61 650 54 508 b 199 218 118 322 153 264 b 325 139 236 183 276 154 l 325 61 b 146 165 254 79 194 117 b 26 360 90 221 53 288 b -6 583 0 432 -10 507 b 49 803 -1 660 17 733 b 192 982 82 874 129 933 b 296 1038 222 1004 257 1022 b 413 1057 335 1050 374 1057 l 413 1107 b 279 1085 367 1107 322 1100 b 163 1022 236 1069 197 1049 b 4 825 92 968 39 901 b -54 586 -32 749 -51 669 b -21 343 -58 503 -49 422 b 110 131 6 265 49 192 b 214 51 140 100 175 74 b 325 10 249 33 286 19 b 408 0 351 3 379 0 l 450 0 l 500 0 l 500 50 l 500 125 l 500 175 l 500 468 m 450 50 l 417 50 b 375 51 399 50 381 51 l 375 128 b 417 126 381 126 399 126 b 450 125 426 126 438 126 m 193 1286 b 382 1286 193 1175 382 1175 l 432 1286 b 147 1286 432 1118 147 1117 "},"ğ":{"ha":663,"x_min":0,"x_max":0,"o":"m 450 468 l 450 175 b 417 176 438 175 426 175 b 375 181 399 178 379 179 l 375 468 l 325 468 l 325 193 b 233 254 293 206 263 225 b 144 400 194 293 165 344 b 163 750 106 513 111 644 b 267 882 189 804 224 847 b 413 932 313 915 361 932 l 413 982 b 238 922 350 982 288 960 b 117 771 186 883 146 833 b 97 385 61 650 54 508 b 199 218 118 322 153 264 b 325 139 236 183 276 154 l 325 61 b 146 165 254 79 194 117 b 26 360 90 221 53 288 b -6 583 0 432 -10 507 b 49 803 -1 660 17 733 b 192 982 82 874 129 933 b 296 1038 222 1004 257 1022 b 413 1057 335 1050 374 1057 l 413 1107 b 279 1085 367 1107 322 1100 b 163 1022 236 1069 197 1049 b 4 825 92 968 39 901 b -54 586 -32 749 -51 669 b -21 343 -58 503 -49 422 b 110 131 6 265 49 192 b 214 51 140 100 175 74 b 325 10 249 33 286 19 b 408 0 351 3 379 0 l 450 0 l 500 0 l 500 50 l 500 125 l 500 175 l 500 468 m 450 50 l 417 50 b 375 51 399 50 381 51 l 375 128 b 417 126 381 126 399 126 b 450 125 426 126 438 126 m 193 1286 b 382 1286 193 1175 382 1175 l 432 1286 b 147 1286 432 1118 147 1117 "},"Ġ":{"ha":663,"x_min":0,"x_max":0,"o":"m 303 1254 b 346 1213 326 1254 346 1236 b 303 1171 346 1189 326 1171 b 261 1213 281 1171 261 1189 b 303 1254 261 1236 281 1254 m 450 468 l 450 175 b 417 176 438 175 426 175 b 375 181 399 178 379 179 l 375 468 l 325 468 l 325 193 b 233 254 293 206 263 225 b 144 400 194 293 165 344 b 163 750 106 513 111 644 b 267 882 189 804 224 847 b 413 932 313 915 361 932 l 413 982 b 238 922 350 982 288 960 b 117 771 186 883 146 833 b 97 385 61 650 54 508 b 199 218 118 322 153 264 b 325 139 236 183 276 154 l 325 61 b 146 165 254 79 194 117 b 26 360 90 221 53 288 b -6 583 0 432 -10 507 b 49 803 -1 660 17 733 b 192 982 82 874 129 933 b 296 1038 222 1004 257 1022 b 413 1057 335 1050 374 1057 l 413 1107 b 279 1085 367 1107 322 1100 b 163 1022 236 1069 197 1049 b 4 825 92 968 39 901 b -54 586 -32 749 -51 669 b -21 343 -58 503 -49 422 b 110 131 6 265 49 192 b 214 51 140 100 175 74 b 325 10 249 33 286 19 b 408 0 351 3 379 0 l 450 0 l 500 0 l 500 50 l 500 125 l 500 175 l 500 468 m 450 50 l 417 50 b 375 51 399 50 381 51 l 375 128 b 417 126 381 126 399 126 b 450 125 426 126 438 126 "},"ġ":{"ha":663,"x_min":0,"x_max":0,"o":"m 303 1254 b 346 1213 326 1254 346 1236 b 303 1171 346 1189 326 1171 b 261 1213 281 1171 261 1189 b 303 1254 261 1236 281 1254 m 450 468 l 450 175 b 417 176 438 175 426 175 b 375 181 399 178 379 179 l 375 468 l 325 468 l 325 193 b 233 254 293 206 263 225 b 144 400 194 293 165 344 b 163 750 106 513 111 644 b 267 882 189 804 224 847 b 413 932 313 915 361 932 l 413 982 b 238 922 350 982 288 960 b 117 771 186 883 146 833 b 97 385 61 650 54 508 b 199 218 118 322 153 264 b 325 139 236 183 276 154 l 325 61 b 146 165 254 79 194 117 b 26 360 90 221 53 288 b -6 583 0 432 -10 507 b 49 803 -1 660 17 733 b 192 982 82 874 129 933 b 296 1038 222 1004 257 1022 b 413 1057 335 1050 374 1057 l 413 1107 b 279 1085 367 1107 322 1100 b 163 1022 236 1069 197 1049 b 4 825 92 968 39 901 b -54 586 -32 749 -51 669 b -21 343 -58 503 -49 422 b 110 131 6 265 49 192 b 214 51 140 100 175 74 b 325 10 249 33 286 19 b 408 0 351 3 379 0 l 450 0 l 500 0 l 500 50 l 500 125 l 500 175 l 500 468 m 450 50 l 417 50 b 375 51 399 50 381 51 l 375 128 b 417 126 381 126 399 126 b 450 125 426 126 438 126 "},"Ģ":{"ha":663,"x_min":0,"x_max":0,"o":"m 225 -224 l 225 -57 l 272 -57 l 272 -224 m 339 -301 l 339 -57 l 386 -57 l 386 -342 m 500 468 l 500 175 l 500 125 l 500 50 l 500 0 l 450 0 l 408 0 b 325 10 379 0 351 3 b 214 51 286 19 249 33 b 110 131 175 74 140 100 b -21 343 49 192 6 265 b -54 586 -49 422 -58 503 b 4 825 -51 669 -32 749 b 163 1022 39 901 92 968 b 279 1085 197 1049 236 1069 b 413 1107 322 1100 367 1107 l 413 1057 b 296 1038 374 1057 335 1050 b 192 982 257 1022 222 1004 b 49 803 129 933 82 874 b -6 583 17 733 -1 660 b 26 360 -10 507 0 432 b 146 165 53 288 90 221 b 325 61 194 117 254 79 l 325 139 b 199 218 276 154 236 183 b 97 385 153 264 118 322 b 117 771 54 508 61 650 b 238 922 146 833 186 883 b 413 982 288 960 350 982 l 413 932 b 267 882 361 932 313 915 b 163 750 224 847 189 804 b 144 400 111 644 106 513 b 233 254 165 344 194 293 b 325 193 263 225 293 206 l 325 468 l 375 468 l 375 181 b 417 176 379 179 399 178 b 450 175 426 175 438 175 l 450 468 m 450 125 b 417 126 438 126 426 126 b 375 128 399 126 381 126 l 375 51 b 417 50 381 51 399 50 l 450 50 "},"ģ":{"ha":663,"x_min":0,"x_max":0,"o":"m 225 -224 l 225 -57 l 272 -57 l 272 -224 m 339 -301 l 339 -57 l 386 -57 l 386 -342 m 500 468 l 500 175 l 500 125 l 500 50 l 500 0 l 450 0 l 408 0 b 325 10 379 0 351 3 b 214 51 286 19 249 33 b 110 131 175 74 140 100 b -21 343 49 192 6 265 b -54 586 -49 422 -58 503 b 4 825 -51 669 -32 749 b 163 1022 39 901 92 968 b 279 1085 197 1049 236 1069 b 413 1107 322 1100 367 1107 l 413 1057 b 296 1038 374 1057 335 1050 b 192 982 257 1022 222 1004 b 49 803 129 933 82 874 b -6 583 17 733 -1 660 b 26 360 -10 507 0 432 b 146 165 53 288 90 221 b 325 61 194 117 254 79 l 325 139 b 199 218 276 154 236 183 b 97 385 153 264 118 322 b 117 771 54 508 61 650 b 238 922 146 833 186 883 b 413 982 288 960 350 982 l 413 932 b 267 882 361 932 313 915 b 163 750 224 847 189 804 b 144 400 111 644 106 513 b 233 254 165 344 194 293 b 325 193 263 225 293 206 l 325 468 l 375 468 l 375 181 b 417 176 379 179 399 178 b 450 175 426 175 438 175 l 450 468 m 450 125 b 417 126 438 126 426 126 b 375 128 399 126 381 126 l 375 51 b 417 50 381 51 399 50 l 450 50 "},"Ĥ":{"ha":694,"x_min":0,"x_max":0,"o":"m 450 1108 l 500 1108 l 500 0 l 450 0 l 450 421 l 50 421 l 50 346 l 375 346 l 375 0 l 325 0 l 325 296 l 175 296 l 175 0 l 125 0 l 125 296 l 50 296 l 50 0 l 0 0 l 0 1108 l 50 1108 l 50 471 l 125 471 l 125 1108 l 175 1108 l 175 471 l 325 471 l 325 1108 l 375 1108 l 375 471 l 450 471 m 246 1272 l 136 1175 l 74 1175 l 74 1182 l 217 1310 l 272 1310 l 425 1175 l 356 1175 "},"ĥ":{"ha":694,"x_min":0,"x_max":0,"o":"m 450 1108 l 500 1108 l 500 0 l 450 0 l 450 421 l 50 421 l 50 346 l 375 346 l 375 0 l 325 0 l 325 296 l 175 296 l 175 0 l 125 0 l 125 296 l 50 296 l 50 0 l 0 0 l 0 1108 l 50 1108 l 50 471 l 125 471 l 125 1108 l 175 1108 l 175 471 l 325 471 l 325 1108 l 375 1108 l 375 471 l 450 471 m 246 1272 l 136 1175 l 74 1175 l 74 1182 l 217 1310 l 272 1310 l 425 1175 l 356 1175 "},"Ħ":{"ha":694,"x_min":0,"x_max":0,"o":"m 450 1108 l 500 1108 l 500 822 l 563 822 l 563 781 l 500 781 l 500 0 l 450 0 l 450 421 l 50 421 l 50 346 l 375 346 l 375 0 l 325 0 l 325 296 l 175 296 l 175 0 l 125 0 l 125 296 l 50 296 l 50 0 l 0 0 l 0 781 l -61 781 l -61 822 l 0 822 l 0 1108 l 50 1108 l 50 471 l 125 471 l 125 1108 l 175 1108 l 175 822 l 325 822 l 325 1108 l 375 1108 l 375 822 l 450 822 m 325 471 l 325 781 l 175 781 l 175 471 m 450 471 l 450 781 l 375 781 l 375 471 "},"ħ":{"ha":694,"x_min":0,"x_max":0,"o":"m 450 1108 l 500 1108 l 500 822 l 563 822 l 563 781 l 500 781 l 500 0 l 450 0 l 450 421 l 50 421 l 50 346 l 375 346 l 375 0 l 325 0 l 325 296 l 175 296 l 175 0 l 125 0 l 125 296 l 50 296 l 50 0 l 0 0 l 0 781 l -61 781 l -61 822 l 0 822 l 0 1108 l 50 1108 l 50 471 l 125 471 l 125 1108 l 175 1108 l 175 822 l 325 822 l 325 1108 l 375 1108 l 375 822 l 450 822 m 325 471 l 325 781 l 175 781 l 175 471 m 450 471 l 450 781 l 375 781 l 375 471 "},"Ĩ":{"ha":560,"x_min":0,"x_max":0,"o":"m 399 1110 l -21 1110 l -21 1060 l 224 1060 l 224 985 l -21 985 l -21 935 l 107 935 l 107 175 l -21 175 l -21 125 l 107 125 l 107 50 l -21 50 l -21 0 l 399 0 l 399 50 l 154 50 l 154 125 l 399 125 l 399 175 l 271 175 l 271 935 l 399 935 l 399 985 l 271 985 l 271 1060 l 399 1060 m 154 175 l 154 935 l 224 935 l 224 175 m 56 1267 b 176 1240 83 1207 129 1208 b 354 1199 235 1281 313 1281 l 319 1178 b 196 1201 289 1233 240 1232 b 19 1244 138 1163 58 1164 "},"ĩ":{"ha":560,"x_min":0,"x_max":0,"o":"m 399 1110 l -21 1110 l -21 1060 l 224 1060 l 224 985 l -21 985 l -21 935 l 107 935 l 107 175 l -21 175 l -21 125 l 107 125 l 107 50 l -21 50 l -21 0 l 399 0 l 399 50 l 154 50 l 154 125 l 399 125 l 399 175 l 271 175 l 271 935 l 399 935 l 399 985 l 271 985 l 271 1060 l 399 1060 m 154 175 l 154 935 l 224 935 l 224 175 m 56 1267 b 176 1240 83 1207 129 1208 b 354 1199 235 1281 313 1281 l 319 1178 b 196 1201 289 1233 240 1232 b 19 1244 138 1163 58 1164 "},"Ī":{"ha":560,"x_min":0,"x_max":0,"o":"m 399 1060 l 271 1060 l 271 985 l 399 985 l 399 935 l 271 935 l 271 175 l 399 175 l 399 125 l 154 125 l 154 50 l 399 50 l 399 0 l -21 0 l -21 50 l 107 50 l 107 125 l -21 125 l -21 175 l 107 175 l 107 935 l -21 935 l -21 985 l 224 985 l 224 1060 l -21 1060 l -21 1110 l 399 1110 m 224 175 l 224 935 l 154 935 l 154 175 m 58 1226 l 307 1226 l 307 1183 l 58 1183 "},"ī":{"ha":560,"x_min":0,"x_max":0,"o":"m 399 1060 l 271 1060 l 271 985 l 399 985 l 399 935 l 271 935 l 271 175 l 399 175 l 399 125 l 154 125 l 154 50 l 399 50 l 399 0 l -21 0 l -21 50 l 107 50 l 107 125 l -21 125 l -21 175 l 107 175 l 107 935 l -21 935 l -21 985 l 224 985 l 224 1060 l -21 1060 l -21 1110 l 399 1110 m 224 175 l 224 935 l 154 935 l 154 175 m 58 1226 l 307 1226 l 307 1183 l 58 1183 "},"Ĭ":{"ha":560,"x_min":0,"x_max":0,"o":"m 399 1110 l -21 1110 l -21 1060 l 224 1060 l 224 985 l -21 985 l -21 935 l 107 935 l 107 175 l -21 175 l -21 125 l 107 125 l 107 50 l -21 50 l -21 0 l 399 0 l 399 50 l 154 50 l 154 125 l 399 125 l 399 175 l 271 175 l 271 935 l 399 935 l 399 985 l 271 985 l 271 1060 l 399 1060 m 154 175 l 154 935 l 224 935 l 224 175 m 83 1299 b 272 1299 83 1188 272 1188 l 322 1299 b 38 1299 322 1131 38 1129 "},"ĭ":{"ha":560,"x_min":0,"x_max":0,"o":"m 399 1110 l -21 1110 l -21 1060 l 224 1060 l 224 985 l -21 985 l -21 935 l 107 935 l 107 175 l -21 175 l -21 125 l 107 125 l 107 50 l -21 50 l -21 0 l 399 0 l 399 50 l 154 50 l 154 125 l 399 125 l 399 175 l 271 175 l 271 935 l 399 935 l 399 985 l 271 985 l 271 1060 l 399 1060 m 154 175 l 154 935 l 224 935 l 224 175 m 83 1299 b 272 1299 83 1188 272 1188 l 322 1299 b 38 1299 322 1131 38 1129 "},"Į":{"ha":560,"x_min":0,"x_max":0,"o":"m 224 175 l 224 935 l 154 935 l 154 175 m 399 1060 l 271 1060 l 271 985 l 399 985 l 399 935 l 271 935 l 271 175 l 399 175 l 399 125 l 154 125 l 154 50 l 399 50 l 399 0 l 339 0 b 381 -179 246 -17 244 -190 l 381 -224 b 268 0 226 -231 194 -68 l -21 0 l -21 50 l 107 50 l 107 125 l -21 125 l -21 175 l 107 175 l 107 935 l -21 935 l -21 985 l 224 985 l 224 1060 l -21 1060 l -21 1110 l 399 1110 "},"į":{"ha":560,"x_min":0,"x_max":0,"o":"m 224 175 l 224 935 l 154 935 l 154 175 m 399 1060 l 271 1060 l 271 985 l 399 985 l 399 935 l 271 935 l 271 175 l 399 175 l 399 125 l 154 125 l 154 50 l 399 50 l 399 0 l 339 0 b 381 -179 246 -17 244 -190 l 381 -224 b 268 0 226 -231 194 -68 l -21 0 l -21 50 l 107 50 l 107 125 l -21 125 l -21 175 l 107 175 l 107 935 l -21 935 l -21 985 l 224 985 l 224 1060 l -21 1060 l -21 1110 l 399 1110 "},"İ":{"ha":560,"x_min":0,"x_max":0,"o":"m 181 1260 b 224 1218 204 1260 224 1242 b 181 1176 224 1194 204 1176 b 139 1218 158 1176 139 1194 b 181 1260 139 1242 158 1260 m 399 1110 l -21 1110 l -21 1060 l 224 1060 l 224 985 l -21 985 l -21 935 l 107 935 l 107 175 l -21 175 l -21 125 l 107 125 l 107 50 l -21 50 l -21 0 l 399 0 l 399 50 l 154 50 l 154 125 l 399 125 l 399 175 l 271 175 l 271 935 l 399 935 l 399 985 l 271 985 l 271 1060 l 399 1060 m 154 175 l 154 935 l 224 935 l 224 175 "},"ı":{"ha":560,"x_min":0,"x_max":0,"o":"m 271 1060 l 271 985 l 399 985 l 399 935 l 271 935 l 271 175 l 399 175 l 399 125 l 154 125 l 154 50 l 399 50 l 399 0 l -21 0 l -21 50 l 107 50 l 107 125 l -21 125 l -21 175 l 107 175 l 107 935 l -21 935 l -21 985 l 224 985 l 224 1060 l -21 1060 l -21 1110 l 399 1110 l 399 1060 m 224 935 l 154 935 l 154 175 l 224 175 "},"Ĳ":{"ha":1232,"x_min":0,"x_max":0,"o":"m 399 1060 l 271 1060 l 271 985 l 399 985 l 399 935 l 271 935 l 271 175 l 399 175 l 399 125 l 154 125 l 154 50 l 399 50 l 399 0 l -21 0 l -21 50 l 107 50 l 107 125 l -21 125 l -21 175 l 107 175 l 107 935 l -21 935 l -21 985 l 224 985 l 224 1060 l -21 1060 l -21 1110 l 399 1110 m 224 175 l 224 935 l 154 935 l 154 175 m 519 468 l 569 468 l 569 257 b 676 81 569 185 617 114 b 910 86 747 38 842 40 b 1007 293 982 138 1007 210 l 1007 1110 l 1057 1110 l 1057 293 b 936 44 1053 189 1024 100 b 794 0 893 17 846 1 b 651 38 743 -1 694 11 b 519 254 575 86 519 165 l 519 264 m 644 468 l 694 468 l 694 271 l 694 264 b 740 188 694 232 714 203 b 840 190 769 169 811 169 b 882 268 867 208 882 236 l 882 293 l 882 1110 l 932 1110 l 932 293 l 932 268 b 868 149 931 217 908 176 b 715 144 824 117 761 117 b 644 261 672 171 644 215 "},"ĳ":{"ha":1232,"x_min":0,"x_max":0,"o":"m 271 1060 l 271 985 l 399 985 l 399 935 l 271 935 l 271 175 l 399 175 l 399 125 l 154 125 l 154 50 l 399 50 l 399 0 l -21 0 l -21 50 l 107 50 l 107 125 l -21 125 l -21 175 l 107 175 l 107 935 l -21 935 l -21 985 l 224 985 l 224 1060 l -21 1060 l -21 1110 l 399 1110 l 399 1060 m 224 935 l 154 935 l 154 175 l 224 175 m 519 468 l 569 468 l 569 257 b 676 81 569 185 617 114 b 910 86 747 38 842 40 b 1007 293 982 138 1007 210 l 1007 1110 l 1057 1110 l 1057 293 b 936 44 1053 189 1024 100 b 794 0 893 17 846 1 b 651 38 743 -1 694 11 b 519 254 575 86 519 165 l 519 264 m 644 468 l 694 468 l 694 271 l 694 264 b 740 188 694 232 714 203 b 840 190 769 169 811 169 b 882 268 867 208 882 236 l 882 293 l 882 1110 l 932 1110 l 932 293 l 932 268 b 868 149 931 217 908 176 b 715 144 824 117 761 117 b 644 261 672 171 644 215 "},"Ĵ":{"ha":672,"x_min":0,"x_max":0,"o":"m -40 468 l 10 468 l 10 257 b 117 81 10 185 57 114 b 350 86 188 38 282 40 b 447 293 422 138 447 210 l 447 1110 l 497 1110 l 497 293 b 376 44 493 189 464 100 b 235 0 333 17 286 1 b 92 38 183 -1 135 11 b -40 254 15 86 -40 165 l -40 264 m 85 468 l 135 468 l 135 271 l 135 264 b 181 188 135 232 154 203 b 281 190 210 169 251 169 b 322 268 307 208 322 236 l 322 293 l 322 1110 l 372 1110 l 372 293 l 372 268 b 308 149 371 217 349 176 b 156 144 264 117 201 117 b 85 261 113 171 85 215 m 364 1264 l 254 1167 l 192 1167 l 192 1174 l 335 1301 l 390 1301 l 543 1167 l 474 1167 "},"ĵ":{"ha":672,"x_min":0,"x_max":0,"o":"m -40 468 l 10 468 l 10 257 b 117 81 10 185 57 114 b 350 86 188 38 282 40 b 447 293 422 138 447 210 l 447 1110 l 497 1110 l 497 293 b 376 44 493 189 464 100 b 235 0 333 17 286 1 b 92 38 183 -1 135 11 b -40 254 15 86 -40 165 l -40 264 m 85 468 l 135 468 l 135 271 l 135 264 b 181 188 135 232 154 203 b 281 190 210 169 251 169 b 322 268 307 208 322 236 l 322 293 l 322 1110 l 372 1110 l 372 293 l 372 268 b 308 149 371 217 349 176 b 156 144 264 117 201 117 b 85 261 113 171 85 215 m 364 1264 l 254 1167 l 192 1167 l 192 1174 l 335 1301 l 390 1301 l 543 1167 l 474 1167 "},"Ķ":{"ha":629,"x_min":0,"x_max":0,"o":"m 164 -222 l 164 -65 l 211 -65 l 211 -222 m 269 -300 l 269 -65 l 317 -65 l 317 -340 m 233 611 l 501 0 l 447 0 l 125 733 l 125 1110 l 176 1110 l 176 915 l 261 1110 l 317 1110 l 176 792 l 176 743 l 206 674 l 400 1110 l 456 1110 m 50 717 l 364 0 l 308 0 l 176 303 l 176 0 l 125 0 l 125 418 l 50 590 l 50 0 l 0 0 l 0 1110 l 50 1110 "},"ķ":{"ha":629,"x_min":0,"x_max":0,"o":"m 164 -222 l 164 -65 l 211 -65 l 211 -222 m 269 -300 l 269 -65 l 317 -65 l 317 -340 m 501 0 l 447 0 l 125 733 l 125 1110 l 176 1110 l 176 915 l 261 1110 l 317 1110 l 176 792 l 176 743 l 206 674 l 400 1110 l 456 1110 l 233 611 m 364 0 l 308 0 l 176 303 l 176 0 l 125 0 l 125 418 l 50 590 l 50 0 l 0 0 l 0 1110 l 50 1110 l 50 717 "},"ĸ":{"ha":629,"x_min":0,"x_max":0,"o":"m 501 0 l 447 0 l 125 733 l 125 1110 l 176 1110 l 176 915 l 261 1110 l 317 1110 l 176 792 l 176 743 l 206 674 l 400 1110 l 456 1110 l 233 611 m 364 0 l 308 0 l 176 303 l 176 0 l 125 0 l 125 418 l 50 590 l 50 0 l 0 0 l 0 1110 l 50 1110 l 50 717 "},"Ĺ":{"ha":608,"x_min":0,"x_max":0,"o":"m 251 122 l 169 122 l 169 47 l 485 47 l 485 0 l 169 0 l 122 0 l 0 0 l 0 1108 l 47 1108 l 47 169 l 122 169 l 122 247 l 122 1108 l 169 1108 l 169 247 l 169 169 l 251 169 l 485 169 l 485 122 m 122 47 l 122 122 l 47 122 l 47 47 m 57 1186 l 164 1301 l 232 1301 l 232 1294 l 115 1183 l 57 1183 "},"ĺ":{"ha":608,"x_min":0,"x_max":0,"o":"m 251 122 l 169 122 l 169 47 l 485 47 l 485 0 l 169 0 l 122 0 l 0 0 l 0 1108 l 47 1108 l 47 169 l 122 169 l 122 247 l 122 1108 l 169 1108 l 169 247 l 169 169 l 251 169 l 485 169 l 485 122 m 122 47 l 122 122 l 47 122 l 47 47 m 57 1186 l 164 1301 l 232 1301 l 232 1294 l 115 1183 l 57 1183 "},"Ļ":{"ha":608,"x_min":0,"x_max":0,"o":"m 164 -222 l 164 -65 l 211 -65 l 211 -222 m 269 -300 l 269 -65 l 317 -65 l 317 -340 m 251 122 l 169 122 l 169 47 l 485 47 l 485 0 l 169 0 l 122 0 l 0 0 l 0 1108 l 47 1108 l 47 169 l 122 169 l 122 247 l 122 1108 l 169 1108 l 169 247 l 169 169 l 251 169 l 485 169 l 485 122 m 122 47 l 122 122 l 47 122 l 47 47 "},"ļ":{"ha":608,"x_min":0,"x_max":0,"o":"m 164 -222 l 164 -65 l 211 -65 l 211 -222 m 269 -300 l 269 -65 l 317 -65 l 317 -340 m 251 122 l 169 122 l 169 47 l 485 47 l 485 0 l 169 0 l 122 0 l 0 0 l 0 1108 l 47 1108 l 47 169 l 122 169 l 122 247 l 122 1108 l 169 1108 l 169 247 l 169 169 l 251 169 l 485 169 l 485 122 m 122 47 l 122 122 l 47 122 l 47 47 "},"Ľ":{"ha":608,"x_min":0,"x_max":0,"o":"m 251 122 l 169 122 l 169 47 l 485 47 l 485 0 l 169 0 l 122 0 l 0 0 l 0 1108 l 47 1108 l 47 169 l 122 169 l 122 247 l 122 1108 l 169 1108 l 169 247 l 169 169 l 251 169 l 485 169 l 485 122 m 122 47 l 122 122 l 47 122 l 47 47 m 376 838 l 376 1108 l 424 1108 l 424 797 "},"ľ":{"ha":608,"x_min":0,"x_max":0,"o":"m 251 122 l 169 122 l 169 47 l 485 47 l 485 0 l 169 0 l 122 0 l 0 0 l 0 1108 l 47 1108 l 47 169 l 122 169 l 122 247 l 122 1108 l 169 1108 l 169 247 l 169 169 l 251 169 l 485 169 l 485 122 m 122 47 l 122 122 l 47 122 l 47 47 m 376 838 l 376 1108 l 424 1108 l 424 797 "},"Ŀ":{"ha":608,"x_min":0,"x_max":0,"o":"m 347 668 b 401 615 378 668 401 646 b 347 563 401 585 378 563 b 294 615 319 563 294 585 b 347 668 294 646 319 668 m 251 122 l 169 122 l 169 47 l 485 47 l 485 0 l 169 0 l 122 0 l 0 0 l 0 1108 l 47 1108 l 47 169 l 122 169 l 122 247 l 122 1108 l 169 1108 l 169 247 l 169 169 l 251 169 l 485 169 l 485 122 m 122 47 l 122 122 l 47 122 l 47 47 "},"ŀ":{"ha":608,"x_min":0,"x_max":0,"o":"m 347 668 b 401 615 378 668 401 646 b 347 563 401 585 378 563 b 294 615 319 563 294 585 b 347 668 294 646 319 668 m 251 122 l 169 122 l 169 47 l 485 47 l 485 0 l 169 0 l 122 0 l 0 0 l 0 1108 l 47 1108 l 47 169 l 122 169 l 122 247 l 122 1108 l 169 1108 l 169 247 l 169 169 l 251 169 l 485 169 l 485 122 m 122 47 l 122 122 l 47 122 l 47 47 "},"Ł":{"ha":608,"x_min":0,"x_max":0,"o":"m 485 122 l 169 122 l 169 47 l 485 47 l 485 0 l 0 0 l 0 444 l -81 410 l -81 456 l 0 490 l 0 1108 l 47 1108 l 47 511 l 122 544 l 122 1108 l 169 1108 l 169 564 l 286 615 l 286 569 l 169 518 l 169 169 l 485 169 m 122 169 l 122 499 l 47 465 l 47 169 m 122 47 l 122 122 l 47 122 l 47 47 "},"ł":{"ha":608,"x_min":0,"x_max":0,"o":"m 485 122 l 169 122 l 169 47 l 485 47 l 485 0 l 0 0 l 0 444 l -81 410 l -81 456 l 0 490 l 0 1108 l 47 1108 l 47 511 l 122 544 l 122 1108 l 169 1108 l 169 564 l 286 615 l 286 569 l 169 518 l 169 169 l 485 169 m 122 169 l 122 499 l 47 465 l 47 169 m 122 47 l 122 122 l 47 122 l 47 47 "},"Ń":{"ha":694,"x_min":0,"x_max":0,"o":"m 338 842 l 338 1110 l 388 1110 l 388 0 l 338 0 l 338 482 l 175 783 l 175 0 l 125 0 l 125 876 l 50 1014 l 50 0 l 0 0 l 0 1110 l 53 1110 l 338 585 l 338 740 l 136 1110 l 192 1110 m 463 1110 l 513 1110 l 513 0 l 463 0 m 211 1178 l 318 1293 l 386 1293 l 386 1286 l 269 1175 l 211 1175 "},"ń":{"ha":694,"x_min":0,"x_max":0,"o":"m 338 842 l 338 1110 l 388 1110 l 388 0 l 338 0 l 338 482 l 175 783 l 175 0 l 125 0 l 125 876 l 50 1014 l 50 0 l 0 0 l 0 1110 l 53 1110 l 338 585 l 338 740 l 136 1110 l 192 1110 m 463 1110 l 513 1110 l 513 0 l 463 0 m 211 1178 l 318 1293 l 386 1293 l 386 1286 l 269 1175 l 211 1175 "},"Ņ":{"ha":694,"x_min":0,"x_max":0,"o":"m 185 -222 l 185 -65 l 232 -65 l 232 -222 m 290 -300 l 290 -65 l 338 -65 l 338 -340 m 338 842 l 338 1110 l 388 1110 l 388 0 l 338 0 l 338 482 l 175 783 l 175 0 l 125 0 l 125 876 l 50 1014 l 50 0 l 0 0 l 0 1110 l 53 1110 l 338 585 l 338 740 l 136 1110 l 192 1110 m 463 1110 l 513 1110 l 513 0 l 463 0 "},"ņ":{"ha":694,"x_min":0,"x_max":0,"o":"m 185 -222 l 185 -65 l 232 -65 l 232 -222 m 290 -300 l 290 -65 l 338 -65 l 338 -340 m 338 842 l 338 1110 l 388 1110 l 388 0 l 338 0 l 338 482 l 175 783 l 175 0 l 125 0 l 125 876 l 50 1014 l 50 0 l 0 0 l 0 1110 l 53 1110 l 338 585 l 338 740 l 136 1110 l 192 1110 m 463 1110 l 513 1110 l 513 0 l 463 0 "},"Ň":{"ha":694,"x_min":0,"x_max":0,"o":"m 338 842 l 338 1110 l 388 1110 l 388 0 l 338 0 l 338 482 l 175 783 l 175 0 l 125 0 l 125 876 l 50 1014 l 50 0 l 0 0 l 0 1110 l 53 1110 l 338 585 l 338 740 l 136 1110 l 192 1110 m 463 1110 l 513 1110 l 513 0 l 463 0 m 258 1208 l 368 1306 l 431 1306 l 431 1299 l 288 1171 l 232 1171 l 79 1306 l 149 1306 "},"ň":{"ha":694,"x_min":0,"x_max":0,"o":"m 338 842 l 338 1110 l 388 1110 l 388 0 l 338 0 l 338 482 l 175 783 l 175 0 l 125 0 l 125 876 l 50 1014 l 50 0 l 0 0 l 0 1110 l 53 1110 l 338 585 l 338 740 l 136 1110 l 192 1110 m 463 1110 l 513 1110 l 513 0 l 463 0 m 258 1208 l 368 1306 l 431 1306 l 431 1299 l 288 1171 l 232 1171 l 79 1306 l 149 1306 "},"ŉ":{"ha":810,"x_min":0,"x_max":0,"o":"m 453 1110 l 503 1110 l 503 0 l 453 0 l 453 482 l 290 783 l 290 0 l 240 0 l 240 876 l 165 1014 l 165 0 l 115 0 l 115 1110 l 168 1110 l 453 585 l 453 740 l 251 1110 l 307 1110 l 453 842 m 628 1110 l 628 0 l 578 0 l 578 1110 "},"Ŋ":{"ha":694,"x_min":0,"x_max":0,"o":"m 338 842 l 338 1110 l 388 1110 l 388 -49 b 324 -168 386 -100 364 -140 b 247 -192 301 -183 276 -192 l 246 -192 l 246 -142 b 296 -126 264 -142 281 -136 b 338 -49 322 -108 338 -81 l 338 482 l 175 783 l 175 0 l 125 0 l 125 876 l 50 1014 l 50 0 l 0 0 l 0 1110 l 53 1110 l 338 585 l 338 740 l 136 1110 l 192 1110 m 463 1110 l 513 1110 l 513 -24 b 392 -272 508 -128 479 -217 b 250 -317 349 -300 301 -315 l 247 -317 l 247 -267 l 249 -267 b 365 -231 292 -265 331 -254 b 463 -24 438 -179 463 -107 "},"ŋ":{"ha":694,"x_min":0,"x_max":0,"o":"m 338 842 l 338 1110 l 388 1110 l 388 -49 b 324 -168 386 -100 364 -140 b 247 -192 301 -183 276 -192 l 246 -192 l 246 -142 b 296 -126 264 -142 281 -136 b 338 -49 322 -108 338 -81 l 338 482 l 175 783 l 175 0 l 125 0 l 125 876 l 50 1014 l 50 0 l 0 0 l 0 1110 l 53 1110 l 338 585 l 338 740 l 136 1110 l 192 1110 m 463 1110 l 513 1110 l 513 -24 b 392 -272 508 -128 479 -217 b 250 -317 349 -300 301 -315 l 247 -317 l 247 -267 l 249 -267 b 365 -231 292 -265 331 -254 b 463 -24 438 -179 463 -107 "},"Ō":{"ha":686,"x_min":0,"x_max":0,"o":"m 338 953 b 386 856 371 926 386 893 l 386 247 b 338 150 386 210 371 176 b 249 118 314 128 281 118 b 158 150 215 118 185 128 b 115 247 131 176 115 210 l 115 856 b 158 953 115 893 131 926 b 249 985 185 975 215 985 b 338 953 281 985 314 975 m 335 856 b 307 917 335 881 325 901 b 249 938 290 932 269 938 b 189 917 226 938 206 932 b 161 856 171 901 161 881 l 161 247 b 189 186 161 222 171 201 b 249 165 206 171 226 165 b 307 186 269 165 290 171 b 335 247 325 201 335 222 m 419 1042 b 501 856 471 996 501 926 l 501 247 b 419 61 501 176 471 107 b 249 0 375 22 314 0 b 82 61 188 0 131 18 b 0 247 31 107 0 176 l 0 856 b 82 1042 0 926 31 996 b 249 1108 125 1086 182 1108 b 419 1042 308 1108 375 1090 m 456 856 b 389 1006 456 913 432 968 b 249 1061 354 1039 303 1061 b 113 1006 197 1061 153 1043 b 46 856 69 968 46 913 l 46 247 b 113 97 46 190 69 135 b 249 47 147 64 192 47 b 389 97 297 47 350 60 b 456 247 432 135 456 190 m 126 1232 l 375 1232 l 375 1189 l 126 1189 "},"ō":{"ha":686,"x_min":0,"x_max":0,"o":"m 338 953 b 386 856 371 926 386 893 l 386 247 b 338 150 386 210 371 176 b 249 118 314 128 281 118 b 158 150 215 118 185 128 b 115 247 131 176 115 210 l 115 856 b 158 953 115 893 131 926 b 249 985 185 975 215 985 b 338 953 281 985 314 975 m 335 856 b 307 917 335 881 325 901 b 249 938 290 932 269 938 b 189 917 226 938 206 932 b 161 856 171 901 161 881 l 161 247 b 189 186 161 222 171 201 b 249 165 206 171 226 165 b 307 186 269 165 290 171 b 335 247 325 201 335 222 m 419 1042 b 501 856 471 996 501 926 l 501 247 b 419 61 501 176 471 107 b 249 0 375 22 314 0 b 82 61 188 0 131 18 b 0 247 31 107 0 176 l 0 856 b 82 1042 0 926 31 996 b 249 1108 125 1086 182 1108 b 419 1042 308 1108 375 1090 m 456 856 b 389 1006 456 913 432 968 b 249 1061 354 1039 303 1061 b 113 1006 197 1061 153 1043 b 46 856 69 968 46 913 l 46 247 b 113 97 46 190 69 135 b 249 47 147 64 192 47 b 389 97 297 47 350 60 b 456 247 432 135 456 190 m 126 1232 l 375 1232 l 375 1189 l 126 1189 "},"Ŏ":{"ha":686,"x_min":0,"x_max":0,"o":"m 338 953 b 249 985 314 975 281 985 b 158 953 215 985 185 975 b 115 856 131 926 115 893 l 115 247 b 158 150 115 210 131 176 b 249 118 185 128 215 118 b 338 150 281 118 314 128 b 386 247 371 176 386 210 l 386 856 b 338 953 386 893 371 926 m 335 247 b 307 186 335 222 325 201 b 249 165 290 171 269 165 b 189 186 226 165 206 171 b 161 247 171 201 161 222 l 161 856 b 189 917 161 881 171 901 b 249 938 206 932 226 938 b 307 917 269 938 290 932 b 335 856 325 901 335 881 m 419 1042 b 249 1108 375 1090 308 1108 b 82 1042 182 1108 125 1086 b 0 856 31 996 0 926 l 0 247 b 82 61 0 176 31 107 b 249 0 131 18 188 0 b 419 61 314 0 375 22 b 501 247 471 107 501 176 l 501 856 b 419 1042 501 926 471 996 m 456 247 b 389 97 456 190 432 135 b 249 47 350 60 297 47 b 113 97 192 47 147 64 b 46 247 69 135 46 190 l 46 856 b 113 1006 46 913 69 968 b 249 1061 153 1043 197 1061 b 389 1006 303 1061 354 1039 b 456 856 432 968 456 913 m 156 1282 b 344 1282 156 1171 344 1171 l 394 1282 b 110 1282 394 1114 110 1113 "},"ŏ":{"ha":686,"x_min":0,"x_max":0,"o":"m 338 953 b 249 985 314 975 281 985 b 158 953 215 985 185 975 b 115 856 131 926 115 893 l 115 247 b 158 150 115 210 131 176 b 249 118 185 128 215 118 b 338 150 281 118 314 128 b 386 247 371 176 386 210 l 386 856 b 338 953 386 893 371 926 m 335 247 b 307 186 335 222 325 201 b 249 165 290 171 269 165 b 189 186 226 165 206 171 b 161 247 171 201 161 222 l 161 856 b 189 917 161 881 171 901 b 249 938 206 932 226 938 b 307 917 269 938 290 932 b 335 856 325 901 335 881 m 419 1042 b 249 1108 375 1090 308 1108 b 82 1042 182 1108 125 1086 b 0 856 31 996 0 926 l 0 247 b 82 61 0 176 31 107 b 249 0 131 18 188 0 b 419 61 314 0 375 22 b 501 247 471 107 501 176 l 501 856 b 419 1042 501 926 471 996 m 456 247 b 389 97 456 190 432 135 b 249 47 350 60 297 47 b 113 97 192 47 147 64 b 46 247 69 135 46 190 l 46 856 b 113 1006 46 913 69 968 b 249 1061 153 1043 197 1061 b 389 1006 303 1061 354 1039 b 456 856 432 968 456 913 m 156 1282 b 344 1282 156 1171 344 1171 l 394 1282 b 110 1282 394 1114 110 1113 "},"ő":{"ha":686,"x_min":0,"x_max":0,"o":"m 338 953 b 386 856 371 926 386 893 l 386 247 b 338 150 386 210 371 176 b 249 118 314 128 281 118 b 158 150 215 118 185 128 b 115 247 131 176 115 210 l 115 856 b 158 953 115 893 131 926 b 249 985 185 975 215 985 b 338 953 281 985 314 975 m 335 856 b 307 917 335 881 325 901 b 249 938 290 932 269 938 b 189 917 226 938 206 932 b 161 856 171 901 161 881 l 161 247 b 189 186 161 222 171 201 b 249 165 206 171 226 165 b 307 186 269 165 290 171 b 335 247 325 201 335 222 m 419 1042 b 501 856 471 996 501 926 l 501 247 b 419 61 501 176 471 107 b 249 0 375 22 314 0 b 82 61 188 0 131 18 b 0 247 31 107 0 176 l 0 856 b 82 1042 0 926 31 996 b 249 1108 125 1086 182 1108 b 419 1042 308 1108 375 1090 m 456 856 b 389 1006 456 913 432 968 b 249 1061 354 1039 303 1061 b 113 1006 197 1061 153 1043 b 46 856 69 968 46 913 l 46 247 b 113 97 46 190 69 135 b 249 47 147 64 192 47 b 389 97 297 47 350 60 b 456 247 432 135 456 190 m 129 1161 l 208 1263 l 276 1263 l 276 1256 l 188 1158 l 129 1158 m 281 1161 l 360 1263 l 428 1263 l 428 1256 l 339 1158 l 281 1158 "},"Ŕ":{"ha":643,"x_min":0,"x_max":0,"o":"m 328 379 b 364 422 340 394 353 407 b 404 818 446 538 460 689 b 97 1054 349 940 233 1035 l 133 969 b 363 683 258 929 351 817 b 175 360 374 550 297 415 l 175 278 b 268 328 208 289 239 307 l 406 0 l 351 0 l 244 254 b 175 225 222 243 199 232 l 175 0 l 125 0 l 125 538 l 50 715 l 50 0 l 0 0 l 0 963 l 218 446 b 272 511 240 467 258 488 l 19 1110 b 175 1088 74 1111 126 1104 b 467 794 313 1043 422 932 b 386 369 511 650 483 489 l 542 0 l 488 0 m 300 572 b 232 853 332 672 303 782 b 175 896 214 871 194 886 l 175 869 m 97 1172 l 204 1288 l 272 1288 l 272 1281 l 156 1169 l 97 1169 "},"ŕ":{"ha":643,"x_min":0,"x_max":0,"o":"m 328 379 b 364 422 340 394 353 407 b 404 818 446 538 460 689 b 97 1054 349 940 233 1035 l 133 969 b 363 683 258 929 351 817 b 175 360 374 550 297 415 l 175 278 b 268 328 208 289 239 307 l 406 0 l 351 0 l 244 254 b 175 225 222 243 199 232 l 175 0 l 125 0 l 125 538 l 50 715 l 50 0 l 0 0 l 0 963 l 218 446 b 272 511 240 467 258 488 l 19 1110 b 175 1088 74 1111 126 1104 b 467 794 313 1043 422 932 b 386 369 511 650 483 489 l 542 0 l 488 0 m 300 572 b 232 853 332 672 303 782 b 175 896 214 871 194 886 l 175 869 m 97 1172 l 204 1288 l 272 1288 l 272 1281 l 156 1169 l 97 1169 "},"Ŗ":{"ha":643,"x_min":0,"x_max":0,"o":"m 188 -224 l 188 -57 l 235 -57 l 235 -224 m 301 -301 l 301 -57 l 349 -57 l 349 -342 m 328 379 b 364 422 340 394 353 407 b 404 818 446 538 460 689 b 97 1054 349 940 233 1035 l 133 969 b 363 683 258 929 351 817 b 175 360 374 550 297 415 l 175 278 b 268 328 208 289 239 307 l 406 0 l 351 0 l 244 254 b 175 225 222 243 199 232 l 175 0 l 125 0 l 125 538 l 50 715 l 50 0 l 0 0 l 0 963 l 218 446 b 272 511 240 467 258 488 l 19 1110 b 175 1088 74 1111 126 1104 b 467 794 313 1043 422 932 b 386 369 511 650 483 489 l 542 0 l 488 0 m 300 572 b 232 853 332 672 303 782 b 175 896 214 871 194 886 l 175 869 "},"ŗ":{"ha":643,"x_min":0,"x_max":0,"o":"m 188 -224 l 188 -57 l 235 -57 l 235 -224 m 301 -301 l 301 -57 l 349 -57 l 349 -342 m 328 379 b 364 422 340 394 353 407 b 404 818 446 538 460 689 b 97 1054 349 940 233 1035 l 133 969 b 363 683 258 929 351 817 b 175 360 374 550 297 415 l 175 278 b 268 328 208 289 239 307 l 406 0 l 351 0 l 244 254 b 175 225 222 243 199 232 l 175 0 l 125 0 l 125 538 l 50 715 l 50 0 l 0 0 l 0 963 l 218 446 b 272 511 240 467 258 488 l 19 1110 b 175 1088 74 1111 126 1104 b 467 794 313 1043 422 932 b 386 369 511 650 483 489 l 542 0 l 488 0 m 300 572 b 232 853 332 672 303 782 b 175 896 214 871 194 886 l 175 869 "},"Ř":{"ha":643,"x_min":0,"x_max":0,"o":"m 328 379 b 364 422 340 394 353 407 b 404 818 446 538 460 689 b 97 1054 349 940 233 1035 l 133 969 b 363 683 258 929 351 817 b 175 360 374 550 297 415 l 175 278 b 268 328 208 289 239 307 l 406 0 l 351 0 l 244 254 b 175 225 222 243 199 232 l 175 0 l 125 0 l 125 538 l 50 715 l 50 0 l 0 0 l 0 963 l 218 446 b 272 511 240 467 258 488 l 19 1110 b 175 1088 74 1111 126 1104 b 467 794 313 1043 422 932 b 386 369 511 650 483 489 l 542 0 l 488 0 m 300 572 b 232 853 332 672 303 782 b 175 896 214 871 194 886 l 175 869 m 151 1201 l 261 1299 l 324 1299 l 324 1292 l 181 1164 l 125 1164 l -28 1299 l 42 1299 "},"ř":{"ha":643,"x_min":0,"x_max":0,"o":"m 328 379 b 364 422 340 394 353 407 b 404 818 446 538 460 689 b 97 1054 349 940 233 1035 l 133 969 b 363 683 258 929 351 817 b 175 360 374 550 297 415 l 175 278 b 268 328 208 289 239 307 l 406 0 l 351 0 l 244 254 b 175 225 222 243 199 232 l 175 0 l 125 0 l 125 538 l 50 715 l 50 0 l 0 0 l 0 963 l 218 446 b 272 511 240 467 258 488 l 19 1110 b 175 1088 74 1111 126 1104 b 467 794 313 1043 422 932 b 386 369 511 650 483 489 l 542 0 l 488 0 m 300 572 b 232 853 332 672 303 782 b 175 896 214 871 194 886 l 175 869 m 151 1201 l 261 1299 l 324 1299 l 324 1292 l 181 1164 l 125 1164 l -28 1299 l 42 1299 "},"Ś":{"ha":672,"x_min":0,"x_max":0,"o":"m 478 928 b 457 956 471 939 464 946 l 433 981 b 379 1021 415 997 397 1011 b 247 1058 339 1046 294 1058 b 179 1050 224 1058 201 1056 b 114 1024 157 1044 135 1035 b 19 922 72 1000 40 965 b -1 783 -1 879 -8 832 b 61 660 7 735 28 694 b 113 615 78 642 94 626 b 268 525 163 582 217 557 b 417 379 333 486 396 440 b 422 281 426 350 428 318 b 382 192 417 246 403 217 b 301 138 361 167 335 149 b 201 131 268 128 235 125 b 25 239 135 142 74 185 l 63 272 b 210 181 106 224 156 190 b 343 224 264 171 314 186 b 372 289 358 242 368 264 b 369 364 378 318 376 343 b 326 424 363 383 349 403 b 243 482 303 444 275 464 b 24 626 165 528 83 561 b -50 776 -14 665 -40 717 b -25 944 -60 833 -51 893 b 89 1067 1 997 39 1038 b 167 1099 115 1082 140 1092 b 247 1108 193 1104 219 1108 b 404 1064 303 1108 358 1092 b 468 1017 428 1051 447 1035 b 519 956 493 993 510 974 m 372 861 b 247 933 343 904 296 933 b 178 915 222 933 199 928 b 132 867 157 903 142 888 b 122 804 122 847 119 826 b 153 744 126 782 138 763 b 228 693 169 726 185 719 b 333 632 261 672 296 654 b 443 553 371 610 406 586 b 496 496 461 536 479 518 b 535 421 511 472 525 447 b 550 338 544 393 549 365 b 544 261 551 311 549 285 b 478 111 538 207 515 154 b 340 19 440 68 394 38 b 181 7 289 1 235 -3 b 39 63 129 17 82 35 b -69 157 -1 89 -37 119 l -32 189 b 65 106 -3 156 31 128 b 189 57 103 82 144 64 b 325 67 233 50 281 51 b 439 143 371 82 410 107 b 496 268 471 181 489 224 b 488 404 503 311 503 360 b 410 517 472 450 442 488 b 307 589 376 546 342 568 b 203 649 272 610 238 628 l 176 664 b 117 710 154 676 135 692 b 74 796 92 736 78 764 b 88 889 68 828 72 858 b 153 958 103 921 124 943 b 247 983 182 975 213 983 b 414 888 313 983 383 944 m 197 1176 l 304 1292 l 372 1292 l 372 1285 l 256 1174 l 197 1174 "},"ś":{"ha":672,"x_min":0,"x_max":0,"o":"m 478 928 b 457 956 471 939 464 946 l 433 981 b 379 1021 415 997 397 1011 b 247 1058 339 1046 294 1058 b 179 1050 224 1058 201 1056 b 114 1024 157 1044 135 1035 b 19 922 72 1000 40 965 b -1 783 -1 879 -8 832 b 61 660 7 735 28 694 b 113 615 78 642 94 626 b 268 525 163 582 217 557 b 417 379 333 486 396 440 b 422 281 426 350 428 318 b 382 192 417 246 403 217 b 301 138 361 167 335 149 b 201 131 268 128 235 125 b 25 239 135 142 74 185 l 63 272 b 210 181 106 224 156 190 b 343 224 264 171 314 186 b 372 289 358 242 368 264 b 369 364 378 318 376 343 b 326 424 363 383 349 403 b 243 482 303 444 275 464 b 24 626 165 528 83 561 b -50 776 -14 665 -40 717 b -25 944 -60 833 -51 893 b 89 1067 1 997 39 1038 b 167 1099 115 1082 140 1092 b 247 1108 193 1104 219 1108 b 404 1064 303 1108 358 1092 b 468 1017 428 1051 447 1035 b 519 956 493 993 510 974 m 372 861 b 247 933 343 904 296 933 b 178 915 222 933 199 928 b 132 867 157 903 142 888 b 122 804 122 847 119 826 b 153 744 126 782 138 763 b 228 693 169 726 185 719 b 333 632 261 672 296 654 b 443 553 371 610 406 586 b 496 496 461 536 479 518 b 535 421 511 472 525 447 b 550 338 544 393 549 365 b 544 261 551 311 549 285 b 478 111 538 207 515 154 b 340 19 440 68 394 38 b 181 7 289 1 235 -3 b 39 63 129 17 82 35 b -69 157 -1 89 -37 119 l -32 189 b 65 106 -3 156 31 128 b 189 57 103 82 144 64 b 325 67 233 50 281 51 b 439 143 371 82 410 107 b 496 268 471 181 489 224 b 488 404 503 311 503 360 b 410 517 472 450 442 488 b 307 589 376 546 342 568 b 203 649 272 610 238 628 l 176 664 b 117 710 154 676 135 692 b 74 796 92 736 78 764 b 88 889 68 828 72 858 b 153 958 103 921 124 943 b 247 983 182 975 213 983 b 414 888 313 983 383 944 m 197 1176 l 304 1292 l 372 1292 l 372 1285 l 256 1174 l 197 1174 "},"Ŝ":{"ha":672,"x_min":0,"x_max":0,"o":"m 478 928 b 457 956 471 939 464 946 l 433 981 b 379 1021 415 997 397 1011 b 247 1058 339 1046 294 1058 b 179 1050 224 1058 201 1056 b 114 1024 157 1044 135 1035 b 19 922 72 1000 40 965 b -1 783 -1 879 -8 832 b 61 660 7 735 28 694 b 113 615 78 642 94 626 b 268 525 163 582 217 557 b 417 379 333 486 396 440 b 422 281 426 350 428 318 b 382 192 417 246 403 217 b 301 138 361 167 335 149 b 201 131 268 128 235 125 b 25 239 135 142 74 185 l 63 272 b 210 181 106 224 156 190 b 343 224 264 171 314 186 b 372 289 358 242 368 264 b 369 364 378 318 376 343 b 326 424 363 383 349 403 b 243 482 303 444 275 464 b 24 626 165 528 83 561 b -50 776 -14 665 -40 717 b -25 944 -60 833 -51 893 b 89 1067 1 997 39 1038 b 167 1099 115 1082 140 1092 b 247 1108 193 1104 219 1108 b 404 1064 303 1108 358 1092 b 468 1017 428 1051 447 1035 b 519 956 493 993 510 974 m 372 861 b 247 933 343 904 296 933 b 178 915 222 933 199 928 b 132 867 157 903 142 888 b 122 804 122 847 119 826 b 153 744 126 782 138 763 b 228 693 169 726 185 719 b 333 632 261 672 296 654 b 443 553 371 610 406 586 b 496 496 461 536 479 518 b 535 421 511 472 525 447 b 550 338 544 393 549 365 b 544 261 551 311 549 285 b 478 111 538 207 515 154 b 340 19 440 68 394 38 b 181 7 289 1 235 -3 b 39 63 129 17 82 35 b -69 157 -1 89 -37 119 l -32 189 b 65 106 -3 156 31 128 b 189 57 103 82 144 64 b 325 67 233 50 281 51 b 439 143 371 82 410 107 b 496 268 471 181 489 224 b 488 404 503 311 503 360 b 410 517 472 450 442 488 b 307 589 376 546 342 568 b 203 649 272 610 238 628 l 176 664 b 117 710 154 676 135 692 b 74 796 92 736 78 764 b 88 889 68 828 72 858 b 153 958 103 921 124 943 b 247 983 182 975 213 983 b 414 888 313 983 383 944 m 235 1247 l 125 1150 l 63 1150 l 63 1157 l 206 1285 l 261 1285 l 414 1150 l 344 1150 "},"ŝ":{"ha":672,"x_min":0,"x_max":0,"o":"m 478 928 b 457 956 471 939 464 946 l 433 981 b 379 1021 415 997 397 1011 b 247 1058 339 1046 294 1058 b 179 1050 224 1058 201 1056 b 114 1024 157 1044 135 1035 b 19 922 72 1000 40 965 b -1 783 -1 879 -8 832 b 61 660 7 735 28 694 b 113 615 78 642 94 626 b 268 525 163 582 217 557 b 417 379 333 486 396 440 b 422 281 426 350 428 318 b 382 192 417 246 403 217 b 301 138 361 167 335 149 b 201 131 268 128 235 125 b 25 239 135 142 74 185 l 63 272 b 210 181 106 224 156 190 b 343 224 264 171 314 186 b 372 289 358 242 368 264 b 369 364 378 318 376 343 b 326 424 363 383 349 403 b 243 482 303 444 275 464 b 24 626 165 528 83 561 b -50 776 -14 665 -40 717 b -25 944 -60 833 -51 893 b 89 1067 1 997 39 1038 b 167 1099 115 1082 140 1092 b 247 1108 193 1104 219 1108 b 404 1064 303 1108 358 1092 b 468 1017 428 1051 447 1035 b 519 956 493 993 510 974 m 372 861 b 247 933 343 904 296 933 b 178 915 222 933 199 928 b 132 867 157 903 142 888 b 122 804 122 847 119 826 b 153 744 126 782 138 763 b 228 693 169 726 185 719 b 333 632 261 672 296 654 b 443 553 371 610 406 586 b 496 496 461 536 479 518 b 535 421 511 472 525 447 b 550 338 544 393 549 365 b 544 261 551 311 549 285 b 478 111 538 207 515 154 b 340 19 440 68 394 38 b 181 7 289 1 235 -3 b 39 63 129 17 82 35 b -69 157 -1 89 -37 119 l -32 189 b 65 106 -3 156 31 128 b 189 57 103 82 144 64 b 325 67 233 50 281 51 b 439 143 371 82 410 107 b 496 268 471 181 489 224 b 488 404 503 311 503 360 b 410 517 472 450 442 488 b 307 589 376 546 342 568 b 203 649 272 610 238 628 l 176 664 b 117 710 154 676 135 692 b 74 796 92 736 78 764 b 88 889 68 828 72 858 b 153 958 103 921 124 943 b 247 983 182 975 213 983 b 414 888 313 983 383 944 m 235 1247 l 125 1150 l 63 1150 l 63 1157 l 206 1285 l 261 1285 l 414 1150 l 344 1150 "},"Ş":{"ha":672,"x_min":0,"x_max":0,"o":"m 243 -71 b 158 -307 343 -128 328 -314 l 158 -262 b 194 -96 296 -275 289 -112 l 222 1 b 181 7 208 3 194 4 b 39 63 129 17 82 35 b -69 157 -1 89 -37 119 l -32 189 b 65 106 -3 156 31 128 b 189 57 103 82 144 64 b 325 67 233 50 281 51 b 439 143 371 82 410 107 b 496 268 471 181 489 224 b 488 404 503 311 503 360 b 410 517 472 450 442 488 b 307 589 376 546 342 568 b 203 649 272 610 238 628 l 176 664 b 117 710 154 676 135 692 b 74 796 92 736 78 764 b 88 889 68 828 72 858 b 153 958 103 921 124 943 b 247 983 182 975 213 983 b 414 888 313 983 383 944 l 372 861 b 247 933 343 904 296 933 b 178 915 222 933 199 928 b 132 867 157 903 142 888 b 122 804 122 847 119 826 b 153 744 126 782 138 763 b 228 693 169 726 185 719 b 333 632 261 672 296 654 b 443 553 371 610 406 586 b 496 496 461 536 479 518 b 535 421 511 472 525 447 b 550 338 544 393 549 365 b 544 261 551 311 549 285 b 478 111 538 207 515 154 b 340 19 440 68 394 38 b 267 3 317 10 292 4 m 478 928 b 457 956 471 939 464 946 l 433 981 b 379 1021 415 997 397 1011 b 247 1058 339 1046 294 1058 b 179 1050 224 1058 201 1056 b 114 1024 157 1044 135 1035 b 19 922 72 1000 40 965 b -1 783 -1 879 -8 832 b 61 660 7 735 28 694 b 113 615 78 642 94 626 b 268 525 163 582 217 557 b 417 379 333 486 396 440 b 422 281 426 350 428 318 b 382 192 417 246 403 217 b 301 138 361 167 335 149 b 201 131 268 128 235 125 b 25 239 135 142 74 185 l 63 272 b 210 181 106 224 156 190 b 343 224 264 171 314 186 b 372 289 358 242 368 264 b 369 364 378 318 376 343 b 326 424 363 383 349 403 b 243 482 303 444 275 464 b 24 626 165 528 83 561 b -50 776 -14 665 -40 717 b -25 944 -60 833 -51 893 b 89 1067 1 997 39 1038 b 167 1099 115 1082 140 1092 b 247 1108 193 1104 219 1108 b 404 1064 303 1108 358 1092 b 468 1017 428 1051 447 1035 b 519 956 493 993 510 974 "},"ş":{"ha":672,"x_min":0,"x_max":0,"o":"m 243 -71 b 158 -307 343 -128 328 -314 l 158 -262 b 194 -96 296 -275 289 -112 l 222 1 b 181 7 208 3 194 4 b 39 63 129 17 82 35 b -69 157 -1 89 -37 119 l -32 189 b 65 106 -3 156 31 128 b 189 57 103 82 144 64 b 325 67 233 50 281 51 b 439 143 371 82 410 107 b 496 268 471 181 489 224 b 488 404 503 311 503 360 b 410 517 472 450 442 488 b 307 589 376 546 342 568 b 203 649 272 610 238 628 l 176 664 b 117 710 154 676 135 692 b 74 796 92 736 78 764 b 88 889 68 828 72 858 b 153 958 103 921 124 943 b 247 983 182 975 213 983 b 414 888 313 983 383 944 l 372 861 b 247 933 343 904 296 933 b 178 915 222 933 199 928 b 132 867 157 903 142 888 b 122 804 122 847 119 826 b 153 744 126 782 138 763 b 228 693 169 726 185 719 b 333 632 261 672 296 654 b 443 553 371 610 406 586 b 496 496 461 536 479 518 b 535 421 511 472 525 447 b 550 338 544 393 549 365 b 544 261 551 311 549 285 b 478 111 538 207 515 154 b 340 19 440 68 394 38 b 267 3 317 10 292 4 m 478 928 b 457 956 471 939 464 946 l 433 981 b 379 1021 415 997 397 1011 b 247 1058 339 1046 294 1058 b 179 1050 224 1058 201 1056 b 114 1024 157 1044 135 1035 b 19 922 72 1000 40 965 b -1 783 -1 879 -8 832 b 61 660 7 735 28 694 b 113 615 78 642 94 626 b 268 525 163 582 217 557 b 417 379 333 486 396 440 b 422 281 426 350 428 318 b 382 192 417 246 403 217 b 301 138 361 167 335 149 b 201 131 268 128 235 125 b 25 239 135 142 74 185 l 63 272 b 210 181 106 224 156 190 b 343 224 264 171 314 186 b 372 289 358 242 368 264 b 369 364 378 318 376 343 b 326 424 363 383 349 403 b 243 482 303 444 275 464 b 24 626 165 528 83 561 b -50 776 -14 665 -40 717 b -25 944 -60 833 -51 893 b 89 1067 1 997 39 1038 b 167 1099 115 1082 140 1092 b 247 1108 193 1104 219 1108 b 404 1064 303 1108 358 1092 b 468 1017 428 1051 447 1035 b 519 956 493 993 510 974 "},"Ţ":{"ha":628,"x_min":0,"x_max":0,"o":"m 247 1058 l -61 1058 l -61 1110 l 489 1110 l 489 1058 l 300 1058 l 300 985 l 489 985 l 489 938 l 300 938 l 300 0 l 288 0 l 271 -61 b 186 -297 371 -118 356 -304 l 186 -253 b 222 -86 324 -265 317 -103 l 247 7 l 247 938 l 176 938 l 176 0 l 125 0 l 125 938 l -61 938 l -61 985 l 247 985 "},"ţ":{"ha":628,"x_min":0,"x_max":0,"o":"m 247 1058 l -61 1058 l -61 1110 l 489 1110 l 489 1058 l 300 1058 l 300 985 l 489 985 l 489 938 l 300 938 l 300 0 l 288 0 l 271 -61 b 186 -297 371 -118 356 -304 l 186 -253 b 222 -86 324 -265 317 -103 l 247 7 l 247 938 l 176 938 l 176 0 l 125 0 l 125 938 l -61 938 l -61 985 l 247 985 "},"Ť":{"ha":628,"x_min":0,"x_max":0,"o":"m 176 1058 l 125 1058 l -61 1058 l -61 1110 l 489 1110 l 489 1058 l 300 1058 l 300 985 l 489 985 l 489 938 l 300 938 l 300 0 l 247 0 l 247 938 l 176 938 l 176 0 l 125 0 l 125 938 l -61 938 l -61 985 l 125 985 l 176 985 l 247 985 l 247 1058 m 201 1213 l 311 1310 l 374 1310 l 374 1303 l 231 1175 l 175 1175 l 22 1310 l 92 1310 "},"ť":{"ha":628,"x_min":0,"x_max":0,"o":"m 176 1058 l 125 1058 l -61 1058 l -61 1110 l 489 1110 l 489 1058 l 300 1058 l 300 985 l 489 985 l 489 938 l 300 938 l 300 0 l 247 0 l 247 938 l 176 938 l 176 0 l 125 0 l 125 938 l -61 938 l -61 985 l 125 985 l 176 985 l 247 985 l 247 1058 m 201 1213 l 311 1310 l 374 1310 l 374 1303 l 231 1175 l 175 1175 l 22 1310 l 92 1310 "},"Ŧ":{"ha":628,"x_min":0,"x_max":0,"o":"m 36 474 l 125 474 l 125 938 l -61 938 l -61 985 l 247 985 l 247 1058 l -61 1058 l -61 1110 l 489 1110 l 489 1058 l 300 1058 l 300 985 l 489 985 l 489 938 l 300 938 l 300 474 l 389 474 l 389 431 l 300 431 l 300 0 l 247 0 l 247 431 l 176 431 l 176 0 l 125 0 l 125 431 l 36 431 m 247 938 l 176 938 l 176 474 l 247 474 "},"ŧ":{"ha":628,"x_min":0,"x_max":0,"o":"m 36 474 l 125 474 l 125 938 l -61 938 l -61 985 l 247 985 l 247 1058 l -61 1058 l -61 1110 l 489 1110 l 489 1058 l 300 1058 l 300 985 l 489 985 l 489 938 l 300 938 l 300 474 l 389 474 l 389 431 l 300 431 l 300 0 l 247 0 l 247 431 l 176 431 l 176 0 l 125 0 l 125 431 l 36 431 m 247 938 l 176 938 l 176 474 l 247 474 "},"Ũ":{"ha":694,"x_min":0,"x_max":0,"o":"m 151 160 b 247 118 178 132 210 118 b 343 160 285 118 319 133 b 378 246 364 183 378 214 l 378 263 l 378 538 l 378 1110 l 331 1110 l 331 538 l 331 263 l 331 247 b 308 192 326 225 324 207 b 247 165 293 174 272 165 b 186 192 222 165 201 174 b 165 247 172 210 165 228 l 165 263 l 165 538 l 165 1110 l 118 1110 l 118 538 l 118 263 l 118 246 b 151 160 119 211 131 182 m 449 1110 l 449 538 l 449 263 l 449 244 b 396 113 444 193 428 149 b 247 47 358 69 303 47 b 99 113 192 47 136 69 b 47 244 67 150 47 196 l 47 263 l 47 538 l 47 1110 l 0 1110 l 0 538 l 0 263 l 0 244 b 13 168 1 213 6 190 b 64 81 24 136 40 107 b 247 0 110 29 179 0 b 431 81 315 0 385 29 b 496 244 474 126 496 188 l 496 263 l 496 538 l 496 1110 m 114 1282 b 235 1256 142 1222 188 1224 b 413 1214 293 1296 371 1296 l 378 1193 b 254 1217 347 1249 299 1247 b 78 1260 196 1178 117 1179 "},"ũ":{"ha":694,"x_min":0,"x_max":0,"o":"m 151 160 b 247 118 178 132 210 118 b 343 160 285 118 319 133 b 378 246 364 183 378 214 l 378 263 l 378 538 l 378 1110 l 331 1110 l 331 538 l 331 263 l 331 247 b 308 192 326 225 324 207 b 247 165 293 174 272 165 b 186 192 222 165 201 174 b 165 247 172 210 165 228 l 165 263 l 165 538 l 165 1110 l 118 1110 l 118 538 l 118 263 l 118 246 b 151 160 119 211 131 182 m 449 1110 l 449 538 l 449 263 l 449 244 b 396 113 444 193 428 149 b 247 47 358 69 303 47 b 99 113 192 47 136 69 b 47 244 67 150 47 196 l 47 263 l 47 538 l 47 1110 l 0 1110 l 0 538 l 0 263 l 0 244 b 13 168 1 213 6 190 b 64 81 24 136 40 107 b 247 0 110 29 179 0 b 431 81 315 0 385 29 b 496 244 474 126 496 188 l 496 263 l 496 538 l 496 1110 m 114 1282 b 235 1256 142 1222 188 1224 b 413 1214 293 1296 371 1296 l 378 1193 b 254 1217 347 1249 299 1247 b 78 1260 196 1178 117 1179 "},"Ū":{"ha":694,"x_min":0,"x_max":0,"o":"m 151 160 b 118 246 131 182 119 211 l 118 263 l 118 538 l 118 1110 l 165 1110 l 165 538 l 165 263 l 165 247 b 186 192 165 228 172 210 b 247 165 201 174 222 165 b 308 192 272 165 293 174 b 331 247 324 207 326 225 l 331 263 l 331 538 l 331 1110 l 378 1110 l 378 538 l 378 263 l 378 246 b 343 160 378 214 364 183 b 247 118 319 133 285 118 b 151 160 210 118 178 132 m 496 1110 l 496 538 l 496 263 l 496 244 b 431 81 496 188 474 126 b 247 0 385 29 315 0 b 64 81 179 0 110 29 b 13 168 40 107 24 136 b 0 244 6 190 1 213 l 0 263 l 0 538 l 0 1110 l 47 1110 l 47 538 l 47 263 l 47 244 b 99 113 47 196 67 150 b 247 47 136 69 192 47 b 396 113 303 47 358 69 b 449 244 428 149 444 193 l 449 263 l 449 538 l 449 1110 m 121 1239 l 369 1239 l 369 1196 l 121 1196 "},"ū":{"ha":694,"x_min":0,"x_max":0,"o":"m 151 160 b 118 246 131 182 119 211 l 118 263 l 118 538 l 118 1110 l 165 1110 l 165 538 l 165 263 l 165 247 b 186 192 165 228 172 210 b 247 165 201 174 222 165 b 308 192 272 165 293 174 b 331 247 324 207 326 225 l 331 263 l 331 538 l 331 1110 l 378 1110 l 378 538 l 378 263 l 378 246 b 343 160 378 214 364 183 b 247 118 319 133 285 118 b 151 160 210 118 178 132 m 496 1110 l 496 538 l 496 263 l 496 244 b 431 81 496 188 474 126 b 247 0 385 29 315 0 b 64 81 179 0 110 29 b 13 168 40 107 24 136 b 0 244 6 190 1 213 l 0 263 l 0 538 l 0 1110 l 47 1110 l 47 538 l 47 263 l 47 244 b 99 113 47 196 67 150 b 247 47 136 69 192 47 b 396 113 303 47 358 69 b 449 244 428 149 444 193 l 449 263 l 449 538 l 449 1110 m 121 1239 l 369 1239 l 369 1196 l 121 1196 "},"Ŭ":{"ha":694,"x_min":0,"x_max":0,"o":"m 151 160 b 247 118 178 132 210 118 b 343 160 285 118 319 133 b 378 246 364 183 378 214 l 378 263 l 378 538 l 378 1110 l 331 1110 l 331 538 l 331 263 l 331 247 b 308 192 326 225 324 207 b 247 165 293 174 272 165 b 186 192 222 165 201 174 b 165 247 172 210 165 228 l 165 263 l 165 538 l 165 1110 l 118 1110 l 118 538 l 118 263 l 118 246 b 151 160 119 211 131 182 m 449 1110 l 449 538 l 449 263 l 449 244 b 396 113 444 193 428 149 b 247 47 358 69 303 47 b 99 113 192 47 136 69 b 47 244 67 150 47 196 l 47 263 l 47 538 l 47 1110 l 0 1110 l 0 538 l 0 263 l 0 244 b 13 168 1 213 6 190 b 64 81 24 136 40 107 b 247 0 110 29 179 0 b 431 81 315 0 385 29 b 496 244 474 126 496 188 l 496 263 l 496 538 l 496 1110 m 151 1304 b 340 1304 151 1193 340 1193 l 390 1304 b 106 1304 390 1136 106 1135 "},"ŭ":{"ha":694,"x_min":0,"x_max":0,"o":"m 151 160 b 247 118 178 132 210 118 b 343 160 285 118 319 133 b 378 246 364 183 378 214 l 378 263 l 378 538 l 378 1110 l 331 1110 l 331 538 l 331 263 l 331 247 b 308 192 326 225 324 207 b 247 165 293 174 272 165 b 186 192 222 165 201 174 b 165 247 172 210 165 228 l 165 263 l 165 538 l 165 1110 l 118 1110 l 118 538 l 118 263 l 118 246 b 151 160 119 211 131 182 m 449 1110 l 449 538 l 449 263 l 449 244 b 396 113 444 193 428 149 b 247 47 358 69 303 47 b 99 113 192 47 136 69 b 47 244 67 150 47 196 l 47 263 l 47 538 l 47 1110 l 0 1110 l 0 538 l 0 263 l 0 244 b 13 168 1 213 6 190 b 64 81 24 136 40 107 b 247 0 110 29 179 0 b 431 81 315 0 385 29 b 496 244 474 126 496 188 l 496 263 l 496 538 l 496 1110 m 151 1304 b 340 1304 151 1193 340 1193 l 390 1304 b 106 1304 390 1136 106 1135 "},"Ů":{"ha":694,"x_min":0,"x_max":0,"o":"m 151 160 b 247 118 178 132 210 118 b 343 160 285 118 319 133 b 378 246 364 183 378 214 l 378 263 l 378 538 l 378 1110 l 331 1110 l 331 538 l 331 263 l 331 247 b 308 192 326 225 324 207 b 247 165 293 174 272 165 b 186 192 222 165 201 174 b 165 247 172 210 165 228 l 165 263 l 165 538 l 165 1110 l 118 1110 l 118 538 l 118 263 l 118 246 b 151 160 119 211 131 182 m 449 1110 l 449 538 l 449 263 l 449 244 b 396 113 444 193 428 149 b 247 47 358 69 303 47 b 99 113 192 47 136 69 b 47 244 67 150 47 196 l 47 263 l 47 538 l 47 1110 l 0 1110 l 0 538 l 0 263 l 0 244 b 13 168 1 213 6 190 b 64 81 24 136 40 107 b 247 0 110 29 179 0 b 431 81 315 0 385 29 b 496 244 474 126 496 188 l 496 263 l 496 538 l 496 1110 m 133 1258 b 357 1258 133 1406 357 1406 b 133 1258 357 1108 133 1108 m 174 1258 b 317 1258 174 1164 317 1164 b 174 1258 317 1351 174 1351 "},"ů":{"ha":694,"x_min":0,"x_max":0,"o":"m 151 160 b 247 118 178 132 210 118 b 343 160 285 118 319 133 b 378 246 364 183 378 214 l 378 263 l 378 538 l 378 1110 l 331 1110 l 331 538 l 331 263 l 331 247 b 308 192 326 225 324 207 b 247 165 293 174 272 165 b 186 192 222 165 201 174 b 165 247 172 210 165 228 l 165 263 l 165 538 l 165 1110 l 118 1110 l 118 538 l 118 263 l 118 246 b 151 160 119 211 131 182 m 449 1110 l 449 538 l 449 263 l 449 244 b 396 113 444 193 428 149 b 247 47 358 69 303 47 b 99 113 192 47 136 69 b 47 244 67 150 47 196 l 47 263 l 47 538 l 47 1110 l 0 1110 l 0 538 l 0 263 l 0 244 b 13 168 1 213 6 190 b 64 81 24 136 40 107 b 247 0 110 29 179 0 b 431 81 315 0 385 29 b 496 244 474 126 496 188 l 496 263 l 496 538 l 496 1110 m 133 1258 b 357 1258 133 1406 357 1406 b 133 1258 357 1108 133 1108 m 174 1258 b 317 1258 174 1164 317 1164 b 174 1258 317 1351 174 1351 "},"ű":{"ha":694,"x_min":0,"x_max":0,"o":"m 151 160 b 118 246 131 182 119 211 l 118 263 l 118 538 l 118 1110 l 165 1110 l 165 538 l 165 263 l 165 247 b 186 192 165 228 172 210 b 247 165 201 174 222 165 b 308 192 272 165 293 174 b 331 247 324 207 326 225 l 331 263 l 331 538 l 331 1110 l 378 1110 l 378 538 l 378 263 l 378 246 b 343 160 378 214 364 183 b 247 118 319 133 285 118 b 151 160 210 118 178 132 m 496 1110 l 496 538 l 496 263 l 496 244 b 431 81 496 188 474 126 b 247 0 385 29 315 0 b 64 81 179 0 110 29 b 13 168 40 107 24 136 b 0 244 6 190 1 213 l 0 263 l 0 538 l 0 1110 l 47 1110 l 47 538 l 47 263 l 47 244 b 99 113 47 196 67 150 b 247 47 136 69 192 47 b 396 113 303 47 358 69 b 449 244 428 149 444 193 l 449 263 l 449 538 l 449 1110 m 135 1186 l 214 1288 l 282 1288 l 282 1281 l 193 1183 l 135 1183 m 286 1186 l 365 1288 l 433 1288 l 433 1281 l 344 1183 l 286 1183 "},"Ų":{"ha":694,"x_min":0,"x_max":0,"o":"m 151 160 b 118 246 131 182 119 211 l 118 263 l 118 538 l 118 1110 l 165 1110 l 165 538 l 165 263 l 165 247 b 186 192 165 228 172 210 b 247 165 201 174 222 165 b 308 192 272 165 293 174 b 331 247 324 207 326 225 l 331 263 l 331 538 l 331 1110 l 378 1110 l 378 538 l 378 263 l 378 246 b 343 160 378 214 364 183 b 247 118 319 133 285 118 b 151 160 210 118 178 132 m 496 1110 l 496 244 b 431 81 496 188 474 126 b 347 21 407 54 379 35 b 293 4 329 14 311 8 b 363 -164 229 -37 242 -174 l 363 -208 b 238 0 218 -215 182 -75 b 147 21 207 1 176 8 b 64 81 115 35 88 54 b 13 168 40 107 24 136 b 0 244 6 190 1 213 l 0 1110 l 47 1110 l 47 244 b 99 113 47 196 67 150 b 247 47 136 69 192 47 b 396 113 303 47 358 69 b 449 244 428 149 444 193 l 449 1110 "},"ų":{"ha":694,"x_min":0,"x_max":0,"o":"m 151 160 b 118 246 131 182 119 211 l 118 263 l 118 538 l 118 1110 l 165 1110 l 165 538 l 165 263 l 165 247 b 186 192 165 228 172 210 b 247 165 201 174 222 165 b 308 192 272 165 293 174 b 331 247 324 207 326 225 l 331 263 l 331 538 l 331 1110 l 378 1110 l 378 538 l 378 263 l 378 246 b 343 160 378 214 364 183 b 247 118 319 133 285 118 b 151 160 210 118 178 132 m 496 1110 l 496 244 b 431 81 496 188 474 126 b 347 21 407 54 379 35 b 293 4 329 14 311 8 b 363 -164 229 -37 242 -174 l 363 -208 b 238 0 218 -215 182 -75 b 147 21 207 1 176 8 b 64 81 115 35 88 54 b 13 168 40 107 24 136 b 0 244 6 190 1 213 l 0 1110 l 47 1110 l 47 244 b 99 113 47 196 67 150 b 247 47 136 69 192 47 b 396 113 303 47 358 69 b 449 244 428 149 444 193 l 449 1110 "},"Ŵ":{"ha":650,"x_min":0,"x_max":0,"o":"m 436 1110 l 483 1110 l 483 239 l 483 138 l 483 0 l 478 0 l 425 0 l 365 117 l 318 208 l 240 363 l 165 217 l 118 124 l 54 0 l 3 0 l 0 0 l 0 146 l 0 247 l 0 1110 l 47 1110 l 47 339 l 47 238 l 47 86 l 118 225 l 165 317 l 240 463 l 318 310 l 318 461 l 240 614 l 165 468 l 118 376 l 118 476 l 118 1110 l 165 1110 l 165 569 l 240 756 l 318 561 l 318 1110 l 365 1110 l 365 469 l 365 368 l 365 217 l 436 79 l 436 231 l 436 331 m 240 1285 l 131 1188 l 68 1188 l 68 1194 l 211 1322 l 267 1322 l 419 1188 l 350 1188 "},"ŵ":{"ha":650,"x_min":0,"x_max":0,"o":"m 436 1110 l 483 1110 l 483 239 l 483 138 l 483 0 l 478 0 l 425 0 l 365 117 l 318 208 l 240 363 l 165 217 l 118 124 l 54 0 l 3 0 l 0 0 l 0 146 l 0 247 l 0 1110 l 47 1110 l 47 339 l 47 238 l 47 86 l 118 225 l 165 317 l 240 463 l 318 310 l 318 461 l 240 614 l 165 468 l 118 376 l 118 476 l 118 1110 l 165 1110 l 165 569 l 240 756 l 318 561 l 318 1110 l 365 1110 l 365 469 l 365 368 l 365 217 l 436 79 l 436 231 l 436 331 m 240 1285 l 131 1188 l 68 1188 l 68 1194 l 211 1322 l 267 1322 l 419 1188 l 350 1188 "},"Ŷ":{"ha":550,"x_min":0,"x_max":0,"o":"m 425 1110 b 260 543 419 1088 410 1065 l 260 421 l 260 0 l 213 0 l 213 443 l 213 550 l 213 560 l 178 683 l 142 560 l 142 550 l 142 386 l 142 0 l 94 0 l 94 476 l 94 543 l 92 554 l -47 1029 l -69 1110 l -21 1110 l -1 1042 l 115 640 l 153 779 l 53 1110 l 110 1110 l 119 1074 l 178 865 l 239 1089 l 244 1110 l 294 1110 b 201 779 290 1099 286 1088 l 239 640 b 376 1110 367 1074 369 1090 m 172 1279 l 63 1182 l 0 1182 l 0 1189 l 143 1317 l 199 1317 l 351 1182 l 282 1182 "},"ŷ":{"ha":550,"x_min":0,"x_max":0,"o":"m 425 1110 b 260 543 419 1088 410 1065 l 260 421 l 260 0 l 213 0 l 213 443 l 213 550 l 213 560 l 178 683 l 142 560 l 142 550 l 142 386 l 142 0 l 94 0 l 94 476 l 94 543 l 92 554 l -47 1029 l -69 1110 l -21 1110 l -1 1042 l 115 640 l 153 779 l 53 1110 l 110 1110 l 119 1074 l 178 865 l 239 1089 l 244 1110 l 294 1110 b 201 779 290 1099 286 1088 l 239 640 b 376 1110 367 1074 369 1090 m 172 1279 l 63 1182 l 0 1182 l 0 1189 l 143 1317 l 199 1317 l 351 1182 l 282 1182 "},"Ź":{"ha":626,"x_min":0,"x_max":0,"o":"m 124 118 l 413 935 l 329 935 l 14 47 l 506 47 l 506 0 l -53 0 l 279 935 l -53 935 l -53 985 l 296 985 l 322 1061 l -53 1061 l -53 1108 l 393 1108 l 346 985 l 479 985 l 190 174 l 506 174 l 506 118 m 150 1181 l 257 1296 l 325 1296 l 325 1289 l 208 1178 l 150 1178 "},"ź":{"ha":626,"x_min":0,"x_max":0,"o":"m 124 118 l 413 935 l 329 935 l 14 47 l 506 47 l 506 0 l -53 0 l 279 935 l -53 935 l -53 985 l 296 985 l 322 1061 l -53 1061 l -53 1108 l 393 1108 l 346 985 l 479 985 l 190 174 l 506 174 l 506 118 m 150 1181 l 257 1296 l 325 1296 l 325 1289 l 208 1178 l 150 1178 "},"Ż":{"ha":626,"x_min":0,"x_max":0,"o":"m 200 1264 b 243 1222 224 1264 243 1246 b 200 1181 243 1199 224 1181 b 158 1222 178 1181 158 1199 b 200 1264 158 1246 178 1264 m 506 118 l 506 174 l 190 174 l 479 985 l 346 985 l 393 1108 l -53 1108 l -53 1061 l 322 1061 l 296 985 l -53 985 l -53 935 l 279 935 l -53 0 l 506 0 l 506 47 l 14 47 l 329 935 l 413 935 l 124 118 "},"ż":{"ha":626,"x_min":0,"x_max":0,"o":"m 200 1264 b 243 1222 224 1264 243 1246 b 200 1181 243 1199 224 1181 b 158 1222 178 1181 158 1199 b 200 1264 158 1246 178 1264 m 506 118 l 506 174 l 190 174 l 479 985 l 346 985 l 393 1108 l -53 1108 l -53 1061 l 322 1061 l 296 985 l -53 985 l -53 935 l 279 935 l -53 0 l 506 0 l 506 47 l 14 47 l 329 935 l 413 935 l 124 118 "},"ſ":{"ha":590,"x_min":0,"x_max":0,"o":"m 125 936 l 50 936 l 50 636 l 125 636 m 125 1060 l 50 1060 l 50 988 l 125 988 m 174 936 l 174 0 l 125 0 l 125 588 l 50 588 l 50 0 l 0 0 l 0 1110 l 439 1110 l 439 1060 l 174 1060 l 174 988 l 439 988 l 439 936 "},"˙":{"ha":214,"x_min":0,"x_max":0,"o":"m 38 1106 b 81 1064 61 1106 81 1088 b 38 1022 81 1040 61 1022 b -4 1064 15 1022 -4 1040 b 38 1106 -4 1088 15 1106 "},"˝":{"ha":417,"x_min":0,"x_max":0,"o":"m 25 1007 l 104 1108 l 172 1108 l 172 1101 l 83 1004 l 25 1004 m 176 1007 l 256 1108 l 324 1108 l 324 1101 l 235 1004 l 176 1004 "},"Ő":{"ha":686,"x_min":0,"x_max":0,"o":"m 338 953 b 386 856 371 926 386 893 l 386 247 b 338 150 386 210 371 176 b 249 118 314 128 281 118 b 158 150 215 118 185 128 b 115 247 131 176 115 210 l 115 856 b 158 953 115 893 131 926 b 249 985 185 975 215 985 b 338 953 281 985 314 975 m 335 856 b 307 917 335 881 325 901 b 249 938 290 932 269 938 b 189 917 226 938 206 932 b 161 856 171 901 161 881 l 161 247 b 189 186 161 222 171 201 b 249 165 206 171 226 165 b 307 186 269 165 290 171 b 335 247 325 201 335 222 m 419 1042 b 501 856 471 996 501 926 l 501 247 b 419 61 501 176 471 107 b 249 0 375 22 314 0 b 82 61 188 0 131 18 b 0 247 31 107 0 176 l 0 856 b 82 1042 0 926 31 996 b 249 1108 125 1086 182 1108 b 419 1042 308 1108 375 1090 m 456 856 b 389 1006 456 913 432 968 b 249 1061 354 1039 303 1061 b 113 1006 197 1061 153 1043 b 46 856 69 968 46 913 l 46 247 b 113 97 46 190 69 135 b 249 47 147 64 192 47 b 389 97 297 47 350 60 b 456 247 432 135 456 190 m 129 1161 l 208 1263 l 276 1263 l 276 1256 l 188 1158 l 129 1158 m 281 1161 l 360 1263 l 428 1263 l 428 1256 l 339 1158 l 281 1158 "},"Ű":{"ha":694,"x_min":0,"x_max":0,"o":"m 151 160 b 118 246 131 182 119 211 l 118 263 l 118 538 l 118 1110 l 165 1110 l 165 538 l 165 263 l 165 247 b 186 192 165 228 172 210 b 247 165 201 174 222 165 b 308 192 272 165 293 174 b 331 247 324 207 326 225 l 331 263 l 331 538 l 331 1110 l 378 1110 l 378 538 l 378 263 l 378 246 b 343 160 378 214 364 183 b 247 118 319 133 285 118 b 151 160 210 118 178 132 m 496 1110 l 496 538 l 496 263 l 496 244 b 431 81 496 188 474 126 b 247 0 385 29 315 0 b 64 81 179 0 110 29 b 13 168 40 107 24 136 b 0 244 6 190 1 213 l 0 263 l 0 538 l 0 1110 l 47 1110 l 47 538 l 47 263 l 47 244 b 99 113 47 196 67 150 b 247 47 136 69 192 47 b 396 113 303 47 358 69 b 449 244 428 149 444 193 l 449 263 l 449 538 l 449 1110 m 135 1186 l 214 1288 l 282 1288 l 282 1281 l 193 1183 l 135 1183 m 286 1186 l 365 1288 l 433 1288 l 433 1281 l 344 1183 l 286 1183 "},"Ỳ":{"ha":550,"x_min":0,"x_max":0,"o":"m 376 1110 b 239 640 369 1090 367 1074 l 201 779 b 294 1110 286 1088 290 1099 l 244 1110 l 239 1089 l 178 865 l 119 1074 l 110 1110 l 53 1110 l 153 779 l 115 640 l -1 1042 l -21 1110 l -69 1110 l -47 1029 l 92 554 l 94 543 l 94 476 l 94 0 l 142 0 l 142 386 l 142 550 l 142 560 l 178 683 l 213 560 l 213 550 l 213 443 l 213 0 l 260 0 l 260 421 l 260 543 b 425 1110 410 1065 419 1088 m 228 1181 l 169 1181 l 53 1292 l 53 1299 l 121 1299 l 228 1183 "},"ỳ":{"ha":550,"x_min":0,"x_max":0,"o":"m 376 1110 b 239 640 369 1090 367 1074 l 201 779 b 294 1110 286 1088 290 1099 l 244 1110 l 239 1089 l 178 865 l 119 1074 l 110 1110 l 53 1110 l 153 779 l 115 640 l -1 1042 l -21 1110 l -69 1110 l -47 1029 l 92 554 l 94 543 l 94 476 l 94 0 l 142 0 l 142 386 l 142 550 l 142 560 l 178 683 l 213 560 l 213 550 l 213 443 l 213 0 l 260 0 l 260 421 l 260 543 b 425 1110 410 1065 419 1088 m 228 1181 l 169 1181 l 53 1292 l 53 1299 l 121 1299 l 228 1183 "},"Ẁ":{"ha":650,"x_min":0,"x_max":0,"o":"m 436 331 l 436 231 l 436 79 l 365 217 l 365 368 l 365 469 l 365 1110 l 318 1110 l 318 561 l 240 756 l 165 569 l 165 1110 l 118 1110 l 118 476 l 118 376 l 165 468 l 240 614 l 318 461 l 318 310 l 240 463 l 165 317 l 118 225 l 47 86 l 47 238 l 47 339 l 47 1110 l 0 1110 l 0 247 l 0 146 l 0 0 l 3 0 l 54 0 l 118 124 l 165 217 l 240 363 l 318 208 l 365 117 l 425 0 l 478 0 l 483 0 l 483 138 l 483 239 l 483 1110 l 436 1110 m 289 1181 l 231 1181 l 114 1292 l 114 1299 l 182 1299 l 289 1183 "},"ẁ":{"ha":650,"x_min":0,"x_max":0,"o":"m 436 331 l 436 231 l 436 79 l 365 217 l 365 368 l 365 469 l 365 1110 l 318 1110 l 318 561 l 240 756 l 165 569 l 165 1110 l 118 1110 l 118 476 l 118 376 l 165 468 l 240 614 l 318 461 l 318 310 l 240 463 l 165 317 l 118 225 l 47 86 l 47 238 l 47 339 l 47 1110 l 0 1110 l 0 247 l 0 146 l 0 0 l 3 0 l 54 0 l 118 124 l 165 217 l 240 363 l 318 208 l 365 117 l 425 0 l 478 0 l 483 0 l 483 138 l 483 239 l 483 1110 l 436 1110 m 289 1181 l 231 1181 l 114 1292 l 114 1299 l 182 1299 l 289 1183 "},"Ẃ":{"ha":650,"x_min":0,"x_max":0,"o":"m 436 1110 l 483 1110 l 483 239 l 483 138 l 483 0 l 478 0 l 425 0 l 365 117 l 318 208 l 240 363 l 165 217 l 118 124 l 54 0 l 3 0 l 0 0 l 0 146 l 0 247 l 0 1110 l 47 1110 l 47 339 l 47 238 l 47 86 l 118 225 l 165 317 l 240 463 l 318 310 l 318 461 l 240 614 l 165 468 l 118 376 l 118 476 l 118 1110 l 165 1110 l 165 569 l 240 756 l 318 561 l 318 1110 l 365 1110 l 365 469 l 365 368 l 365 217 l 436 79 l 436 231 l 436 331 m 185 1176 l 292 1292 l 360 1292 l 360 1285 l 243 1174 l 185 1174 "},"ẃ":{"ha":650,"x_min":0,"x_max":0,"o":"m 436 1110 l 483 1110 l 483 239 l 483 138 l 483 0 l 478 0 l 425 0 l 365 117 l 318 208 l 240 363 l 165 217 l 118 124 l 54 0 l 3 0 l 0 0 l 0 146 l 0 247 l 0 1110 l 47 1110 l 47 339 l 47 238 l 47 86 l 118 225 l 165 317 l 240 463 l 318 310 l 318 461 l 240 614 l 165 468 l 118 376 l 118 476 l 118 1110 l 165 1110 l 165 569 l 240 756 l 318 561 l 318 1110 l 365 1110 l 365 469 l 365 368 l 365 217 l 436 79 l 436 231 l 436 331 m 185 1176 l 292 1292 l 360 1292 l 360 1285 l 243 1174 l 185 1174 "},"Ẅ":{"ha":650,"x_min":0,"x_max":0,"o":"m 436 331 l 436 231 l 436 79 l 365 217 l 365 368 l 365 469 l 365 1110 l 318 1110 l 318 561 l 240 756 l 165 569 l 165 1110 l 118 1110 l 118 476 l 118 376 l 165 468 l 240 614 l 318 461 l 318 310 l 240 463 l 165 317 l 118 225 l 47 86 l 47 238 l 47 339 l 47 1110 l 0 1110 l 0 247 l 0 146 l 0 0 l 3 0 l 54 0 l 118 124 l 165 217 l 240 363 l 318 208 l 365 117 l 425 0 l 478 0 l 483 0 l 483 138 l 483 239 l 483 1110 l 436 1110 m 356 1254 b 399 1213 379 1254 399 1236 b 356 1171 399 1189 379 1171 b 314 1213 333 1171 314 1189 b 356 1254 314 1236 333 1254 m 125 1254 b 167 1213 147 1254 167 1236 b 125 1171 167 1189 147 1171 b 83 1213 101 1171 83 1189 b 125 1254 83 1236 101 1254 "},"ẅ":{"ha":650,"x_min":0,"x_max":0,"o":"m 436 331 l 436 231 l 436 79 l 365 217 l 365 368 l 365 469 l 365 1110 l 318 1110 l 318 561 l 240 756 l 165 569 l 165 1110 l 118 1110 l 118 476 l 118 376 l 165 468 l 240 614 l 318 461 l 318 310 l 240 463 l 165 317 l 118 225 l 47 86 l 47 238 l 47 339 l 47 1110 l 0 1110 l 0 247 l 0 146 l 0 0 l 3 0 l 54 0 l 118 124 l 165 217 l 240 363 l 318 208 l 365 117 l 425 0 l 478 0 l 483 0 l 483 138 l 483 239 l 483 1110 l 436 1110 m 356 1254 b 399 1213 379 1254 399 1236 b 356 1171 399 1189 379 1171 b 314 1213 333 1171 314 1189 b 356 1254 314 1236 333 1254 m 125 1254 b 167 1213 147 1254 167 1236 b 125 1171 167 1189 147 1171 b 83 1213 101 1171 83 1189 b 125 1254 83 1236 101 1254 "},"Ș":{"ha":672,"x_min":0,"x_max":0,"o":"m 160 -224 l 160 -57 l 207 -57 l 207 -224 m 274 -301 l 274 -57 l 321 -57 l 321 -342 m 478 928 b 457 956 471 939 464 946 l 433 981 b 379 1021 415 997 397 1011 b 247 1058 339 1046 294 1058 b 179 1050 224 1058 201 1056 b 114 1024 157 1044 135 1035 b 19 922 72 1000 40 965 b -1 783 -1 879 -8 832 b 61 660 7 735 28 694 b 113 615 78 642 94 626 b 268 525 163 582 217 557 b 417 379 333 486 396 440 b 422 281 426 350 428 318 b 382 192 417 246 403 217 b 301 138 361 167 335 149 b 201 131 268 128 235 125 b 25 239 135 142 74 185 l 63 272 b 210 181 106 224 156 190 b 343 224 264 171 314 186 b 372 289 358 242 368 264 b 369 364 378 318 376 343 b 326 424 363 383 349 403 b 243 482 303 444 275 464 b 24 626 165 528 83 561 b -50 776 -14 665 -40 717 b -25 944 -60 833 -51 893 b 89 1067 1 997 39 1038 b 167 1099 115 1082 140 1092 b 247 1108 193 1104 219 1108 b 404 1064 303 1108 358 1092 b 468 1017 428 1051 447 1035 b 519 956 493 993 510 974 m 372 861 b 247 933 343 904 296 933 b 178 915 222 933 199 928 b 132 867 157 903 142 888 b 122 804 122 847 119 826 b 153 744 126 782 138 763 b 228 693 169 726 185 719 b 333 632 261 672 296 654 b 443 553 371 610 406 586 b 496 496 461 536 479 518 b 535 421 511 472 525 447 b 550 338 544 393 549 365 b 544 261 551 311 549 285 b 478 111 538 207 515 154 b 340 19 440 68 394 38 b 181 7 289 1 235 -3 b 39 63 129 17 82 35 b -69 157 -1 89 -37 119 l -32 189 b 65 106 -3 156 31 128 b 189 57 103 82 144 64 b 325 67 233 50 281 51 b 439 143 371 82 410 107 b 496 268 471 181 489 224 b 488 404 503 311 503 360 b 410 517 472 450 442 488 b 307 589 376 546 342 568 b 203 649 272 610 238 628 l 176 664 b 117 710 154 676 135 692 b 74 796 92 736 78 764 b 88 889 68 828 72 858 b 153 958 103 921 124 943 b 247 983 182 975 213 983 b 414 888 313 983 383 944 "},"ș":{"ha":672,"x_min":0,"x_max":0,"o":"m 165 -224 l 165 -57 l 213 -57 l 213 -224 m 279 -301 l 279 -57 l 326 -57 l 326 -342 m 478 928 b 457 956 471 939 464 946 l 433 981 b 379 1021 415 997 397 1011 b 247 1058 339 1046 294 1058 b 179 1050 224 1058 201 1056 b 114 1024 157 1044 135 1035 b 19 922 72 1000 40 965 b -1 783 -1 879 -8 832 b 61 660 7 735 28 694 b 113 615 78 642 94 626 b 268 525 163 582 217 557 b 417 379 333 486 396 440 b 422 281 426 350 428 318 b 382 192 417 246 403 217 b 301 138 361 167 335 149 b 201 131 268 128 235 125 b 25 239 135 142 74 185 l 63 272 b 210 181 106 224 156 190 b 343 224 264 171 314 186 b 372 289 358 242 368 264 b 369 364 378 318 376 343 b 326 424 363 383 349 403 b 243 482 303 444 275 464 b 24 626 165 528 83 561 b -50 776 -14 665 -40 717 b -25 944 -60 833 -51 893 b 89 1067 1 997 39 1038 b 167 1099 115 1082 140 1092 b 247 1108 193 1104 219 1108 b 404 1064 303 1108 358 1092 b 468 1017 428 1051 447 1035 b 519 956 493 993 510 974 m 372 861 b 247 933 343 904 296 933 b 178 915 222 933 199 928 b 132 867 157 903 142 888 b 122 804 122 847 119 826 b 153 744 126 782 138 763 b 228 693 169 726 185 719 b 333 632 261 672 296 654 b 443 553 371 610 406 586 b 496 496 461 536 479 518 b 535 421 511 472 525 447 b 550 338 544 393 549 365 b 544 261 551 311 549 285 b 478 111 538 207 515 154 b 340 19 440 68 394 38 b 181 7 289 1 235 -3 b 39 63 129 17 82 35 b -69 157 -1 89 -37 119 l -32 189 b 65 106 -3 156 31 128 b 189 57 103 82 144 64 b 325 67 233 50 281 51 b 439 143 371 82 410 107 b 496 268 471 181 489 224 b 488 404 503 311 503 360 b 410 517 472 450 442 488 b 307 589 376 546 342 568 b 203 649 272 610 238 628 l 176 664 b 117 710 154 676 135 692 b 74 796 92 736 78 764 b 88 889 68 828 72 858 b 153 958 103 921 124 943 b 247 983 182 975 213 983 b 414 888 313 983 383 944 "},"Ț":{"ha":628,"x_min":0,"x_max":0,"o":"m 131 -224 l 131 -57 l 178 -57 l 178 -224 m 244 -301 l 244 -57 l 292 -57 l 292 -342 m 176 1058 l 125 1058 l -61 1058 l -61 1110 l 489 1110 l 489 1058 l 300 1058 l 300 985 l 489 985 l 489 938 l 300 938 l 300 0 l 247 0 l 247 938 l 176 938 l 176 0 l 125 0 l 125 938 l -61 938 l -61 985 l 125 985 l 176 985 l 247 985 l 247 1058 "},"ț":{"ha":628,"x_min":0,"x_max":0,"o":"m 128 -224 l 128 -57 l 175 -57 l 175 -224 m 242 -301 l 242 -57 l 289 -57 l 289 -342 m 176 1058 l 125 1058 l -61 1058 l -61 1110 l 489 1110 l 489 1058 l 300 1058 l 300 985 l 489 985 l 489 938 l 300 938 l 300 0 l 247 0 l 247 938 l 176 938 l 176 0 l 125 0 l 125 938 l -61 938 l -61 985 l 125 985 l 176 985 l 247 985 l 247 1058 "},"Ǻ":{"ha":710,"x_min":0,"x_max":0,"o":"m 154 1181 b 378 1181 154 1328 378 1328 b 342 1096 378 1142 363 1114 b 426 1047 374 1085 401 1068 b 521 849 483 1001 521 928 l 521 0 l 471 0 l 471 849 b 260 1060 471 964 375 1060 b 50 849 144 1060 50 964 l 50 449 l 125 406 l 125 849 b 260 985 125 921 186 985 b 396 849 335 985 396 921 l 396 336 b 175 463 322 379 249 419 l 175 376 b 396 250 249 333 322 293 l 396 0 l 346 0 l 346 221 l 175 319 l 175 0 l 125 0 l 125 347 l 50 390 l 50 0 l 0 0 l 0 849 b 131 1074 0 944 54 1026 b 186 1099 149 1083 167 1092 b 154 1181 167 1117 154 1144 m 175 521 l 346 424 l 346 849 b 260 935 346 897 308 935 b 175 849 214 935 175 897 m 194 1181 b 338 1181 194 1086 338 1086 b 194 1181 338 1274 194 1274 m 229 1317 l 335 1404 l 401 1404 l 401 1399 l 286 1314 l 229 1314 "},"ǻ":{"ha":710,"x_min":0,"x_max":0,"o":"m 154 1181 b 378 1181 154 1328 378 1328 b 342 1096 378 1142 363 1114 b 426 1047 374 1085 401 1068 b 521 849 483 1001 521 928 l 521 0 l 471 0 l 471 849 b 260 1060 471 964 375 1060 b 50 849 144 1060 50 964 l 50 449 l 125 406 l 125 849 b 260 985 125 921 186 985 b 396 849 335 985 396 921 l 396 336 b 175 463 322 379 249 419 l 175 376 b 396 250 249 333 322 293 l 396 0 l 346 0 l 346 221 l 175 319 l 175 0 l 125 0 l 125 347 l 50 390 l 50 0 l 0 0 l 0 849 b 131 1074 0 944 54 1026 b 186 1099 149 1083 167 1092 b 154 1181 167 1117 154 1144 m 175 521 l 346 424 l 346 849 b 260 935 346 897 308 935 b 175 849 214 935 175 897 m 194 1181 b 338 1181 194 1086 338 1086 b 194 1181 338 1274 194 1274 m 229 1317 l 335 1404 l 401 1404 l 401 1399 l 286 1314 l 229 1314 "},"Ǽ":{"ha":867,"x_min":0,"x_max":0,"o":"m 235 1111 b 700 1111 390 1111 544 1111 l 700 1064 l 364 1064 l 364 638 l 439 638 l 439 989 l 700 989 l 700 940 l 488 940 l 488 638 l 700 638 l 700 590 l 364 590 b 364 50 364 411 364 231 l 439 50 b 439 517 439 204 439 363 l 700 517 l 700 468 l 488 468 l 488 174 l 700 174 l 700 122 l 488 122 l 488 50 l 700 50 l 700 0 l 317 0 l 317 329 b 149 221 275 304 174 236 l 149 0 l 99 0 l 99 251 b 317 386 142 276 264 354 l 317 472 b 99 339 264 442 142 363 l 99 850 b 239 985 99 933 158 985 l 317 985 l 317 1063 l 235 1063 b 24 850 121 1063 24 965 l 24 0 l -26 0 l -26 850 b 235 1111 -26 993 92 1111 m 317 936 l 238 936 b 149 850 186 936 149 904 l 149 426 l 317 531 m 329 1169 l 436 1285 l 504 1285 l 504 1278 l 388 1167 l 329 1167 "},"ǽ":{"ha":867,"x_min":0,"x_max":0,"o":"m 235 1111 b 700 1111 390 1111 544 1111 l 700 1064 l 364 1064 l 364 638 l 439 638 l 439 989 l 700 989 l 700 940 l 488 940 l 488 638 l 700 638 l 700 590 l 364 590 b 364 50 364 411 364 231 l 439 50 b 439 517 439 204 439 363 l 700 517 l 700 468 l 488 468 l 488 174 l 700 174 l 700 122 l 488 122 l 488 50 l 700 50 l 700 0 l 317 0 l 317 329 b 149 221 275 304 174 236 l 149 0 l 99 0 l 99 251 b 317 386 142 276 264 354 l 317 472 b 99 339 264 442 142 363 l 99 850 b 239 985 99 933 158 985 l 317 985 l 317 1063 l 235 1063 b 24 850 121 1063 24 965 l 24 0 l -26 0 l -26 850 b 235 1111 -26 993 92 1111 m 317 936 l 238 936 b 149 850 186 936 149 904 l 149 426 l 317 531 m 329 1169 l 436 1285 l 504 1285 l 504 1278 l 388 1167 l 329 1167 "},"Ǿ":{"ha":686,"x_min":0,"x_max":0,"o":"m 61 -47 l 90 53 l 82 61 b 0 247 31 107 0 176 l 0 856 b 82 1042 0 926 31 996 b 249 1108 125 1086 182 1108 b 339 1093 278 1108 308 1103 b 388 1068 357 1088 372 1079 l 414 1158 l 458 1158 l 424 1038 b 479 957 447 1015 467 989 b 501 856 494 925 501 890 l 501 247 b 419 61 501 176 471 107 b 249 0 375 22 314 0 b 160 14 218 0 189 4 b 126 29 149 18 138 24 l 104 -47 m 456 856 b 389 1006 456 913 432 968 b 249 1061 354 1039 303 1061 b 113 1006 197 1061 153 1043 b 46 856 69 968 46 913 l 46 247 b 63 164 46 218 51 190 b 104 103 72 140 86 121 l 129 188 b 126 194 128 189 128 192 b 115 247 119 211 115 229 l 115 856 b 158 953 115 893 131 926 b 249 985 185 975 215 985 b 338 953 281 985 314 975 b 386 856 371 926 386 893 l 386 247 b 338 150 386 210 371 176 b 249 118 314 128 281 118 b 200 125 232 118 215 121 b 160 147 186 129 172 138 l 139 75 b 249 47 169 57 206 47 b 389 97 297 47 350 60 b 456 247 432 135 456 190 m 307 917 b 249 938 290 932 269 938 b 189 917 226 938 206 932 b 161 856 171 901 161 881 l 161 294 l 332 878 b 307 917 328 893 319 906 m 189 186 b 249 165 206 171 226 165 b 307 186 269 165 290 171 b 335 247 325 201 335 222 l 335 744 l 175 200 b 189 186 179 194 183 190 m 201 1188 l 308 1303 l 376 1303 l 376 1296 l 260 1185 l 201 1185 "},"ǿ":{"ha":686,"x_min":0,"x_max":0,"o":"m 61 -47 l 90 53 l 82 61 b 0 247 31 107 0 176 l 0 856 b 82 1042 0 926 31 996 b 249 1108 125 1086 182 1108 b 339 1093 278 1108 308 1103 b 388 1068 357 1088 372 1079 l 414 1158 l 458 1158 l 424 1038 b 479 957 447 1015 467 989 b 501 856 494 925 501 890 l 501 247 b 419 61 501 176 471 107 b 249 0 375 22 314 0 b 160 14 218 0 189 4 b 126 29 149 18 138 24 l 104 -47 m 456 856 b 389 1006 456 913 432 968 b 249 1061 354 1039 303 1061 b 113 1006 197 1061 153 1043 b 46 856 69 968 46 913 l 46 247 b 63 164 46 218 51 190 b 104 103 72 140 86 121 l 129 188 b 126 194 128 189 128 192 b 115 247 119 211 115 229 l 115 856 b 158 953 115 893 131 926 b 249 985 185 975 215 985 b 338 953 281 985 314 975 b 386 856 371 926 386 893 l 386 247 b 338 150 386 210 371 176 b 249 118 314 128 281 118 b 200 125 232 118 215 121 b 160 147 186 129 172 138 l 139 75 b 249 47 169 57 206 47 b 389 97 297 47 350 60 b 456 247 432 135 456 190 m 307 917 b 249 938 290 932 269 938 b 189 917 226 938 206 932 b 161 856 171 901 161 881 l 161 294 l 332 878 b 307 917 328 893 319 906 m 189 186 b 249 165 206 171 226 165 b 307 186 269 165 290 171 b 335 247 325 201 335 222 l 335 744 l 175 200 b 189 186 179 194 183 190 m 201 1188 l 308 1303 l 376 1303 l 376 1296 l 260 1185 l 201 1185 "},"Ѓ":{"ha":560,"x_min":0,"x_max":0,"o":"m -10 0 l -10 1110 l 429 1110 l 429 1060 l 164 1060 l 164 986 l 429 986 l 429 938 l 164 938 b 164 0 164 625 164 311 l 115 0 b 115 938 115 311 115 625 l 39 938 b 39 0 39 625 39 311 m 115 1060 l 39 1060 l 39 986 l 115 986 m 154 1175 l 261 1290 l 329 1290 l 329 1283 l 213 1172 l 154 1172 "},"ѓ":{"ha":560,"x_min":0,"x_max":0,"o":"m -10 0 l -10 1110 l 429 1110 l 429 1060 l 164 1060 l 164 986 l 429 986 l 429 938 l 164 938 b 164 0 164 625 164 311 l 115 0 b 115 938 115 311 115 625 l 39 938 b 39 0 39 625 39 311 m 115 1060 l 39 1060 l 39 986 l 115 986 m 154 1175 l 261 1290 l 329 1290 l 329 1283 l 213 1172 l 154 1172 "}}}
